{
.appVersion = "85";
DisplayStrings = (
"ABCDEFGHJKLMN\012OPQRSTUVWXYZ\012\012abcdefghijklm\012nopqrstuvwxyz\012\012Now I can find out what this new font looks like."
);
copyright = "Copyright 2018 Christopher Kent";
customParameters = (
{
name = vendorID;
value = DAMA;
},
{
name = panose;
value = (
2,
11,
3,
4,
3,
6,
2,
3,
2,
4
);
},
{
name = unicodeRanges;
value = (
0,
1,
2,
3,
4,
5,
6,
7,
9,
29,
30,
31,
32,
33,
35,
36,
38,
45,
60,
62
);
},
{
name = license;
value = "Open Source";
}
);
date = "2011-02-23 13:04:24 +0000";
designer = "Christopher Kent";
familyName = Sofunto;
featurePrefixes = (
{
automatic = 1;
code = "languagesystem DFLT dflt;\012languagesystem latn dflt;\012languagesystem latn ROM;\012languagesystem latn MOL;\012languagesystem latn CAT;\012";
name = Languagesystems;
}
);
features = (
{
automatic = 1;
code = "feature locl;\012feature frac;\012feature ordn;\012";
name = aalt;
},
{
automatic = 1;
code = "script latn;\012language ROM;\012sub Scedilla by Scommaaccent;\012sub scedilla by scommaaccent;\012sub Tcedilla by Tcommaaccent;\012sub tcedilla by tcommaaccent;\012language MOL;\012sub Scedilla by Scommaaccent;\012sub scedilla by scommaaccent;\012sub Tcedilla by Tcommaaccent;\012sub tcedilla by tcommaaccent;\012language CAT;\012sub  l' periodcentered' l by ldot;\012sub  L' periodcentered' L by Ldot;\012";
name = locl;
},
{
automatic = 1;

glyphs = (
{
glyphname = A;
lastChange = "2018-03-23 16:14:09 +0000";
layers = (
{
layerId = "ECA8ADC0-D5C0-4AFD-BCF0-9F577B806AFE";
paths = (
{
closed = 1;
nodes = (
"590 35 OFFCURVE",
"350 671 OFFCURVE",
"335 683 CURVE SMOOTH",
"318 697 OFFCURVE",
"278 696 OFFCURVE",
"265 683 CURVE SMOOTH",
"244 661 OFFCURVE",
"9 16 OFFCURVE",
"10 8 CURVE SMOOTH",
"11 -4 OFFCURVE",
"63 -1 OFFCURVE",
"66 6 CURVE SMOOTH",
"70 15 OFFCURVE",
"124 169 OFFCURVE",
"142 191 CURVE",
"161 207 OFFCURVE",
"436 206 OFFCURVE",
"456 191 CURVE",
"477 167 OFFCURVE",
"524 17 OFFCURVE",
"534 6 CURVE SMOOTH",
"544 -5 OFFCURVE",
"596 1 OFFCURVE",
"593 18 CURVE SMOOTH"
);
},
{
closed = 1;
nodes = (
"402 255 OFFCURVE",
"206 253 OFFCURVE",
"183 268 CURVE",
"165 290 OFFCURVE",
"262 572 OFFCURVE",
"301 598 CURVE",
"339 576 OFFCURVE",
"439 287 OFFCURVE",
"421 265 CURVE"
);
}
);
width = 603;
}
);
leftKerningGroup = A;
rightKerningGroup = A;
unicode = 0041;
},
{
glyphname = Aogonek;
lastChange = "2018-03-22 14:29:51 +0000";
layers = (
{
layerId = "ECA8ADC0-D5C0-4AFD-BCF0-9F577B806AFE";
paths = (
{
closed = 1;
nodes = (
"483 -136.667 OFFCURVE",
"490.333 -153.5 OFFCURVE",
"505 -166.5 CURVE SMOOTH",
"519.667 -179.5 OFFCURVE",
"545 -186 OFFCURVE",
"581 -186 CURVE SMOOTH",
"591 -186 OFFCURVE",
"601.167 -185 OFFCURVE",
"611.5 -183 CURVE SMOOTH",
"621.833 -181 OFFCURVE",
"629.667 -179 OFFCURVE",
"635 -177 CURVE",
"630 -129 LINE",
"624.667 -131 OFFCURVE",
"618.5 -132.5 OFFCURVE",
"611.5 -133.5 CURVE SMOOTH",
"604.5 -134.5 OFFCURVE",
"598 -135 OFFCURVE",
"592 -135 CURVE SMOOTH",
"580 -135 OFFCURVE",
"570 -132.333 OFFCURVE",
"562 -127 CURVE SMOOTH",
"554 -121.667 OFFCURVE",
"550 -113 OFFCURVE",
"550 -101 CURVE SMOOTH",
"550 -89.667 OFFCURVE",
"553.167 -79.167 OFFCURVE",
"559.5 -69.5 CURVE SMOOTH",
"565.833 -59.833 OFFCURVE",
"574.333 -49.333 OFFCURVE",
"585 -38 CURVE SMOOTH",
"593 -29.333 OFFCURVE",
"600.667 -21.833 OFFCURVE",
"608 -15.5 CURVE SMOOTH",
"615.333 -9.167 OFFCURVE",
"622.667 -3.333 OFFCURVE",
"630 2 CURVE",
"602.667 74 OFFCURVE",
"577.333 141 OFFCURVE",
"554 203 CURVE SMOOTH",
"530.667 265 OFFCURVE",
"508 323.667 OFFCURVE",
"486 379 CURVE SMOOTH",
"464 434.333 OFFCURVE",
"442 487.667 OFFCURVE",
"420 539 CURVE SMOOTH",
"398 590.333 OFFCURVE",
"374.667 641.667 OFFCURVE",
"350 693 CURVE",
"290 693 LINE",
"265.333 641.667 OFFCURVE",
"242 590.333 OFFCURVE",
"220 539 CURVE SMOOTH",
"198 487.667 OFFCURVE",
"175.833 434.167 OFFCURVE",
"153.5 378.5 CURVE SMOOTH",
"131.167 322.833 OFFCURVE",
"108.333 263.833 OFFCURVE",
"85 201.5 CURVE SMOOTH",
"61.667 139.167 OFFCURVE",
"36.667 72 OFFCURVE",
"10 0 CURVE",
"81 0 LINE",
"93 34 OFFCURVE",
"104.667 66.667 OFFCURVE",
"116 98 CURVE SMOOTH",
"127.333 129.333 OFFCURVE",
"138.667 160 OFFCURVE",
"150 190 CURVE",
"487 190 LINE",
"497.667 160 OFFCURVE",
"508.667 129.333 OFFCURVE",
"520 98 CURVE SMOOTH",
"531.333 66.667 OFFCURVE",
"543.333 34 OFFCURVE",
"556 0 CURVE",
"553.333 -2 OFFCURVE",
"550.667 -4.167 OFFCURVE",
"548 -6.5 CURVE SMOOTH",
"545.333 -8.833 OFFCURVE",
"542.333 -11.667 OFFCURVE",
"539 -15 CURVE SMOOTH",
"524.333 -29 OFFCURVE",
"511.333 -44.167 OFFCURVE",
"500 -60.5 CURVE SMOOTH",
"488.667 -76.833 OFFCURVE",
"483 -95.333 OFFCURVE",
"483 -116 CURVE SMOOTH"
);
},
{
closed = 1;
nodes = (
"171 248 LINE",
"196.333 316.667 OFFCURVE",
"220.833 380.667 OFFCURVE",
"244.5 440 CURVE SMOOTH",
"268.167 499.333 OFFCURVE",
"292.667 557.667 OFFCURVE",
"318 615 CURVE",
"343.333 557.667 OFFCURVE",
"368 499.333 OFFCURVE",
"392 440 CURVE SMOOTH",
"416 380.667 OFFCURVE",
"440.667 316.667 OFFCURVE",
"466 248 CURVE"
);
}
);
width = 641;
}
);
leftKerningGroup = A;
rightKerningGroup = A;
unicode = 0104;
},
{
glyphname = Aring;
lastChange = "2018-03-22 14:29:51 +0000";
layers = (
{
layerId = "ECA8ADC0-D5C0-4AFD-BCF0-9F577B806AFE";
paths = (
{
closed = 1;
nodes = (
"294 837 OFFCURVE",
"271.5 828.333 OFFCURVE",
"252.5 811 CURVE SMOOTH",
"233.5 793.667 OFFCURVE",
"224 770.667 OFFCURVE",
"224 742 CURVE SMOOTH",
"224 722.667 OFFCURVE",
"228.333 705.667 OFFCURVE",
"237 691 CURVE SMOOTH",
"245.667 676.333 OFFCURVE",
"257.333 665 OFFCURVE",
"272 657 CURVE",
"249.333 609 OFFCURVE",
"227.667 560.5 OFFCURVE",
"207 511.5 CURVE SMOOTH",
"186.333 462.5 OFFCURVE",
"165.5 411.5 OFFCURVE",
"144.5 358.5 CURVE SMOOTH",
"123.5 305.5 OFFCURVE",
"102 249.5 OFFCURVE",
"80 190.5 CURVE SMOOTH",
"58 131.5 OFFCURVE",
"34.667 68 OFFCURVE",
"10 0 CURVE",
"81 0 LINE",
"93 34 OFFCURVE",
"104.667 66.667 OFFCURVE",
"116 98 CURVE SMOOTH",
"127.333 129.333 OFFCURVE",
"138.667 160 OFFCURVE",
"150 190 CURVE",
"487 190 LINE",
"497.667 160 OFFCURVE",
"508.667 129.333 OFFCURVE",
"520 98 CURVE SMOOTH",
"531.333 66.667 OFFCURVE",
"543.333 34 OFFCURVE",
"556 0 CURVE",
"631 0 LINE",
"605.667 68 OFFCURVE",
"581.833 131.5 OFFCURVE",
"559.5 190.5 CURVE SMOOTH",
"537.167 249.5 OFFCURVE",
"515.5 305.5 OFFCURVE",
"494.5 358.5 CURVE SMOOTH",
"473.5 411.5 OFFCURVE",
"452.667 462.5 OFFCURVE",
"432 511.5 CURVE SMOOTH",
"411.333 560.5 OFFCURVE",
"389.667 609 OFFCURVE",
"367 657 CURVE",
"381 665 OFFCURVE",
"392.5 676.333 OFFCURVE",
"401.5 691 CURVE SMOOTH",
"410.5 705.667 OFFCURVE",
"415 722.667 OFFCURVE",
"415 742 CURVE SMOOTH",
"415 756 OFFCURVE",
"412.5 768.833 OFFCURVE",
"407.5 780.5 CURVE SMOOTH",
"402.5 792.167 OFFCURVE",
"395.667 802.167 OFFCURVE",
"387 810.5 CURVE SMOOTH",
"378.333 818.833 OFFCURVE",
"368.167 825.333 OFFCURVE",
"356.5 830 CURVE SMOOTH",
"344.833 834.667 OFFCURVE",
"332.667 837 OFFCURVE",
"320 837 CURVE SMOOTH"
);
},
{
closed = 1;
nodes = (
"171 248 LINE",
"196.333 316.667 OFFCURVE",
"220.833 380.667 OFFCURVE",
"244.5 440 CURVE SMOOTH",
"268.167 499.333 OFFCURVE",
"292.667 557.667 OFFCURVE",
"318 615 CURVE",
"343.333 557.667 OFFCURVE",
"368 499.333 OFFCURVE",
"392 440 CURVE SMOOTH",
"416 380.667 OFFCURVE",
"440.667 316.667 OFFCURVE",
"466 248 CURVE"
);
},
{
closed = 1;
nodes = (
"304 683 OFFCURVE",
"290.5 688 OFFCURVE",
"279.5 698 CURVE SMOOTH",
"268.5 708 OFFCURVE",
"263 722.667 OFFCURVE",
"263 742 CURVE SMOOTH",
"263 760.667 OFFCURVE",
"268.5 775.167 OFFCURVE",
"279.5 785.5 CURVE SMOOTH",
"290.5 795.833 OFFCURVE",
"304 801 OFFCURVE",
"320 801 CURVE SMOOTH",
"336 801 OFFCURVE",
"349.5 795.833 OFFCURVE",
"360.5 785.5 CURVE SMOOTH",
"371.5 775.167 OFFCURVE",
"377 760.667 OFFCURVE",
"377 742 CURVE SMOOTH",
"377 722.667 OFFCURVE",
"371.5 708 OFFCURVE",
"360.5 698 CURVE SMOOTH",
"349.5 688 OFFCURVE",
"336 683 OFFCURVE",
"320 683 CURVE SMOOTH"
);
}
);
width = 641;
}
);
leftKerningGroup = A;
rightKerningGroup = A;
unicode = 00C5;
},
{
glyphname = Aringacute;
lastChange = "2018-03-22 14:29:51 +0000";
layers = (
{
layerId = "ECA8ADC0-D5C0-4AFD-BCF0-9F577B806AFE";
paths = (
{
closed = 1;
nodes = (
"294.667 819 OFFCURVE",
"273.5 811 OFFCURVE",
"256.5 795 CURVE SMOOTH",
"239.5 779 OFFCURVE",
"231 757.667 OFFCURVE",
"231 731 CURVE SMOOTH",
"231 713.667 OFFCURVE",
"234.667 698.333 OFFCURVE",
"242 685 CURVE SMOOTH",
"249.333 671.667 OFFCURVE",
"259.333 661.333 OFFCURVE",
"272 654 CURVE",
"250 606 OFFCURVE",
"228.667 557.667 OFFCURVE",
"208 509 CURVE SMOOTH",
"187.333 460.333 OFFCURVE",
"166.5 409.667 OFFCURVE",
"145.5 357 CURVE SMOOTH",
"124.5 304.333 OFFCURVE",
"102.833 248.667 OFFCURVE",
"80.5 190 CURVE SMOOTH",
"58.167 131.333 OFFCURVE",
"34.667 68 OFFCURVE",
"10 0 CURVE",
"81 0 LINE",
"93 34 OFFCURVE",
"104.667 66.667 OFFCURVE",
"116 98 CURVE SMOOTH",
"127.333 129.333 OFFCURVE",
"138.667 160 OFFCURVE",
"150 190 CURVE",
"487 190 LINE",
"497.667 160 OFFCURVE",
"508.667 129.333 OFFCURVE",
"520 98 CURVE SMOOTH",
"531.333 66.667 OFFCURVE",
"543.333 34 OFFCURVE",
"556 0 CURVE",
"631 0 LINE",
"605.667 68 OFFCURVE",
"581.833 131.333 OFFCURVE",
"559.5 190 CURVE SMOOTH",
"537.167 248.667 OFFCURVE",
"515.5 304.5 OFFCURVE",
"494.5 357.5 CURVE SMOOTH",
"473.5 410.5 OFFCURVE",
"452.667 461.333 OFFCURVE",
"432 510 CURVE SMOOTH",
"411.333 558.667 OFFCURVE",
"389.667 607 OFFCURVE",
"367 655 CURVE",
"379 662.333 OFFCURVE",
"388.833 672.5 OFFCURVE",
"396.5 685.5 CURVE SMOOTH",
"404.167 698.5 OFFCURVE",
"408 713.667 OFFCURVE",
"408 731 CURVE SMOOTH",
"408 757.667 OFFCURVE",
"399.167 779 OFFCURVE",
"381.5 795 CURVE SMOOTH",
"363.833 811 OFFCURVE",
"343.333 819 OFFCURVE",
"320 819 CURVE SMOOTH"
);
},
{
closed = 1;
nodes = (
"171 248 LINE",
"196.333 316.667 OFFCURVE",
"220.833 380.667 OFFCURVE",
"244.5 440 CURVE SMOOTH",
"268.167 499.333 OFFCURVE",
"292.667 557.667 OFFCURVE",
"318 615 CURVE",
"343.333 557.667 OFFCURVE",
"368 499.333 OFFCURVE",
"392 440 CURVE SMOOTH",
"416 380.667 OFFCURVE",
"440.667 316.667 OFFCURVE",
"466 248 CURVE"
);
},
{
closed = 1;
nodes = (
"304.667 677 OFFCURVE",
"292.167 681.833 OFFCURVE",
"282.5 691.5 CURVE SMOOTH",
"272.833 701.167 OFFCURVE",
"268 714.333 OFFCURVE",
"268 731 CURVE SMOOTH",
"268 747 OFFCURVE",
"272.833 759.667 OFFCURVE",
"282.5 769 CURVE SMOOTH",
"292.167 778.333 OFFCURVE",
"304.667 783 OFFCURVE",
"320 783 CURVE SMOOTH",
"334.667 783 OFFCURVE",
"346.833 778.333 OFFCURVE",
"356.5 769 CURVE SMOOTH",
"366.167 759.667 OFFCURVE",
"371 747 OFFCURVE",
"371 731 CURVE SMOOTH",
"371 714.333 OFFCURVE",
"366.167 701.167 OFFCURVE",
"356.5 691.5 CURVE SMOOTH",
"346.833 681.833 OFFCURVE",
"334.667 677 OFFCURVE",
"320 677 CURVE SMOOTH"
);
},
{
closed = 1;
nodes = (
"254 841 LINE",
"408 898 LINE",
"384 956 LINE",
"238 882 LINE"
);
}
);
width = 641;
}
);
leftKerningGroup = A;
rightKerningGroup = A;
unicode = 01FA;
},
{
glyphname = Astroke;
lastChange = "2018-03-22 14:29:51 +0000";
layers = (
{
layerId = "ECA8ADC0-D5C0-4AFD-BCF0-9F577B806AFE";
paths = (
{
closed = 1;
nodes = (
"404 575 LINE",
"395.333 594.333 OFFCURVE",
"386.5 613.833 OFFCURVE",
"377.5 633.5 CURVE SMOOTH",
"368.5 653.167 OFFCURVE",
"359.333 673 OFFCURVE",
"350 693 CURVE",
"290 693 LINE",
"265.333 641.667 OFFCURVE",
"242 590.333 OFFCURVE",
"220 539 CURVE SMOOTH",
"198 487.667 OFFCURVE",
"175.833 434.167 OFFCURVE",
"153.5 378.5 CURVE SMOOTH",
"131.167 322.833 OFFCURVE",
"108.333 263.833 OFFCURVE",
"85 201.5 CURVE SMOOTH",
"61.667 139.167 OFFCURVE",
"36.667 72 OFFCURVE",
"10 0 CURVE",
"80 0 LINE",
"92 34 OFFCURVE",
"103.667 66.833 OFFCURVE",
"115 98.5 CURVE SMOOTH",
"126.333 130.167 OFFCURVE",
"137.667 161 OFFCURVE",
"149 191 CURVE",
"259 191 LINE",
"156 -81 LINE",
"210 -100 LINE",
"320 191 LINE",
"487 191 LINE",
"497.667 161 OFFCURVE",
"508.833 130.167 OFFCURVE",
"520.5 98.5 CURVE SMOOTH",
"532.167 66.833 OFFCURVE",
"544.333 34 OFFCURVE",
"557 0 CURVE",
"631 0 LINE",
"612.333 49.333 OFFCURVE",
"594.5 96.333 OFFCURVE",
"577.5 141 CURVE SMOOTH",
"560.5 185.667 OFFCURVE",
"544.167 228.5 OFFCURVE",
"528.5 269.5 CURVE SMOOTH",
"512.833 310.5 OFFCURVE",
"497.5 350.167 OFFCURVE",
"482.5 388.5 CURVE SMOOTH",
"467.5 426.833 OFFCURVE",
"452.333 464 OFFCURVE",
"437 500 CURVE",
"533 754 LINE",
"479 773 LINE"
);
},
{
closed = 1;
nodes = (
"194.333 315.333 OFFCURVE",
"219.167 380.167 OFFCURVE",
"243.5 440.5 CURVE SMOOTH",
"267.833 500.833 OFFCURVE",
"292.667 559.667 OFFCURVE",
"318 617 CURVE",
"327.333 595.667 OFFCURVE",
"336.333 574.667 OFFCURVE",
"345 554 CURVE SMOOTH",
"353.667 533.333 OFFCURVE",
"362.667 512 OFFCURVE",
"372 490 CURVE",
"280 246 LINE",
"169 246 LINE"
);
},
{
closed = 1;
nodes = (
"404 412 LINE",
"414.667 385.333 OFFCURVE",
"425.167 358.333 OFFCURVE",
"435.5 331 CURVE SMOOTH",
"445.833 303.667 OFFCURVE",
"456.667 275.333 OFFCURVE",
"468 246 CURVE",
"341 246 LINE"
);
}
);
width = 641;
}
);
leftKerningGroup = A;
note = uni023A;
rightKerningGroup = A;
unicode = 023A;
},
{
glyphname = AE;
lastChange = "2018-03-22 14:29:51 +0000";
layers = (
{
layerId = "ECA8ADC0-D5C0-4AFD-BCF0-9F577B806AFE";
paths = (
{
closed = 1;
nodes = (
"876 59 LINE",
"532 59 LINE",
"532 335 LINE",
"814 335 LINE",
"814 393 LINE",
"532 393 LINE",
"532 634 LINE",
"850 634 LINE",
"850 693 LINE",
"433 693 LINE",
"397 643.667 OFFCURVE",
"361.333 593.167 OFFCURVE",
"326 541.5 CURVE SMOOTH",
"290.667 489.833 OFFCURVE",
"255.333 435.833 OFFCURVE",
"220 379.5 CURVE SMOOTH",
"184.667 323.167 OFFCURVE",
"149.167 263.667 OFFCURVE",
"113.5 201 CURVE SMOOTH",
"77.833 138.333 OFFCURVE",
"42 71.333 OFFCURVE",
"6 0 CURVE",
"76 0 LINE",
"92 32 OFFCURVE",
"108.5 63.667 OFFCURVE",
"125.5 95 CURVE SMOOTH",
"142.5 126.333 OFFCURVE",
"159.667 158 OFFCURVE",
"177 190 CURVE",
"464 190 LINE",
"464 0 LINE",
"876 0 LINE"
);
},
{
closed = 1;
nodes = (
"210 248 LINE",
"249.333 316.667 OFFCURVE",
"290 383.167 OFFCURVE",
"332 447.5 CURVE SMOOTH",
"374 511.833 OFFCURVE",
"418 575 OFFCURVE",
"464 637 CURVE",
"464 248 LINE"
);
}
);
width = 915;
}
);
leftKerningGroup = AE;
rightKerningGroup = E;
unicode = 00C6;
},
{
glyphname = B;
lastChange = "2018-03-23 16:49:55 +0000";
layers = (
{
layerId = "ECA8ADC0-D5C0-4AFD-BCF0-9F577B806AFE";
paths = (
{
closed = 1;
nodes = (
"530 222 OFFCURVE",
"527 246 OFFCURVE",
"520 266 CURVE SMOOTH",
"513 285 OFFCURVE",
"502 299 OFFCURVE",
"489 313 CURVE SMOOTH",
"476 326 OFFCURVE",
"463 336 OFFCURVE",
"446 345 CURVE SMOOTH",
"429 354 OFFCURVE",
"407 362 OFFCURVE",
"407 373 CURVE SMOOTH",
"407 384 OFFCURVE",
"438 398 OFFCURVE",
"457 425 CURVE SMOOTH",
"476 451 OFFCURVE",
"485 483 OFFCURVE",
"485 520 CURVE SMOOTH",
"485 554 OFFCURVE",
"478 583 OFFCURVE",
"463 606 CURVE SMOOTH",
"448 629 OFFCURVE",
"427 647 OFFCURVE",
"402 661 CURVE SMOOTH",
"377 675 OFFCURVE",
"349 682 OFFCURVE",
"316 688 CURVE SMOOTH",
"282 694 OFFCURVE",
"259 694 OFFCURVE",
"207 694 CURVE SMOOTH",
"145 694 OFFCURVE",
"102 694 OFFCURVE",
"57 692 CURVE",
"34 656 OFFCURVE",
"36 25 OFFCURVE",
"57 2 CURVE",
"67 -1 OFFCURVE",
"111 -1 OFFCURVE",
"224 0 CURVE SMOOTH",
"369 1 OFFCURVE",
"400 11 OFFCURVE",
"452 46 CURVE SMOOTH",
"504 80 OFFCURVE",
"530 130 OFFCURVE",
"530 195 CURVE SMOOTH"
);
},
{
closed = 1;
nodes = (
"288 335 OFFCURVE",
"316 333 OFFCURVE",
"341 329 CURVE SMOOTH",
"366 325 OFFCURVE",
"387 315 OFFCURVE",
"404 305 CURVE SMOOTH",
"421 294 OFFCURVE",
"435 280 OFFCURVE",
"444 263 CURVE SMOOTH",
"453 245 OFFCURVE",
"458 223 OFFCURVE",
"458 196 CURVE SMOOTH",
"458 167 OFFCURVE",
"451 143 OFFCURVE",
"438 124 CURVE SMOOTH",
"425 105 OFFCURVE",
"407 88 OFFCURVE",
"385 77 CURVE SMOOTH",
"363 66 OFFCURVE",
"338 62 OFFCURVE",
"309 58 CURVE SMOOTH",
"264 52 OFFCURVE",
"202 56 OFFCURVE",
"178 56 CURVE SMOOTH",
"158 56 OFFCURVE",
"123 57 OFFCURVE",
"113 58 CURVE",
"101 77 OFFCURVE",
"105 303 OFFCURVE",
"113 330 CURVE",
"137 339 OFFCURVE",
"209 335 OFFCURVE",
"257 335 CURVE SMOOTH"
);
},
{
closed = 1;
nodes = (
"132 643 OFFCURVE",
"161 644 OFFCURVE",
"207 644 CURVE SMOOTH",
"264 644 OFFCURVE",
"311 639 OFFCURVE",
"357 614 CURVE SMOOTH",
"375 604 OFFCURVE",
"389 591 OFFCURVE",
"399 576 CURVE SMOOTH",
"409 560 OFFCURVE",
"414 541 OFFCURVE",
"414 518 CURVE SMOOTH",
"414 493 OFFCURVE",
"409 472 OFFCURVE",
"400 456 CURVE SMOOTH",
"391 439 OFFCURVE",
"378 426 OFFCURVE",
"362 417 CURVE SMOOTH",
"345 407 OFFCURVE",
"326 397 OFFCURVE",
"304 394 CURVE SMOOTH",
"282 391 OFFCURVE",
"259 388 OFFCURVE",
"234 388 CURVE SMOOTH",
"190 388 OFFCURVE",
"138 385 OFFCURVE",
"113 394 CURVE",
"101 410 OFFCURVE",
"103 610 OFFCURVE",
"113 636 CURVE"
);
}
);
width = 550;
}
);
leftKerningGroup = B;
rightKerningGroup = B;
unicode = 0042;
},
{
glyphname = Bhook;
lastChange = "2018-03-22 14:29:51 +0000";
layers = (
{
layerId = "ECA8ADC0-D5C0-4AFD-BCF0-9F577B806AFE";
paths = (
{
closed = 1;
nodes = (
"20 537 OFFCURVE",
"20.667 528.833 OFFCURVE",
"22 518.5 CURVE SMOOTH",
"23.333 508.167 OFFCURVE",
"24.667 500.333 OFFCURVE",
"26 495 CURVE",
"82 503 LINE",
"80.667 509 OFFCURVE",
"79.833 515 OFFCURVE",
"79.5 521 CURVE SMOOTH",
"79.167 527 OFFCURVE",
"79 531.667 OFFCURVE",
"79 535 CURVE SMOOTH",
"79 566.333 OFFCURVE",
"86.333 590.333 OFFCURVE",
"101 607 CURVE SMOOTH",
"115.667 623.667 OFFCURVE",
"139.333 633 OFFCURVE",
"172 635 CURVE",
"172 13 LINE",
"182 10.333 OFFCURVE",
"194 7.833 OFFCURVE",
"208 5.5 CURVE SMOOTH",
"222 3.167 OFFCURVE",
"236.833 1.167 OFFCURVE",
"252.5 -0.5 CURVE SMOOTH",
"268.167 -2.167 OFFCURVE",
"283.5 -3.5 OFFCURVE",
"298.5 -4.5 CURVE SMOOTH",
"313.5 -5.5 OFFCURVE",
"326.667 -6 OFFCURVE",
"338 -6 CURVE SMOOTH",
"446.667 -6 OFFCURVE",
"527 11.167 OFFCURVE",
"579 45.5 CURVE SMOOTH",
"631 79.833 OFFCURVE",
"657 129.667 OFFCURVE",
"657 195 CURVE SMOOTH",
"657 222.333 OFFCURVE",
"653.5 245.833 OFFCURVE",
"646.5 265.5 CURVE SMOOTH",
"639.5 285.167 OFFCURVE",
"629.667 301.833 OFFCURVE",
"617 315.5 CURVE SMOOTH",
"604.333 329.167 OFFCURVE",
"589.667 340.333 OFFCURVE",
"573 349 CURVE SMOOTH",
"556.333 357.667 OFFCURVE",
"538 364.333 OFFCURVE",
"518 369 CURVE",
"550 379 OFFCURVE",
"575.5 397.167 OFFCURVE",
"594.5 423.5 CURVE SMOOTH",
"613.5 449.833 OFFCURVE",
"623 481.667 OFFCURVE",
"623 519 CURVE SMOOTH",
"623 553 OFFCURVE",
"615.5 581.5 OFFCURVE",
"600.5 604.5 CURVE SMOOTH",
"585.5 627.5 OFFCURVE",
"565.333 646 OFFCURVE",
"540 660 CURVE SMOOTH",
"514.667 674 OFFCURVE",
"485.167 684 OFFCURVE",
"451.5 690 CURVE SMOOTH",
"417.833 696 OFFCURVE",
"382.333 699 OFFCURVE",
"345 699 CURVE SMOOTH",
"293 699 OFFCURVE",
"246.833 697.167 OFFCURVE",
"206.5 693.5 CURVE SMOOTH",
"166.167 689.833 OFFCURVE",
"132.167 682.5 OFFCURVE",
"104.5 671.5 CURVE SMOOTH",
"76.833 660.5 OFFCURVE",
"55.833 644.833 OFFCURVE",
"41.5 624.5 CURVE SMOOTH",
"27.167 604.167 OFFCURVE",
"20 577 OFFCURVE",
"20 543 CURVE SMOOTH"
);
},
{
closed = 1;
nodes = (
"414.667 332 OFFCURVE",
"442.5 330 OFFCURVE",
"467.5 326 CURVE SMOOTH",
"492.5 322 OFFCURVE",
"513.667 314.833 OFFCURVE",
"531 304.5 CURVE SMOOTH",
"548.333 294.167 OFFCURVE",
"561.667 280.167 OFFCURVE",
"571 262.5 CURVE SMOOTH",
"580.333 244.833 OFFCURVE",
"585 222.667 OFFCURVE",
"585 196 CURVE SMOOTH",
"585 166.667 OFFCURVE",
"578.333 142.667 OFFCURVE",
"565 124 CURVE SMOOTH",
"551.667 105.333 OFFCURVE",
"534 90.667 OFFCURVE",
"512 80 CURVE SMOOTH",
"490 69.333 OFFCURVE",
"464.5 62 OFFCURVE",
"435.5 58 CURVE SMOOTH",
"406.5 54 OFFCURVE",
"376.667 52 OFFCURVE",
"346 52 CURVE SMOOTH",
"325.333 52 OFFCURVE",
"305 52.833 OFFCURVE",
"285 54.5 CURVE SMOOTH",
"265 56.167 OFFCURVE",
"250 57.667 OFFCURVE",
"240 59 CURVE",
"240 332 LINE",
"384 332 LINE SMOOTH"
);
},
{
closed = 1;
nodes = (
"552 491.667 OFFCURVE",
"547.333 470.833 OFFCURVE",
"538 454.5 CURVE SMOOTH",
"528.667 438.167 OFFCURVE",
"515.833 425.167 OFFCURVE",
"499.5 415.5 CURVE SMOOTH",
"483.167 405.833 OFFCURVE",
"464 399.167 OFFCURVE",
"442 395.5 CURVE SMOOTH",
"420 391.833 OFFCURVE",
"396.667 390 OFFCURVE",
"372 390 CURVE SMOOTH",
"240 390 LINE",
"240 638 LINE",
"251.333 639.333 OFFCURVE",
"267 640.167 OFFCURVE",
"287 640.5 CURVE SMOOTH",
"307 640.833 OFFCURVE",
"326.333 641 OFFCURVE",
"345 641 CURVE SMOOTH",
"375.667 641 OFFCURVE",
"403.667 638.833 OFFCURVE",
"429 634.5 CURVE SMOOTH",
"454.333 630.167 OFFCURVE",
"476.167 623 OFFCURVE",
"494.5 613 CURVE SMOOTH",
"512.833 603 OFFCURVE",
"527 590.167 OFFCURVE",
"537 574.5 CURVE SMOOTH",
"547 558.833 OFFCURVE",
"552 539.667 OFFCURVE",
"552 517 CURVE SMOOTH"
);
}
);
width = 712;
}
);
note = uni0181;
rightKerningGroup = B;
unicode = 0181;
},
{
glyphname = Bstroke;
lastChange = "2018-03-22 14:29:51 +0000";
layers = (
{
layerId = "ECA8ADC0-D5C0-4AFD-BCF0-9F577B806AFE";
paths = (
{
closed = 1;
nodes = (
"589 222.333 OFFCURVE",
"585.5 245.833 OFFCURVE",
"578.5 265.5 CURVE SMOOTH",
"571.5 285.167 OFFCURVE",
"561.667 301.833 OFFCURVE",
"549 315.5 CURVE SMOOTH",
"536.333 329.167 OFFCURVE",
"521.667 340.333 OFFCURVE",
"505 349 CURVE SMOOTH",
"488.333 357.667 OFFCURVE",
"470 364.333 OFFCURVE",
"450 369 CURVE",
"482 379 OFFCURVE",
"507.5 397.167 OFFCURVE",
"526.5 423.5 CURVE SMOOTH",
"545.5 449.833 OFFCURVE",
"555 481.667 OFFCURVE",
"555 519 CURVE SMOOTH",
"555 553 OFFCURVE",
"547.5 581.5 OFFCURVE",
"532.5 604.5 CURVE SMOOTH",
"517.5 627.5 OFFCURVE",
"497.333 646 OFFCURVE",
"472 660 CURVE SMOOTH",
"446.667 674 OFFCURVE",
"417.167 684 OFFCURVE",
"383.5 690 CURVE SMOOTH",
"349.833 696 OFFCURVE",
"314.333 699 OFFCURVE",
"277 699 CURVE SMOOTH",
"264.333 699 OFFCURVE",
"250.5 698.667 OFFCURVE",
"235.5 698 CURVE SMOOTH",
"220.5 697.333 OFFCURVE",
"205.167 696.167 OFFCURVE",
"189.5 694.5 CURVE SMOOTH",
"173.833 692.833 OFFCURVE",
"158.667 690.833 OFFCURVE",
"144 688.5 CURVE SMOOTH",
"129.333 686.167 OFFCURVE",
"116 683.333 OFFCURVE",
"104 680 CURVE",
"104 221 LINE",
"24 221 LINE",
"24 168 LINE",
"104 168 LINE",
"104 13 LINE",
"114 10.333 OFFCURVE",
"126 7.833 OFFCURVE",
"140 5.5 CURVE SMOOTH",
"154 3.167 OFFCURVE",
"168.833 1.167 OFFCURVE",
"184.5 -0.5 CURVE SMOOTH",
"200.167 -2.167 OFFCURVE",
"215.5 -3.5 OFFCURVE",
"230.5 -4.5 CURVE SMOOTH",
"245.5 -5.5 OFFCURVE",
"258.667 -6 OFFCURVE",
"270 -6 CURVE SMOOTH",
"378.667 -6 OFFCURVE",
"459 11.167 OFFCURVE",
"511 45.5 CURVE SMOOTH",
"563 79.833 OFFCURVE",
"589 129.667 OFFCURVE",
"589 195 CURVE SMOOTH"
);
},
{
closed = 1;
nodes = (
"346.667 332 OFFCURVE",
"374.5 330 OFFCURVE",
"399.5 326 CURVE SMOOTH",
"424.5 322 OFFCURVE",
"445.667 314.833 OFFCURVE",
"463 304.5 CURVE SMOOTH",
"480.333 294.167 OFFCURVE",
"493.667 280.167 OFFCURVE",
"503 262.5 CURVE SMOOTH",
"512.333 244.833 OFFCURVE",
"517 222.667 OFFCURVE",
"517 196 CURVE SMOOTH",
"517 166.667 OFFCURVE",
"510.333 142.667 OFFCURVE",
"497 124 CURVE SMOOTH",
"483.667 105.333 OFFCURVE",
"466 90.667 OFFCURVE",
"444 80 CURVE SMOOTH",
"422 69.333 OFFCURVE",
"396.5 62 OFFCURVE",
"367.5 58 CURVE SMOOTH",
"338.5 54 OFFCURVE",
"308.667 52 OFFCURVE",
"278 52 CURVE SMOOTH",
"257.333 52 OFFCURVE",
"237 52.833 OFFCURVE",
"217 54.5 CURVE SMOOTH",
"197 56.167 OFFCURVE",
"182 57.667 OFFCURVE",
"172 59 CURVE",
"172 168 LINE",
"302 168 LINE",
"302 221 LINE",
"172 221 LINE",
"172 332 LINE",
"316 332 LINE SMOOTH"
);
},
{
closed = 1;
nodes = (
"183.333 636 OFFCURVE",
"197.5 637.667 OFFCURVE",
"214.5 639 CURVE SMOOTH",
"231.5 640.333 OFFCURVE",
"252.333 641 OFFCURVE",
"277 641 CURVE SMOOTH",
"307.667 641 OFFCURVE",
"335.667 638.833 OFFCURVE",
"361 634.5 CURVE SMOOTH",
"386.333 630.167 OFFCURVE",
"408.167 623 OFFCURVE",
"426.5 613 CURVE SMOOTH",
"444.833 603 OFFCURVE",
"459 590.167 OFFCURVE",
"469 574.5 CURVE SMOOTH",
"479 558.833 OFFCURVE",
"484 539.667 OFFCURVE",
"484 517 CURVE SMOOTH",
"484 491.667 OFFCURVE",
"479.333 470.833 OFFCURVE",
"470 454.5 CURVE SMOOTH",
"460.667 438.167 OFFCURVE",
"447.833 425.167 OFFCURVE",
"431.5 415.5 CURVE SMOOTH",
"415.167 405.833 OFFCURVE",
"396 399.167 OFFCURVE",
"374 395.5 CURVE SMOOTH",
"352 391.833 OFFCURVE",
"328.667 390 OFFCURVE",
"304 390 CURVE SMOOTH",
"172 390 LINE",
"172 634 LINE"
);
}
);
width = 644;
}
);
note = uni0243;
rightKerningGroup = B;
unicode = 0243;
},
{
glyphname = Btopbar;
lastChange = "2018-03-22 14:29:51 +0000";
layers = (
{
layerId = "ECA8ADC0-D5C0-4AFD-BCF0-9F577B806AFE";
paths = (
{
closed = 1;
nodes = (
"282 366 OFFCURVE",
"316.333 363.833 OFFCURVE",
"347 359.5 CURVE SMOOTH",
"377.667 355.167 OFFCURVE",
"403.833 347.167 OFFCURVE",
"425.5 335.5 CURVE SMOOTH",
"447.167 323.833 OFFCURVE",
"463.833 307.833 OFFCURVE",
"475.5 287.5 CURVE SMOOTH",
"487.167 267.167 OFFCURVE",
"493 241 OFFCURVE",
"493 209 CURVE SMOOTH",
"493 178.333 OFFCURVE",
"486.833 153 OFFCURVE",
"474.5 133 CURVE SMOOTH",
"462.167 113 OFFCURVE",
"445.833 97 OFFCURVE",
"425.5 85 CURVE SMOOTH",
"405.167 73 OFFCURVE",
"381.333 64.667 OFFCURVE",
"354 60 CURVE SMOOTH",
"326.667 55.333 OFFCURVE",
"298 53 OFFCURVE",
"268 53 CURVE SMOOTH",
"242.667 53 OFFCURVE",
"221.167 53.833 OFFCURVE",
"203.5 55.5 CURVE SMOOTH",
"185.833 57.167 OFFCURVE",
"170.667 58.667 OFFCURVE",
"158 60 CURVE",
"158 366 LINE",
"244 366 LINE SMOOTH"
);
},
{
closed = 1;
nodes = (
"158 634 LINE",
"502 634 LINE",
"502 693 LINE",
"90 693 LINE",
"90 13 LINE",
"114 6.333 OFFCURVE",
"142.167 1.5 OFFCURVE",
"174.5 -1.5 CURVE SMOOTH",
"206.833 -4.5 OFFCURVE",
"237 -6 OFFCURVE",
"265 -6 CURVE SMOOTH",
"363 -6 OFFCURVE",
"437.333 11.833 OFFCURVE",
"488 47.5 CURVE SMOOTH",
"538.667 83.167 OFFCURVE",
"564 137.333 OFFCURVE",
"564 210 CURVE SMOOTH",
"564 248 OFFCURVE",
"557 280.667 OFFCURVE",
"543 308 CURVE SMOOTH",
"529 335.333 OFFCURVE",
"508.833 357.5 OFFCURVE",
"482.5 374.5 CURVE SMOOTH",
"456.167 391.5 OFFCURVE",
"423.667 404 OFFCURVE",
"385 412 CURVE SMOOTH",
"346.333 420 OFFCURVE",
"302.333 424 OFFCURVE",
"253 424 CURVE SMOOTH",
"158 424 LINE"
);
}
);
width = 612;
}
);
leftKerningGroup = D;
note = uni0182;
unicode = 0182;
},
{
glyphname = C;
lastChange = "2018-03-24 10:32:13 +0000";
layers = (
{
layerId = "ECA8ADC0-D5C0-4AFD-BCF0-9F577B806AFE";
paths = (
{
closed = 1;
nodes = (
"543 39 OFFCURVE",
"531 82 OFFCURVE",
"520 87 CURVE",
"396 52 OFFCURVE",
"293 53 OFFCURVE",
"230 81 CURVE SMOOTH",
"160 113 OFFCURVE",
"134 139 OFFCURVE",
"109 222 CURVE SMOOTH",
"87 297 OFFCURVE",
"87 393 OFFCURVE",
"109 468 CURVE SMOOTH",
"133 549 OFFCURVE",
"177 585 OFFCURVE",
"220 609 CURVE SMOOTH",
"282 643 OFFCURVE",
"386 634 OFFCURVE",
"449 621 CURVE SMOOTH",
"474 616 OFFCURVE",
"494 608 OFFCURVE",
"511 598 CURVE",
"522 598 OFFCURVE",
"540 632 OFFCURVE",
"535 650 CURVE",
"499 674 OFFCURVE",
"440 689 OFFCURVE",
"394 692 CURVE SMOOTH",
"290 699 OFFCURVE",
"253 690 OFFCURVE",
"209 673 CURVE SMOOTH",
"130 643 OFFCURVE",
"77 576 OFFCURVE",
"47 502 CURVE SMOOTH",
"11 413 OFFCURVE",
"9 282 OFFCURVE",
"45 193 CURVE SMOOTH",
"83 98 OFFCURVE",
"111 65 OFFCURVE",
"169 32 CURVE SMOOTH",
"223 0 OFFCURVE",
"396 -12 OFFCURVE",
"515 17 CURVE SMOOTH",
"526 20 OFFCURVE",
"533 24 OFFCURVE",
"539 29 CURVE"
);
}
);
width = 560;
}
);
leftKerningGroup = C;
rightKerningGroup = C;
unicode = 0043;
},
{
glyphname = Ccedilla;
lastChange = "2018-03-22 14:29:51 +0000";
layers = (
{
layerId = "ECA8ADC0-D5C0-4AFD-BCF0-9F577B806AFE";
paths = (
{
closed = 1;
nodes = (
"378 -15 LINE SMOOTH",
"406 -15 OFFCURVE",
"431.333 -13.5 OFFCURVE",
"454 -10.5 CURVE SMOOTH",
"476.667 -7.5 OFFCURVE",
"496.667 -3.667 OFFCURVE",
"514 1 CURVE SMOOTH",
"531.333 5.667 OFFCURVE",
"545.667 10.167 OFFCURVE",
"557 14.5 CURVE SMOOTH",
"568.333 18.833 OFFCURVE",
"576.333 22.667 OFFCURVE",
"581 26 CURVE",
"562 84 LINE",
"546.667 75.333 OFFCURVE",
"524.167 66.833 OFFCURVE",
"494.5 58.5 CURVE SMOOTH",
"464.833 50.167 OFFCURVE",
"428 46 OFFCURVE",
"384 46 CURVE SMOOTH",
"344 46 OFFCURVE",
"308.5 53 OFFCURVE",
"277.5 67 CURVE SMOOTH",
"246.5 81 OFFCURVE",
"220.333 101 OFFCURVE",
"199 127 CURVE SMOOTH",
"177.667 153 OFFCURVE",
"161.5 184.5 OFFCURVE",
"150.5 221.5 CURVE SMOOTH",
"139.5 258.5 OFFCURVE",
"134 300 OFFCURVE",
"134 346 CURVE SMOOTH",
"134 390.667 OFFCURVE",
"139.5 431.333 OFFCURVE",
"150.5 468 CURVE SMOOTH",
"161.5 504.667 OFFCURVE",
"178 536.333 OFFCURVE",
"200 563 CURVE SMOOTH",
"222 589.667 OFFCURVE",
"249.167 610.333 OFFCURVE",
"281.5 625 CURVE SMOOTH",
"313.833 639.667 OFFCURVE",
"351.667 647 OFFCURVE",
"395 647 CURVE SMOOTH",
"433 647 OFFCURVE",
"464.833 642.167 OFFCURVE",
"490.5 632.5 CURVE SMOOTH",
"516.167 622.833 OFFCURVE",
"537.333 613 OFFCURVE",
"554 603 CURVE",
"576 662 LINE",
"570 666 OFFCURVE",
"561.333 670.5 OFFCURVE",
"550 675.5 CURVE SMOOTH",
"538.667 680.5 OFFCURVE",
"525 685.5 OFFCURVE",
"509 690.5 CURVE SMOOTH",
"493 695.5 OFFCURVE",
"474.333 699.667 OFFCURVE",
"453 703 CURVE SMOOTH",
"431.667 706.333 OFFCURVE",
"408 708 OFFCURVE",
"382 708 CURVE SMOOTH",
"340 708 OFFCURVE",
"299.667 700.167 OFFCURVE",
"261 684.5 CURVE SMOOTH",
"222.333 668.833 OFFCURVE",
"188.333 645.667 OFFCURVE",
"159 615 CURVE SMOOTH",
"129.667 584.333 OFFCURVE",
"106.167 546.5 OFFCURVE",
"88.5 501.5 CURVE SMOOTH",
"70.833 456.5 OFFCURVE",
"62 405 OFFCURVE",
"62 347 CURVE SMOOTH",
"62 293.667 OFFCURVE",
"68.667 246.167 OFFCURVE",
"82 204.5 CURVE SMOOTH",
"95.333 162.833 OFFCURVE",
"113.833 126.833 OFFCURVE",
"137.5 96.5 CURVE SMOOTH",
"161.167 66.167 OFFCURVE",
"189.333 42 OFFCURVE",
"222 24 CURVE SMOOTH",
"254.667 6 OFFCURVE",
"290.333 -5.667 OFFCURVE",
"329 -11 CURVE",
"324.333 -20.333 OFFCURVE",
"320 -29.833 OFFCURVE",
"316 -39.5 CURVE SMOOTH",
"312 -49.167 OFFCURVE",
"308.667 -57.667 OFFCURVE",
"306 -65 CURVE",
"326 -73 OFFCURVE",
"340.667 -80 OFFCURVE",
"350 -86 CURVE SMOOTH",
"359.333 -92 OFFCURVE",
"364 -100.667 OFFCURVE",
"364 -112 CURVE SMOOTH",
"364 -131.333 OFFCURVE",
"350.333 -141 OFFCURVE",
"323 -141 CURVE SMOOTH",
"309.667 -141 OFFCURVE",
"298.333 -140.333 OFFCURVE",
"289 -139 CURVE SMOOTH",
"279.667 -137.667 OFFCURVE",
"271.333 -135.333 OFFCURVE",
"264 -132 CURVE",
"256 -175 LINE",
"262 -178.333 OFFCURVE",
"272 -181.167 OFFCURVE",
"286 -183.5 CURVE SMOOTH",
"300 -185.833 OFFCURVE",
"313.667 -187 OFFCURVE",
"327 -187 CURVE SMOOTH",
"347 -187 OFFCURVE",
"363.333 -184.667 OFFCURVE",
"376 -180 CURVE SMOOTH",
"388.667 -175.333 OFFCURVE",
"398.667 -169.333 OFFCURVE",
"406 -162 CURVE SMOOTH",
"413.333 -154.667 OFFCURVE",
"418.333 -146.5 OFFCURVE",
"421 -137.5 CURVE SMOOTH",
"423.667 -128.5 OFFCURVE",
"425 -120 OFFCURVE",
"425 -112 CURVE SMOOTH",
"425 -92.667 OFFCURVE",
"419.5 -77.167 OFFCURVE",
"408.5 -65.5 CURVE SMOOTH",
"397.5 -53.833 OFFCURVE",
"382.667 -44 OFFCURVE",
"364 -36 CURVE",
"365.333 -32.667 OFFCURVE",
"366.667 -29.167 OFFCURVE",
"368 -25.5 CURVE SMOOTH",
"369.333 -21.833 OFFCURVE",
"371 -18.333 OFFCURVE",
"373 -15 CURVE"
);
}
);
width = 609;
}
);
leftKerningGroup = C;
rightKerningGroup = C;
unicode = 00C7;
},
{
glyphname = Chook;
lastChange = "2018-03-22 14:29:51 +0000";
layers = (
{
layerId = "ECA8ADC0-D5C0-4AFD-BCF0-9F577B806AFE";
paths = (
{
closed = 1;
nodes = (
"568 659 LINE SMOOTH",
"570.667 667.667 OFFCURVE",
"573.667 676.5 OFFCURVE",
"577 685.5 CURVE SMOOTH",
"580.333 694.5 OFFCURVE",
"584.667 702.667 OFFCURVE",
"590 710 CURVE SMOOTH",
"595.333 717.333 OFFCURVE",
"602.5 723.167 OFFCURVE",
"611.5 727.5 CURVE SMOOTH",
"620.5 731.833 OFFCURVE",
"631.667 734 OFFCURVE",
"645 734 CURVE SMOOTH",
"654.333 734 OFFCURVE",
"662.833 733.167 OFFCURVE",
"670.5 731.5 CURVE SMOOTH",
"678.167 729.833 OFFCURVE",
"684 728.333 OFFCURVE",
"688 727 CURVE",
"699 775 LINE",
"693 777.667 OFFCURVE",
"685 779.833 OFFCURVE",
"675 781.5 CURVE SMOOTH",
"665 783.167 OFFCURVE",
"654.667 784 OFFCURVE",
"644 784 CURVE SMOOTH",
"607.333 784 OFFCURVE",
"578.833 775.667 OFFCURVE",
"558.5 759 CURVE SMOOTH",
"538.167 742.333 OFFCURVE",
"523.667 717 OFFCURVE",
"515 683 CURVE",
"501.667 689 OFFCURVE",
"483.667 694.667 OFFCURVE",
"461 700 CURVE SMOOTH",
"438.333 705.333 OFFCURVE",
"412 708 OFFCURVE",
"382 708 CURVE SMOOTH",
"340 708 OFFCURVE",
"299.667 700.167 OFFCURVE",
"261 684.5 CURVE SMOOTH",
"222.333 668.833 OFFCURVE",
"188.333 645.667 OFFCURVE",
"159 615 CURVE SMOOTH",
"129.667 584.333 OFFCURVE",
"106.167 546.5 OFFCURVE",
"88.5 501.5 CURVE SMOOTH",
"70.833 456.5 OFFCURVE",
"62 405 OFFCURVE",
"62 347 CURVE SMOOTH",
"62 289 OFFCURVE",
"70.167 237.5 OFFCURVE",
"86.5 192.5 CURVE SMOOTH",
"102.833 147.5 OFFCURVE",
"125.167 109.667 OFFCURVE",
"153.5 79 CURVE SMOOTH",
"181.833 48.333 OFFCURVE",
"215.167 25 OFFCURVE",
"253.5 9 CURVE SMOOTH",
"291.833 -7 OFFCURVE",
"333.333 -15 OFFCURVE",
"378 -15 CURVE SMOOTH",
"406 -15 OFFCURVE",
"431.333 -13.5 OFFCURVE",
"454 -10.5 CURVE SMOOTH",
"476.667 -7.5 OFFCURVE",
"496.667 -3.667 OFFCURVE",
"514 1 CURVE SMOOTH",
"531.333 5.667 OFFCURVE",
"545.667 10.167 OFFCURVE",
"557 14.5 CURVE SMOOTH",
"568.333 18.833 OFFCURVE",
"576.333 22.667 OFFCURVE",
"581 26 CURVE",
"562 84 LINE",
"546.667 75.333 OFFCURVE",
"524.167 66.833 OFFCURVE",
"494.5 58.5 CURVE SMOOTH",
"464.833 50.167 OFFCURVE",
"428 46 OFFCURVE",
"384 46 CURVE SMOOTH",
"344 46 OFFCURVE",
"308.5 53 OFFCURVE",
"277.5 67 CURVE SMOOTH",
"246.5 81 OFFCURVE",
"220.333 101 OFFCURVE",
"199 127 CURVE SMOOTH",
"177.667 153 OFFCURVE",
"161.5 184.5 OFFCURVE",
"150.5 221.5 CURVE SMOOTH",
"139.5 258.5 OFFCURVE",
"134 300 OFFCURVE",
"134 346 CURVE SMOOTH",
"134 390.667 OFFCURVE",
"139.5 431.333 OFFCURVE",
"150.5 468 CURVE SMOOTH",
"161.5 504.667 OFFCURVE",
"178 536.333 OFFCURVE",
"200 563 CURVE SMOOTH",
"222 589.667 OFFCURVE",
"249.167 610.333 OFFCURVE",
"281.5 625 CURVE SMOOTH",
"313.833 639.667 OFFCURVE",
"351.667 647 OFFCURVE",
"395 647 CURVE SMOOTH",
"413 647 OFFCURVE",
"430.667 645.5 OFFCURVE",
"448 642.5 CURVE SMOOTH",
"465.333 639.5 OFFCURVE",
"481.167 635.833 OFFCURVE",
"495.5 631.5 CURVE SMOOTH",
"509.833 627.167 OFFCURVE",
"522.167 622.833 OFFCURVE",
"532.5 618.5 CURVE SMOOTH",
"542.833 614.167 OFFCURVE",
"550 611 OFFCURVE",
"554 609 CURVE"
);
}
);
width = 635;
}
);
leftKerningGroup = C;
note = uni0187;
unicode = 0187;
},
{
glyphname = Cstroke;
lastChange = "2018-03-22 14:29:51 +0000";
layers = (
{
layerId = "ECA8ADC0-D5C0-4AFD-BCF0-9F577B806AFE";
paths = (
{
closed = 1;
nodes = (
"476 698 LINE",
"462 701.333 OFFCURVE",
"447.167 703.833 OFFCURVE",
"431.5 705.5 CURVE SMOOTH",
"415.833 707.167 OFFCURVE",
"399.333 708 OFFCURVE",
"382 708 CURVE SMOOTH",
"340 708 OFFCURVE",
"299.667 700.167 OFFCURVE",
"261 684.5 CURVE SMOOTH",
"222.333 668.833 OFFCURVE",
"188.333 645.667 OFFCURVE",
"159 615 CURVE SMOOTH",
"129.667 584.333 OFFCURVE",
"106.167 546.5 OFFCURVE",
"88.5 501.5 CURVE SMOOTH",
"70.833 456.5 OFFCURVE",
"62 405 OFFCURVE",
"62 347 CURVE SMOOTH",
"62 273.667 OFFCURVE",
"74.5 211 OFFCURVE",
"99.5 159 CURVE SMOOTH",
"124.5 107 OFFCURVE",
"158 66.333 OFFCURVE",
"200 37 CURVE",
"152 -78 LINE",
"205 -99 LINE",
"250 10 LINE",
"290.667 -6.667 OFFCURVE",
"333.333 -15 OFFCURVE",
"378 -15 CURVE SMOOTH",
"406 -15 OFFCURVE",
"431.333 -13.5 OFFCURVE",
"454 -10.5 CURVE SMOOTH",
"476.667 -7.5 OFFCURVE",
"496.667 -3.667 OFFCURVE",
"514 1 CURVE SMOOTH",
"531.333 5.667 OFFCURVE",
"545.667 10.167 OFFCURVE",
"557 14.5 CURVE SMOOTH",
"568.333 18.833 OFFCURVE",
"576.333 22.667 OFFCURVE",
"581 26 CURVE",
"562 84 LINE",
"546.667 75.333 OFFCURVE",
"524.167 66.833 OFFCURVE",
"494.5 58.5 CURVE SMOOTH",
"464.833 50.167 OFFCURVE",
"428 46 OFFCURVE",
"384 46 CURVE SMOOTH",
"344 46 OFFCURVE",
"307.667 53.333 OFFCURVE",
"275 68 CURVE",
"508 626 LINE",
"533.333 616 OFFCURVE",
"555 605.333 OFFCURVE",
"573 594 CURVE",
"596 652 LINE",
"589.333 656 OFFCURVE",
"580.667 660.667 OFFCURVE",
"570 666 CURVE SMOOTH",
"559.333 671.333 OFFCURVE",
"546.667 676.667 OFFCURVE",
"532 682 CURVE",
"562 754 LINE",
"509 775 LINE"
);
},
{
closed = 1;
nodes = (
"414.333 647 OFFCURVE",
"433.667 645 OFFCURVE",
"453 641 CURVE",
"226 99 LINE",
"164.667 152.333 OFFCURVE",
"134 234.667 OFFCURVE",
"134 346 CURVE SMOOTH",
"134 390.667 OFFCURVE",
"139.5 431.333 OFFCURVE",
"150.5 468 CURVE SMOOTH",
"161.5 504.667 OFFCURVE",
"178 536.333 OFFCURVE",
"200 563 CURVE SMOOTH",
"222 589.667 OFFCURVE",
"249.167 610.333 OFFCURVE",
"281.5 625 CURVE SMOOTH",
"313.833 639.667 OFFCURVE",
"351.667 647 OFFCURVE",
"395 647 CURVE SMOOTH"
);
}
);
width = 627;
}
);
leftKerningGroup = C;
note = uni023B;
rightKerningGroup = C;
unicode = 023B;
},
{
glyphname = D;
lastChange = "2018-03-24 10:29:41 +0000";
layers = (
{
layerId = "ECA8ADC0-D5C0-4AFD-BCF0-9F577B806AFE";
paths = (
{
closed = 1;
nodes = (
"273 693 OFFCURVE",
"219 693 CURVE SMOOTH",
"188 693 OFFCURVE",
"79 695 OFFCURVE",
"50 684 CURVE",
"37 657 OFFCURVE",
"36 42 OFFCURVE",
"50 8 CURVE",
"94 -3 OFFCURVE",
"168 1 OFFCURVE",
"219 1 CURVE SMOOTH",
"319 1 OFFCURVE",
"420 18 OFFCURVE",
"494 82 CURVE SMOOTH",
"568 147 OFFCURVE",
"600 241 OFFCURVE",
"600 347 CURVE SMOOTH",
"600 452 OFFCURVE",
"568 546 OFFCURVE",
"494 611 CURVE SMOOTH",
"401 692 OFFCURVE"
);
},
{
closed = 1;
nodes = (
"147 635 OFFCURVE",
"192 637 OFFCURVE",
"227 637 CURVE SMOOTH",
"311 637 OFFCURVE",
"394 619 OFFCURVE",
"452 561 CURVE SMOOTH",
"506 507 OFFCURVE",
"528 430 OFFCURVE",
"528 347 CURVE SMOOTH",
"528 267 OFFCURVE",
"508 188 OFFCURVE",
"452 132 CURVE SMOOTH",
"395 75 OFFCURVE",
"314 58 OFFCURVE",
"227 58 CURVE SMOOTH",
"195 58 OFFCURVE",
"150 60 OFFCURVE",
"118 65 CURVE",
"103 108 OFFCURVE",
"106 592 OFFCURVE",
"118 630 CURVE"
);
}
);
width = 620;
}
);
leftKerningGroup = D;
rightKerningGroup = D;
unicode = 0044;
},
{
glyphname = Eth;
lastChange = "2018-03-22 14:29:51 +0000";
layers = (
{
layerId = "ECA8ADC0-D5C0-4AFD-BCF0-9F577B806AFE";
paths = (
{
closed = 1;
nodes = (
"245 699 OFFCURVE",
"215.667 697.5 OFFCURVE",
"185 694.5 CURVE SMOOTH",
"154.333 691.5 OFFCURVE",
"127.333 686.667 OFFCURVE",
"104 680 CURVE",
"104 390 LINE",
"24 390 LINE",
"24 335 LINE",
"104 335 LINE",
"104 12 LINE",
"127.333 6 OFFCURVE",
"154.333 1.5 OFFCURVE",
"185 -1.5 CURVE SMOOTH",
"215.667 -4.5 OFFCURVE",
"245 -6 OFFCURVE",
"273 -6 CURVE SMOOTH",
"329 -6 OFFCURVE",
"380.333 1.333 OFFCURVE",
"427 16 CURVE SMOOTH",
"473.667 30.667 OFFCURVE",
"513.833 52.667 OFFCURVE",
"547.5 82 CURVE SMOOTH",
"581.167 111.333 OFFCURVE",
"607.333 148 OFFCURVE",
"626 192 CURVE SMOOTH",
"644.667 236 OFFCURVE",
"654 287.667 OFFCURVE",
"654 347 CURVE SMOOTH",
"654 405.667 OFFCURVE",
"644.667 457 OFFCURVE",
"626 501 CURVE SMOOTH",
"607.333 545 OFFCURVE",
"581.167 581.667 OFFCURVE",
"547.5 611 CURVE SMOOTH",
"513.833 640.333 OFFCURVE",
"473.667 662.333 OFFCURVE",
"427 677 CURVE SMOOTH",
"380.333 691.667 OFFCURVE",
"329 699 OFFCURVE",
"273 699 CURVE SMOOTH"
);
},
{
closed = 1;
nodes = (
"304 335 LINE",
"304 390 LINE",
"172 390 LINE",
"172 633 LINE",
"176 633.667 OFFCURVE",
"186.167 635 OFFCURVE",
"202.5 637 CURVE SMOOTH",
"218.833 639 OFFCURVE",
"245 640 OFFCURVE",
"281 640 CURVE SMOOTH",
"331 640 OFFCURVE",
"374.667 633.167 OFFCURVE",
"412 619.5 CURVE SMOOTH",
"449.333 605.833 OFFCURVE",
"480.667 586.333 OFFCURVE",
"506 561 CURVE SMOOTH",
"531.333 535.667 OFFCURVE",
"550.333 505 OFFCURVE",
"563 469 CURVE SMOOTH",
"575.667 433 OFFCURVE",
"582 392.333 OFFCURVE",
"582 347 CURVE SMOOTH",
"582 301.667 OFFCURVE",
"575.667 260.833 OFFCURVE",
"563 224.5 CURVE SMOOTH",
"550.333 188.167 OFFCURVE",
"531.333 157.333 OFFCURVE",
"506 132 CURVE SMOOTH",
"480.667 106.667 OFFCURVE",
"449.333 87.167 OFFCURVE",
"412 73.5 CURVE SMOOTH",
"374.667 59.833 OFFCURVE",
"331 53 OFFCURVE",
"281 53 CURVE SMOOTH",
"245 53 OFFCURVE",
"218.833 54 OFFCURVE",
"202.5 56 CURVE SMOOTH",
"186.167 58 OFFCURVE",
"176 59.333 OFFCURVE",
"172 60 CURVE",
"172 335 LINE"
);
}
);
width = 716;
}
);
leftKerningGroup = D;
rightKerningGroup = D;
unicode = 00D0;
},
{
glyphname = Dhook;
lastChange = "2018-03-22 14:29:51 +0000";
layers = (
{
layerId = "ECA8ADC0-D5C0-4AFD-BCF0-9F577B806AFE";
paths = (
{
closed = 1;
nodes = (
"20 537 OFFCURVE",
"20.667 528.833 OFFCURVE",
"22 518.5 CURVE SMOOTH",
"23.333 508.167 OFFCURVE",
"24.667 500.333 OFFCURVE",
"26 495 CURVE",
"82 503 LINE",
"80.667 509 OFFCURVE",
"79.833 515 OFFCURVE",
"79.5 521 CURVE SMOOTH",
"79.167 527 OFFCURVE",
"79 531.667 OFFCURVE",
"79 535 CURVE SMOOTH",
"79 566.333 OFFCURVE",
"86.333 590.333 OFFCURVE",
"101 607 CURVE SMOOTH",
"115.667 623.667 OFFCURVE",
"139.333 633 OFFCURVE",
"172 635 CURVE",
"172 12 LINE",
"195.333 6 OFFCURVE",
"222.333 1.5 OFFCURVE",
"253 -1.5 CURVE SMOOTH",
"283.667 -4.5 OFFCURVE",
"313 -6 OFFCURVE",
"341 -6 CURVE SMOOTH",
"397 -6 OFFCURVE",
"448.333 1.333 OFFCURVE",
"495 16 CURVE SMOOTH",
"541.667 30.667 OFFCURVE",
"581.833 52.667 OFFCURVE",
"615.5 82 CURVE SMOOTH",
"649.167 111.333 OFFCURVE",
"675.333 148 OFFCURVE",
"694 192 CURVE SMOOTH",
"712.667 236 OFFCURVE",
"722 287.667 OFFCURVE",
"722 347 CURVE SMOOTH",
"722 405.667 OFFCURVE",
"712.667 457 OFFCURVE",
"694 501 CURVE SMOOTH",
"675.333 545 OFFCURVE",
"649.167 581.667 OFFCURVE",
"615.5 611 CURVE SMOOTH",
"581.833 640.333 OFFCURVE",
"541.667 662.333 OFFCURVE",
"495 677 CURVE SMOOTH",
"448.333 691.667 OFFCURVE",
"397 699 OFFCURVE",
"341 699 CURVE SMOOTH",
"289.667 699 OFFCURVE",
"244.167 697.167 OFFCURVE",
"204.5 693.5 CURVE SMOOTH",
"164.833 689.833 OFFCURVE",
"131.333 682.5 OFFCURVE",
"104 671.5 CURVE SMOOTH",
"76.667 660.5 OFFCURVE",
"55.833 644.833 OFFCURVE",
"41.5 624.5 CURVE SMOOTH",
"27.167 604.167 OFFCURVE",
"20 577 OFFCURVE",
"20 543 CURVE SMOOTH"
);
},
{
closed = 1;
nodes = (
"650 301.667 OFFCURVE",
"643.667 260.833 OFFCURVE",
"631 224.5 CURVE SMOOTH",
"618.333 188.167 OFFCURVE",
"599.333 157.333 OFFCURVE",
"574 132 CURVE SMOOTH",
"548.667 106.667 OFFCURVE",
"517.333 87.167 OFFCURVE",
"480 73.5 CURVE SMOOTH",
"442.667 59.833 OFFCURVE",
"399 53 OFFCURVE",
"349 53 CURVE SMOOTH",
"313 53 OFFCURVE",
"286.833 54 OFFCURVE",
"270.5 56 CURVE SMOOTH",
"254.167 58 OFFCURVE",
"244 59.333 OFFCURVE",
"240 60 CURVE",
"240 638 LINE",
"251.333 639.333 OFFCURVE",
"267 640 OFFCURVE",
"287 640 CURVE SMOOTH",
"307 640 OFFCURVE",
"326.333 640 OFFCURVE",
"345 640 CURVE SMOOTH",
"395.667 640 OFFCURVE",
"440 633.167 OFFCURVE",
"478 619.5 CURVE SMOOTH",
"516 605.833 OFFCURVE",
"547.833 586.333 OFFCURVE",
"573.5 561 CURVE SMOOTH",
"599.167 535.667 OFFCURVE",
"618.333 505 OFFCURVE",
"631 469 CURVE SMOOTH",
"643.667 433 OFFCURVE",
"650 392.333 OFFCURVE",
"650 347 CURVE SMOOTH"
);
}
);
width = 784;
}
);
note = uni018A;
rightKerningGroup = D;
unicode = 018A;
},
{
glyphname = Dtopbar;
lastChange = "2018-03-22 14:29:51 +0000";
layers = (
{
layerId = "ECA8ADC0-D5C0-4AFD-BCF0-9F577B806AFE";
paths = (
{
closed = 1;
nodes = (
"454 59 LINE",
"441.333 57.667 OFFCURVE",
"426.167 56.167 OFFCURVE",
"408.5 54.5 CURVE SMOOTH",
"390.833 52.833 OFFCURVE",
"369.333 52 OFFCURVE",
"344 52 CURVE SMOOTH",
"314 52 OFFCURVE",
"285.333 54.5 OFFCURVE",
"258 59.5 CURVE SMOOTH",
"230.667 64.5 OFFCURVE",
"206.833 73 OFFCURVE",
"186.5 85 CURVE SMOOTH",
"166.167 97 OFFCURVE",
"149.833 113 OFFCURVE",
"137.5 133 CURVE SMOOTH",
"125.167 153 OFFCURVE",
"119 178.333 OFFCURVE",
"119 209 CURVE SMOOTH",
"119 241 OFFCURVE",
"124.833 267.167 OFFCURVE",
"136.5 287.5 CURVE SMOOTH",
"148.167 307.833 OFFCURVE",
"164.833 323.833 OFFCURVE",
"186.5 335.5 CURVE SMOOTH",
"208.167 347.167 OFFCURVE",
"234.333 355.167 OFFCURVE",
"265 359.5 CURVE SMOOTH",
"295.667 363.833 OFFCURVE",
"330 366 OFFCURVE",
"368 366 CURVE SMOOTH",
"454 366 LINE"
);
},
{
closed = 1;
nodes = (
"309.667 424 OFFCURVE",
"265.667 420.167 OFFCURVE",
"227 412.5 CURVE SMOOTH",
"188.333 404.833 OFFCURVE",
"155.833 392.5 OFFCURVE",
"129.5 375.5 CURVE SMOOTH",
"103.167 358.5 OFFCURVE",
"83 336.333 OFFCURVE",
"69 309 CURVE SMOOTH",
"55 281.667 OFFCURVE",
"48 248.667 OFFCURVE",
"48 210 CURVE SMOOTH",
"48 137.333 OFFCURVE",
"73.333 83 OFFCURVE",
"124 47 CURVE SMOOTH",
"174.667 11 OFFCURVE",
"249 -7 OFFCURVE",
"347 -7 CURVE SMOOTH",
"375 -7 OFFCURVE",
"405.167 -5.5 OFFCURVE",
"437.5 -2.5 CURVE SMOOTH",
"469.833 0.5 OFFCURVE",
"498 5.333 OFFCURVE",
"522 12 CURVE",
"522 693 LINE",
"110 693 LINE",
"110 634 LINE",
"454 634 LINE",
"454 424 LINE",
"359 424 LINE SMOOTH"
);
}
);
width = 612;
}
);
leftKerningGroup = Dtopbar;
note = uni018B;
unicode = 018B;
},
{
glyphname = E;
lastChange = "2018-03-24 10:37:20 +0000";
layers = (
{
layerId = "ECA8ADC0-D5C0-4AFD-BCF0-9F577B806AFE";
paths = (
{
closed = 1;
nodes = (
"488 29 OFFCURVE",
"486 42 OFFCURVE",
"478 62 CURVE",
"450 70 OFFCURVE",
"144 61 OFFCURVE",
"120 74 CURVE",
"110 92 OFFCURVE",
"108 308 OFFCURVE",
"117 329 CURVE",
"132 340 OFFCURVE",
"403 327 OFFCURVE",
"416 338 CURVE",
"425 357 OFFCURVE",
"425 369 OFFCURVE",
"416 388 CURVE",
"393 398 OFFCURVE",
"151 389 OFFCURVE",
"117 399 CURVE",
"111 418 OFFCURVE",
"105 593 OFFCURVE",
"120 618 CURVE",
"141 630 OFFCURVE",
"434 617 OFFCURVE",
"452 630 CURVE",
"459 645 OFFCURVE",
"459 663 OFFCURVE",
"452 683 CURVE",
"416 695 OFFCURVE",
"82 694 OFFCURVE",
"52 683 CURVE",
"40 650 OFFCURVE",
"33 48 OFFCURVE",
"52 9 CURVE",
"86 -2 OFFCURVE",
"461 -7 OFFCURVE",
"478 9 CURVE"
);
}
);
width = 505;
}
);
leftKerningGroup = E;
rightKerningGroup = E;
unicode = 0045;
},
{
glyphname = Ecedilla;
lastChange = "2018-03-22 14:29:51 +0000";
layers = (
{
layerId = "ECA8ADC0-D5C0-4AFD-BCF0-9F577B806AFE";
paths = (
{
closed = 1;
nodes = (
"516 0 LINE",
"516 59 LINE",
"158 59 LINE",
"158 335 LINE",
"454 335 LINE",
"454 393 LINE",
"158 393 LINE",
"158 634 LINE",
"490 634 LINE",
"490 693 LINE",
"90 693 LINE",
"90 0 LINE",
"288 0 LINE",
"282.667 -9.333 OFFCURVE",
"277.333 -20.167 OFFCURVE",
"272 -32.5 CURVE SMOOTH",
"266.667 -44.833 OFFCURVE",
"262.333 -55.667 OFFCURVE",
"259 -65 CURVE",
"279 -73 OFFCURVE",
"293.667 -80 OFFCURVE",
"303 -86 CURVE SMOOTH",
"312.333 -92 OFFCURVE",
"317 -100.667 OFFCURVE",
"317 -112 CURVE SMOOTH",
"317 -131.333 OFFCURVE",
"303.333 -141 OFFCURVE",
"276 -141 CURVE SMOOTH",
"262.667 -141 OFFCURVE",
"251.333 -140.333 OFFCURVE",
"242 -139 CURVE SMOOTH",
"232.667 -137.667 OFFCURVE",
"224.333 -135.333 OFFCURVE",
"217 -132 CURVE",
"209 -175 LINE",
"215 -178.333 OFFCURVE",
"225 -181.167 OFFCURVE",
"239 -183.5 CURVE SMOOTH",
"253 -185.833 OFFCURVE",
"266.667 -187 OFFCURVE",
"280 -187 CURVE SMOOTH",
"300 -187 OFFCURVE",
"316.333 -184.667 OFFCURVE",
"329 -180 CURVE SMOOTH",
"341.667 -175.333 OFFCURVE",
"351.667 -169.333 OFFCURVE",
"359 -162 CURVE SMOOTH",
"366.333 -154.667 OFFCURVE",
"371.333 -146.5 OFFCURVE",
"374 -137.5 CURVE SMOOTH",
"376.667 -128.5 OFFCURVE",
"378 -120 OFFCURVE",
"378 -112 CURVE SMOOTH",
"378 -92.667 OFFCURVE",
"372.5 -77.167 OFFCURVE",
"361.5 -65.5 CURVE SMOOTH",
"350.5 -53.833 OFFCURVE",
"335.667 -44 OFFCURVE",
"317 -36 CURVE",
"319 -30.667 OFFCURVE",
"321.5 -24.833 OFFCURVE",
"324.5 -18.5 CURVE SMOOTH",
"327.5 -12.167 OFFCURVE",
"330.667 -6 OFFCURVE",
"334 0 CURVE"
);
}
);
width = 555;
}
);
leftKerningGroup = E;
note = uni0228;
rightKerningGroup = E;
unicode = 0228;
},
{
glyphname = Eogonek;
lastChange = "2018-03-22 14:29:51 +0000";
layers = (
{
layerId = "ECA8ADC0-D5C0-4AFD-BCF0-9F577B806AFE";
paths = (
{
closed = 1;
nodes = (
"441.667 -2.667 OFFCURVE",
"438.167 -5.333 OFFCURVE",
"434.5 -8 CURVE SMOOTH",
"430.833 -10.667 OFFCURVE",
"427.333 -13.667 OFFCURVE",
"424 -17 CURVE",
"409.333 -30.333 OFFCURVE",
"396.5 -45 OFFCURVE",
"385.5 -61 CURVE SMOOTH",
"374.5 -77 OFFCURVE",
"369 -95.333 OFFCURVE",
"369 -116 CURVE SMOOTH",
"369 -136.667 OFFCURVE",
"376.333 -153.5 OFFCURVE",
"391 -166.5 CURVE SMOOTH",
"405.667 -179.5 OFFCURVE",
"431 -186 OFFCURVE",
"467 -186 CURVE SMOOTH",
"477 -186 OFFCURVE",
"487.167 -185 OFFCURVE",
"497.5 -183 CURVE SMOOTH",
"507.833 -181 OFFCURVE",
"515.667 -179 OFFCURVE",
"521 -177 CURVE",
"516 -129 LINE",
"510.667 -131 OFFCURVE",
"504.5 -132.5 OFFCURVE",
"497.5 -133.5 CURVE SMOOTH",
"490.5 -134.5 OFFCURVE",
"484 -135 OFFCURVE",
"478 -135 CURVE SMOOTH",
"466 -135 OFFCURVE",
"456 -132.333 OFFCURVE",
"448 -127 CURVE SMOOTH",
"440 -121.667 OFFCURVE",
"436 -113 OFFCURVE",
"436 -101 CURVE SMOOTH",
"436 -89.667 OFFCURVE",
"439.167 -79.167 OFFCURVE",
"445.5 -69.5 CURVE SMOOTH",
"451.833 -59.833 OFFCURVE",
"460.333 -49.333 OFFCURVE",
"471 -38 CURVE SMOOTH",
"479 -29.333 OFFCURVE",
"486.667 -21.833 OFFCURVE",
"494 -15.5 CURVE SMOOTH",
"501.333 -9.167 OFFCURVE",
"508.667 -3.333 OFFCURVE",
"516 2 CURVE",
"516 59 LINE",
"158 59 LINE",
"158 335 LINE",
"454 335 LINE",
"454 393 LINE",
"158 393 LINE",
"158 634 LINE",
"490 634 LINE",
"490 693 LINE",
"90 693 LINE",
"90 0 LINE",
"445 0 LINE"
);
}
);
width = 555;
}
);
leftKerningGroup = E;
rightKerningGroup = E;
unicode = 0118;
},
{
glyphname = Eopen;
lastChange = "2018-03-22 14:29:51 +0000";
layers = (
{
layerId = "ECA8ADC0-D5C0-4AFD-BCF0-9F577B806AFE";
paths = (
{
closed = 1;
nodes = (
"501 662 LINE",
"483.667 673.333 OFFCURVE",
"458.333 683.833 OFFCURVE",
"425 693.5 CURVE SMOOTH",
"391.667 703.167 OFFCURVE",
"355 708 OFFCURVE",
"315 708 CURVE SMOOTH",
"281 708 OFFCURVE",
"250 704.5 OFFCURVE",
"222 697.5 CURVE SMOOTH",
"194 690.5 OFFCURVE",
"170 679.833 OFFCURVE",
"150 665.5 CURVE SMOOTH",
"130 651.167 OFFCURVE",
"114.333 633 OFFCURVE",
"103 611 CURVE SMOOTH",
"91.667 589 OFFCURVE",
"86 563 OFFCURVE",
"86 533 CURVE SMOOTH",
"86 515 OFFCURVE",
"89 497.667 OFFCURVE",
"95 481 CURVE SMOOTH",
"101 464.333 OFFCURVE",
"109.667 449 OFFCURVE",
"121 435 CURVE SMOOTH",
"132.333 421 OFFCURVE",
"146.667 408.833 OFFCURVE",
"164 398.5 CURVE SMOOTH",
"181.333 388.167 OFFCURVE",
"201.333 380.667 OFFCURVE",
"224 376 CURVE",
"202 372 OFFCURVE",
"180.667 365.333 OFFCURVE",
"160 356 CURVE SMOOTH",
"139.333 346.667 OFFCURVE",
"121.333 334.5 OFFCURVE",
"106 319.5 CURVE SMOOTH",
"90.667 304.5 OFFCURVE",
"78.333 286.167 OFFCURVE",
"69 264.5 CURVE SMOOTH",
"59.667 242.833 OFFCURVE",
"55 217.667 OFFCURVE",
"55 189 CURVE SMOOTH",
"55 151.667 OFFCURVE",
"61.667 120.167 OFFCURVE",
"75 94.5 CURVE SMOOTH",
"88.333 68.833 OFFCURVE",
"106.833 47.833 OFFCURVE",
"130.5 31.5 CURVE SMOOTH",
"154.167 15.167 OFFCURVE",
"182.5 3.333 OFFCURVE",
"215.5 -4 CURVE SMOOTH",
"248.5 -11.333 OFFCURVE",
"284.667 -15 OFFCURVE",
"324 -15 CURVE SMOOTH",
"348.667 -15 OFFCURVE",
"371.833 -13.333 OFFCURVE",
"393.5 -10 CURVE SMOOTH",
"415.167 -6.667 OFFCURVE",
"434.5 -2.5 OFFCURVE",
"451.5 2.5 CURVE SMOOTH",
"468.5 7.5 OFFCURVE",
"483 12.5 OFFCURVE",
"495 17.5 CURVE SMOOTH",
"507 22.5 OFFCURVE",
"516.333 27 OFFCURVE",
"523 31 CURVE",
"501 90 LINE",
"494.333 86 OFFCURVE",
"485.333 81.5 OFFCURVE",
"474 76.5 CURVE SMOOTH",
"462.667 71.5 OFFCURVE",
"449.5 66.5 OFFCURVE",
"434.5 61.5 CURVE SMOOTH",
"419.5 56.5 OFFCURVE",
"402.667 52.333 OFFCURVE",
"384 49 CURVE SMOOTH",
"365.333 45.667 OFFCURVE",
"345 44 OFFCURVE",
"323 44 CURVE SMOOTH",
"294.333 44 OFFCURVE",
"268 46.5 OFFCURVE",
"244 51.5 CURVE SMOOTH",
"220 56.5 OFFCURVE",
"199.333 64.833 OFFCURVE",
"182 76.5 CURVE SMOOTH",
"164.667 88.167 OFFCURVE",
"151.167 103.167 OFFCURVE",
"141.5 121.5 CURVE SMOOTH",
"131.833 139.833 OFFCURVE",
"127 162.333 OFFCURVE",
"127 189 CURVE SMOOTH",
"127 219.667 OFFCURVE",
"133 244.667 OFFCURVE",
"145 264 CURVE SMOOTH",
"157 283.333 OFFCURVE",
"173.5 298.5 OFFCURVE",
"194.5 309.5 CURVE SMOOTH",
"215.5 320.5 OFFCURVE",
"240.333 328.167 OFFCURVE",
"269 332.5 CURVE SMOOTH",
"297.667 336.833 OFFCURVE",
"328.333 339 OFFCURVE",
"361 339 CURVE SMOOTH",
"407 339 LINE",
"407 397 LINE",
"348 397 LINE SMOOTH",
"326 397 OFFCURVE",
"303.667 399.167 OFFCURVE",
"281 403.5 CURVE SMOOTH",
"258.333 407.833 OFFCURVE",
"237.833 415 OFFCURVE",
"219.5 425 CURVE SMOOTH",
"201.167 435 OFFCURVE",
"186.167 448.667 OFFCURVE",
"174.5 466 CURVE SMOOTH",
"162.833 483.333 OFFCURVE",
"157 505 OFFCURVE",
"157 531 CURVE SMOOTH",
"157 565 OFFCURVE",
"170.333 593.167 OFFCURVE",
"197 615.5 CURVE SMOOTH",
"223.667 637.833 OFFCURVE",
"263.333 649 OFFCURVE",
"316 649 CURVE SMOOTH",
"348 649 OFFCURVE",
"378 645 OFFCURVE",
"406 637 CURVE SMOOTH",
"434 629 OFFCURVE",
"457.667 618.333 OFFCURVE",
"477 605 CURVE"
);
}
);
width = 552;
}
);
leftKerningGroup = Eopen;
note = uni0190;
rightKerningGroup = Eopen;
unicode = 0190;
},
{
glyphname = Ereversed;
lastChange = "2018-03-22 14:29:51 +0000";
layers = (
{
layerId = "ECA8ADC0-D5C0-4AFD-BCF0-9F577B806AFE";
paths = (
{
closed = 1;
nodes = (
"465 693 LINE",
"65 693 LINE",
"65 634 LINE",
"397 634 LINE",
"397 393 LINE",
"101 393 LINE",
"101 335 LINE",
"397 335 LINE",
"397 59 LINE",
"39 59 LINE",
"39 0 LINE",
"465 0 LINE"
);
}
);
width = 555;
}
);
leftKerningGroup = Ereversed;
note = uni018E;
unicode = 018E;
},
{
glyphname = Estroke;
lastChange = "2018-03-22 14:29:51 +0000";
layers = (
{
layerId = "ECA8ADC0-D5C0-4AFD-BCF0-9F577B806AFE";
paths = (
{
closed = 1;
nodes = (
"525 59 LINE",
"259 59 LINE",
"374 335 LINE",
"463 335 LINE",
"463 392 LINE",
"398 392 LINE",
"545 742 LINE",
"493 762 LINE",
"464 693 LINE",
"90 693 LINE",
"90 0 LINE",
"174 0 LINE",
"135 -95 LINE",
"187 -115 LINE",
"235 0 LINE",
"525 0 LINE"
);
},
{
closed = 1;
nodes = (
"439 634 LINE",
"338 392 LINE",
"158 392 LINE",
"158 634 LINE"
);
},
{
closed = 1;
nodes = (
"314 335 LINE",
"199 59 LINE",
"158 59 LINE",
"158 335 LINE"
);
}
);
width = 568;
}
);
leftKerningGroup = E;
note = uni0246;
rightKerningGroup = E;
unicode = 0246;
},
{
glyphname = Ezh;
lastChange = "2018-03-22 14:29:51 +0000";
layers = (
{
layerId = "ECA8ADC0-D5C0-4AFD-BCF0-9F577B806AFE";
paths = (
{
closed = 1;
nodes = (
"284 412 OFFCURVE",
"304.333 434.833 OFFCURVE",
"325 458.5 CURVE SMOOTH",
"345.667 482.167 OFFCURVE",
"365.667 505.5 OFFCURVE",
"385 528.5 CURVE SMOOTH",
"404.333 551.5 OFFCURVE",
"422.333 573.5 OFFCURVE",
"439 594.5 CURVE SMOOTH",
"455.667 615.5 OFFCURVE",
"470 634.667 OFFCURVE",
"482 652 CURVE",
"482 693 LINE",
"58 693 LINE",
"58 634 LINE",
"399 634 LINE",
"387.667 620 OFFCURVE",
"373.833 602.667 OFFCURVE",
"357.5 582 CURVE SMOOTH",
"341.167 561.333 OFFCURVE",
"323.333 539.5 OFFCURVE",
"304 516.5 CURVE SMOOTH",
"284.667 493.5 OFFCURVE",
"264.667 470.333 OFFCURVE",
"244 447 CURVE SMOOTH",
"223.333 423.667 OFFCURVE",
"203.667 402.667 OFFCURVE",
"185 384 CURVE",
"185 341 LINE",
"192 341 LINE SMOOTH",
"224 341 OFFCURVE",
"254 338.833 OFFCURVE",
"282 334.5 CURVE SMOOTH",
"310 330.167 OFFCURVE",
"334.5 322.333 OFFCURVE",
"355.5 311 CURVE SMOOTH",
"376.5 299.667 OFFCURVE",
"393.167 284.167 OFFCURVE",
"405.5 264.5 CURVE SMOOTH",
"417.833 244.833 OFFCURVE",
"424 219.667 OFFCURVE",
"424 189 CURVE SMOOTH",
"424 162.333 OFFCURVE",
"419.167 139.833 OFFCURVE",
"409.5 121.5 CURVE SMOOTH",
"399.833 103.167 OFFCURVE",
"386.333 88.167 OFFCURVE",
"369 76.5 CURVE SMOOTH",
"351.667 64.833 OFFCURVE",
"331 56.5 OFFCURVE",
"307 51.5 CURVE SMOOTH",
"283 46.5 OFFCURVE",
"256.667 44 OFFCURVE",
"228 44 CURVE SMOOTH",
"206 44 OFFCURVE",
"185.667 45.667 OFFCURVE",
"167 49 CURVE SMOOTH",
"148.333 52.333 OFFCURVE",
"131.5 56.5 OFFCURVE",
"116.5 61.5 CURVE SMOOTH",
"101.5 66.5 OFFCURVE",
"88.333 71.5 OFFCURVE",
"77 76.5 CURVE SMOOTH",
"65.667 81.5 OFFCURVE",
"56.667 86 OFFCURVE",
"50 90 CURVE",
"28 31 LINE",
"34.667 27 OFFCURVE",
"44 22.5 OFFCURVE",
"56 17.5 CURVE SMOOTH",
"68 12.5 OFFCURVE",
"82.5 7.5 OFFCURVE",
"99.5 2.5 CURVE SMOOTH",
"116.5 -2.5 OFFCURVE",
"135.667 -6.667 OFFCURVE",
"157 -10 CURVE SMOOTH",
"178.333 -13.333 OFFCURVE",
"201.667 -15 OFFCURVE",
"227 -15 CURVE SMOOTH",
"266.333 -15 OFFCURVE",
"302.5 -11.333 OFFCURVE",
"335.5 -4 CURVE SMOOTH",
"368.5 3.333 OFFCURVE",
"396.833 15.167 OFFCURVE",
"420.5 31.5 CURVE SMOOTH",
"444.167 47.833 OFFCURVE",
"462.667 68.833 OFFCURVE",
"476 94.5 CURVE SMOOTH",
"489.333 120.167 OFFCURVE",
"496 151.667 OFFCURVE",
"496 189 CURVE SMOOTH",
"496 225 OFFCURVE",
"489 255.333 OFFCURVE",
"475 280 CURVE SMOOTH",
"461 304.667 OFFCURVE",
"443 324.833 OFFCURVE",
"421 340.5 CURVE SMOOTH",
"399 356.167 OFFCURVE",
"374.167 367.833 OFFCURVE",
"346.5 375.5 CURVE SMOOTH",
"318.833 383.167 OFFCURVE",
"291.333 388 OFFCURVE",
"264 390 CURVE"
);
}
);
width = 545;
}
);
leftKerningGroup = Ezh;
note = uni01B7;
rightKerningGroup = Ezh;
unicode = 01B7;
},
{
glyphname = Ezhreversed;
lastChange = "2018-03-22 14:29:51 +0000";
layers = (
{
layerId = "ECA8ADC0-D5C0-4AFD-BCF0-9F577B806AFE";
paths = (
{
closed = 1;
nodes = (
"368 -15 OFFCURVE",
"409.333 -9.5 OFFCURVE",
"442 1.5 CURVE SMOOTH",
"474.667 12.5 OFFCURVE",
"500 23 OFFCURVE",
"518 33 CURVE",
"495 91 LINE",
"488.333 87 OFFCURVE",
"479.5 82.333 OFFCURVE",
"468.5 77 CURVE SMOOTH",
"457.5 71.667 OFFCURVE",
"444.5 66.5 OFFCURVE",
"429.5 61.5 CURVE SMOOTH",
"414.5 56.5 OFFCURVE",
"397.667 52.333 OFFCURVE",
"379 49 CURVE SMOOTH",
"360.333 45.667 OFFCURVE",
"339.667 44 OFFCURVE",
"317 44 CURVE SMOOTH",
"288.333 44 OFFCURVE",
"262 46.5 OFFCURVE",
"238 51.5 CURVE SMOOTH",
"214 56.5 OFFCURVE",
"193.333 64.833 OFFCURVE",
"176 76.5 CURVE SMOOTH",
"158.667 88.167 OFFCURVE",
"145.167 103.167 OFFCURVE",
"135.5 121.5 CURVE SMOOTH",
"125.833 139.833 OFFCURVE",
"121 162.333 OFFCURVE",
"121 189 CURVE SMOOTH",
"121 219.667 OFFCURVE",
"127.167 244.833 OFFCURVE",
"139.5 264.5 CURVE SMOOTH",
"151.833 284.167 OFFCURVE",
"168.5 299.667 OFFCURVE",
"189.5 311 CURVE SMOOTH",
"210.5 322.333 OFFCURVE",
"235 330.167 OFFCURVE",
"263 334.5 CURVE SMOOTH",
"291 338.833 OFFCURVE",
"321 341 OFFCURVE",
"353 341 CURVE SMOOTH",
"363 341 LINE",
"363 384 LINE",
"344.333 402.667 OFFCURVE",
"324.667 423.667 OFFCURVE",
"304 447 CURVE SMOOTH",
"283.333 470.333 OFFCURVE",
"263.333 493.5 OFFCURVE",
"244 516.5 CURVE SMOOTH",
"224.667 539.5 OFFCURVE",
"206.667 561.333 OFFCURVE",
"190 582 CURVE SMOOTH",
"173.333 602.667 OFFCURVE",
"159.667 620 OFFCURVE",
"149 634 CURVE",
"487 634 LINE",
"487 693 LINE",
"64 693 LINE",
"64 652 LINE",
"76 634.667 OFFCURVE",
"90.167 615.5 OFFCURVE",
"106.5 594.5 CURVE SMOOTH",
"122.833 573.5 OFFCURVE",
"140.667 551.5 OFFCURVE",
"160 528.5 CURVE SMOOTH",
"179.333 505.5 OFFCURVE",
"199.333 482.167 OFFCURVE",
"220 458.5 CURVE SMOOTH",
"240.667 434.833 OFFCURVE",
"261 412 OFFCURVE",
"281 390 CURVE",
"253.667 388 OFFCURVE",
"226.167 383.167 OFFCURVE",
"198.5 375.5 CURVE SMOOTH",
"170.833 367.833 OFFCURVE",
"146 356.167 OFFCURVE",
"124 340.5 CURVE SMOOTH",
"102 324.833 OFFCURVE",
"84 304.667 OFFCURVE",
"70 280 CURVE SMOOTH",
"56 255.333 OFFCURVE",
"49 225 OFFCURVE",
"49 189 CURVE SMOOTH",
"49 151.667 OFFCURVE",
"55.667 120.167 OFFCURVE",
"69 94.5 CURVE SMOOTH",
"82.333 68.833 OFFCURVE",
"100.833 47.833 OFFCURVE",
"124.5 31.5 CURVE SMOOTH",
"148.167 15.167 OFFCURVE",
"176.5 3.333 OFFCURVE",
"209.5 -4 CURVE SMOOTH",
"242.5 -11.333 OFFCURVE",
"278.667 -15 OFFCURVE",
"318 -15 CURVE SMOOTH"
);
}
);
width = 546;
}
);
leftKerningGroup = Ezhreversed;
note = uni01B8;
rightKerningGroup = Ezhreversed;
unicode = 01B8;
},
{
glyphname = F;
lastChange = "2018-03-24 10:40:22 +0000";
layers = (
{
layerId = "ECA8ADC0-D5C0-4AFD-BCF0-9F577B806AFE";
paths = (
{
closed = 1;
nodes = (
"119 22 OFFCURVE",
"107 301 OFFCURVE",
"116 328 CURVE",
"134 335 OFFCURVE",
"392 325 OFFCURVE",
"406 332 CURVE",
"416 352 OFFCURVE",
"417 373 OFFCURVE",
"406 388 CURVE",
"388 393 OFFCURVE",
"133 389 OFFCURVE",
"116 395 CURVE",
"108 416 OFFCURVE",
"107 605 OFFCURVE",
"116 624 CURVE",
"128 636 OFFCURVE",
"342 622 OFFCURVE",
"443 630 CURVE",
"450 642 OFFCURVE",
"456 666 OFFCURVE",
"443 686 CURVE",
"418 690 OFFCURVE",
"76 700 OFFCURVE",
"48 686 CURVE",
"36 666 OFFCURVE",
"40 39 OFFCURVE",
"47 0 CURVE",
"62 -7 OFFCURVE",
"96 -6 OFFCURVE",
"113 0 CURVE"
);
}
);
width = 471;
}
);
leftKerningGroup = F;
rightKerningGroup = F;
unicode = 0046;
},
{
glyphname = Fhook;
lastChange = "2018-03-22 14:29:51 +0000";
layers = (
{
layerId = "ECA8ADC0-D5C0-4AFD-BCF0-9F577B806AFE";
paths = (
{
closed = 1;
nodes = (
"448 331 LINE",
"448 390 LINE",
"158 390 LINE",
"158 634 LINE",
"485 634 LINE",
"485 693 LINE",
"90 693 LINE",
"90 -37 LINE SMOOTH",
"90 -69 OFFCURVE",
"84.833 -92.5 OFFCURVE",
"74.5 -107.5 CURVE SMOOTH",
"64.167 -122.5 OFFCURVE",
"46.333 -130 OFFCURVE",
"21 -130 CURVE SMOOTH",
"13 -130 OFFCURVE",
"5.667 -129.333 OFFCURVE",
"-1 -128 CURVE SMOOTH",
"-7.667 -126.667 OFFCURVE",
"-12.667 -125.333 OFFCURVE",
"-16 -124 CURVE",
"-25 -178 LINE",
"-19.667 -180 OFFCURVE",
"-12.167 -182 OFFCURVE",
"-2.5 -184 CURVE SMOOTH",
"7.167 -186 OFFCURVE",
"17.667 -187 OFFCURVE",
"29 -187 CURVE SMOOTH",
"57 -187 OFFCURVE",
"79.333 -182.833 OFFCURVE",
"96 -174.5 CURVE SMOOTH",
"112.667 -166.167 OFFCURVE",
"125.667 -154.833 OFFCURVE",
"135 -140.5 CURVE SMOOTH",
"144.333 -126.167 OFFCURVE",
"150.5 -109.167 OFFCURVE",
"153.5 -89.5 CURVE SMOOTH",
"156.5 -69.833 OFFCURVE",
"158 -48.667 OFFCURVE",
"158 -26 CURVE SMOOTH",
"158 331 LINE"
);
}
);
width = 520;
}
);
leftKerningGroup = F;
note = uni0191;
rightKerningGroup = F;
unicode = 0191;
},
{
glyphname = G;
lastChange = "2018-03-24 11:13:36 +0000";
layers = (
{
layerId = "ECA8ADC0-D5C0-4AFD-BCF0-9F577B806AFE";
paths = (
{
closed = 1;
nodes = (
"20 249 OFFCURVE",
"45 165 OFFCURVE",
"111 95 CURVE SMOOTH",
"169 33 OFFCURVE",
"250 1 OFFCURVE",
"337 1 CURVE SMOOTH",
"405 1 OFFCURVE",
"488 1 OFFCURVE",
"548 5 CURVE",
"564 24 OFFCURVE",
"564 284 OFFCURVE",
"548 323 CURVE",
"512 333 OFFCURVE",
"313 334 OFFCURVE",
"296 327 CURVE",
"291 312 OFFCURVE",
"290 285 OFFCURVE",
"296 271 CURVE",
"308 266 OFFCURVE",
"469 271 OFFCURVE",
"489 262 CURVE",
"495 244 OFFCURVE",
"504 93 OFFCURVE",
"489 64 CURVE",
"462 53 OFFCURVE",
"388 59 OFFCURVE",
"348 59 CURVE SMOOTH",
"274 59 OFFCURVE",
"205 84 OFFCURVE",
"157 143 CURVE SMOOTH",
"111 200 OFFCURVE",
"92 265 OFFCURVE",
"92 347 CURVE SMOOTH",
"92 429 OFFCURVE",
"111 496 OFFCURVE",
"165 556 CURVE SMOOTH",
"210 606 OFFCURVE",
"274 632 OFFCURVE",
"343 632 CURVE SMOOTH",
"401 632 OFFCURVE",
"478 626 OFFCURVE",
"523 587 CURVE",
"531 580 OFFCURVE",
"560 632 OFFCURVE",
"546 645 CURVE",
"496 677 OFFCURVE",
"420 693 OFFCURVE",
"346 693 CURVE SMOOTH",
"259 693 OFFCURVE",
"176 661 OFFCURVE",
"117 600 CURVE SMOOTH",
"50 531 OFFCURVE",
"20 449 OFFCURVE",
"20 347 CURVE SMOOTH"
);
}
);
width = 600;
}
);
leftKerningGroup = G;
rightKerningGroup = G;
unicode = 0047;
},
{
glyphname = Ghook;
lastChange = "2018-03-22 14:29:51 +0000";
layers = (
{
layerId = "ECA8ADC0-D5C0-4AFD-BCF0-9F577B806AFE";
paths = (
{
closed = 1;
nodes = (
"62 289 OFFCURVE",
"70 237.5 OFFCURVE",
"86 192.5 CURVE SMOOTH",
"102 147.5 OFFCURVE",
"124.167 109.833 OFFCURVE",
"152.5 79.5 CURVE SMOOTH",
"180.833 49.167 OFFCURVE",
"214.333 26 OFFCURVE",
"253 10 CURVE SMOOTH",
"291.667 -6 OFFCURVE",
"333.667 -14 OFFCURVE",
"379 -14 CURVE SMOOTH",
"433 -14 OFFCURVE",
"478.5 -9.833 OFFCURVE",
"515.5 -1.5 CURVE SMOOTH",
"552.5 6.833 OFFCURVE",
"577.333 13.667 OFFCURVE",
"590 19 CURVE",
"590 328 LINE",
"522 328 LINE",
"522 62 LINE",
"514 58.667 OFFCURVE",
"498.5 55.167 OFFCURVE",
"475.5 51.5 CURVE SMOOTH",
"452.5 47.833 OFFCURVE",
"424 46 OFFCURVE",
"390 46 CURVE SMOOTH",
"348 46 OFFCURVE",
"311 53 OFFCURVE",
"279 67 CURVE SMOOTH",
"247 81 OFFCURVE",
"220.167 101.167 OFFCURVE",
"198.5 127.5 CURVE SMOOTH",
"176.833 153.833 OFFCURVE",
"160.667 185.5 OFFCURVE",
"150 222.5 CURVE SMOOTH",
"139.333 259.5 OFFCURVE",
"134 301 OFFCURVE",
"134 347 CURVE SMOOTH",
"134 396.333 OFFCURVE",
"140.333 439.667 OFFCURVE",
"153 477 CURVE SMOOTH",
"165.667 514.333 OFFCURVE",
"183.5 545.667 OFFCURVE",
"206.5 571 CURVE SMOOTH",
"229.5 596.333 OFFCURVE",
"257 615.333 OFFCURVE",
"289 628 CURVE SMOOTH",
"321 640.667 OFFCURVE",
"356 647 OFFCURVE",
"394 647 CURVE SMOOTH",
"416 647 OFFCURVE",
"436.333 645.5 OFFCURVE",
"455 642.5 CURVE SMOOTH",
"473.667 639.5 OFFCURVE",
"490.333 635.833 OFFCURVE",
"505 631.5 CURVE SMOOTH",
"519.667 627.167 OFFCURVE",
"532.167 622.833 OFFCURVE",
"542.5 618.5 CURVE SMOOTH",
"552.833 614.167 OFFCURVE",
"560.333 610.667 OFFCURVE",
"565 608 CURVE",
"579 658 LINE SMOOTH",
"581.667 666.667 OFFCURVE",
"584.667 675.667 OFFCURVE",
"588 685 CURVE SMOOTH",
"591.333 694.333 OFFCURVE",
"595.667 702.5 OFFCURVE",
"601 709.5 CURVE SMOOTH",
"606.333 716.5 OFFCURVE",
"613.5 722.333 OFFCURVE",
"622.5 727 CURVE SMOOTH",
"631.5 731.667 OFFCURVE",
"642.667 734 OFFCURVE",
"656 734 CURVE SMOOTH",
"665.333 734 OFFCURVE",
"673.833 733.167 OFFCURVE",
"681.5 731.5 CURVE SMOOTH",
"689.167 729.833 OFFCURVE",
"695 728.333 OFFCURVE",
"699 727 CURVE",
"710 775 LINE",
"704 777.667 OFFCURVE",
"696 779.667 OFFCURVE",
"686 781 CURVE SMOOTH",
"676 782.333 OFFCURVE",
"665.667 783 OFFCURVE",
"655 783 CURVE SMOOTH",
"617 783 OFFCURVE",
"587.833 774.833 OFFCURVE",
"567.5 758.5 CURVE SMOOTH",
"547.167 742.167 OFFCURVE",
"532.667 717 OFFCURVE",
"524 683 CURVE",
"510.667 689 OFFCURVE",
"492.833 694.667 OFFCURVE",
"470.5 700 CURVE SMOOTH",
"448.167 705.333 OFFCURVE",
"420.667 708 OFFCURVE",
"388 708 CURVE SMOOTH",
"343.333 708 OFFCURVE",
"301.333 700 OFFCURVE",
"262 684 CURVE SMOOTH",
"222.667 668 OFFCURVE",
"188.167 644.833 OFFCURVE",
"158.5 614.5 CURVE SMOOTH",
"128.833 584.167 OFFCURVE",
"105.333 546.5 OFFCURVE",
"88 501.5 CURVE SMOOTH",
"70.667 456.5 OFFCURVE",
"62 405 OFFCURVE",
"62 347 CURVE SMOOTH"
);
}
);
width = 663;
}
);
leftKerningGroup = O;
note = uni0193;
unicode = 0193;
},
{
glyphname = Glottalstop;
lastChange = "2018-03-22 14:29:51 +0000";
layers = (
{
layerId = "ECA8ADC0-D5C0-4AFD-BCF0-9F577B806AFE";
paths = (
{
closed = 1;
nodes = (
"206 220.667 OFFCURVE",
"207.167 238 OFFCURVE",
"209.5 252 CURVE SMOOTH",
"211.833 266 OFFCURVE",
"216.667 278.5 OFFCURVE",
"224 289.5 CURVE SMOOTH",
"231.333 300.5 OFFCURVE",
"241.5 311 OFFCURVE",
"254.5 321 CURVE SMOOTH",
"267.5 331 OFFCURVE",
"284.667 342.667 OFFCURVE",
"306 356 CURVE SMOOTH",
"324 367.333 OFFCURVE",
"341.167 378.5 OFFCURVE",
"357.5 389.5 CURVE SMOOTH",
"373.833 400.5 OFFCURVE",
"388 412.667 OFFCURVE",
"400 426 CURVE SMOOTH",
"412 439.333 OFFCURVE",
"421.5 454.667 OFFCURVE",
"428.5 472 CURVE SMOOTH",
"435.5 489.333 OFFCURVE",
"439 510 OFFCURVE",
"439 534 CURVE SMOOTH",
"439 590 OFFCURVE",
"419.833 633 OFFCURVE",
"381.5 663 CURVE SMOOTH",
"343.167 693 OFFCURVE",
"286.667 708 OFFCURVE",
"212 708 CURVE SMOOTH",
"192 708 OFFCURVE",
"172 706.333 OFFCURVE",
"152 703 CURVE SMOOTH",
"132 699.667 OFFCURVE",
"113.5 695.5 OFFCURVE",
"96.5 690.5 CURVE SMOOTH",
"79.5 685.5 OFFCURVE",
"64.667 680.167 OFFCURVE",
"52 674.5 CURVE SMOOTH",
"39.333 668.833 OFFCURVE",
"29.667 663.333 OFFCURVE",
"23 658 CURVE",
"46 602 LINE",
"52 606 OFFCURVE",
"60.167 610.667 OFFCURVE",
"70.5 616 CURVE SMOOTH",
"80.833 621.333 OFFCURVE",
"93 626.5 OFFCURVE",
"107 631.5 CURVE SMOOTH",
"121 636.5 OFFCURVE",
"136.667 640.667 OFFCURVE",
"154 644 CURVE SMOOTH",
"171.333 647.333 OFFCURVE",
"190 649 OFFCURVE",
"210 649 CURVE SMOOTH",
"231.333 649 OFFCURVE",
"251.667 646.833 OFFCURVE",
"271 642.5 CURVE SMOOTH",
"290.333 638.167 OFFCURVE",
"307.167 631.333 OFFCURVE",
"321.5 622 CURVE SMOOTH",
"335.833 612.667 OFFCURVE",
"347.167 600.667 OFFCURVE",
"355.5 586 CURVE SMOOTH",
"363.833 571.333 OFFCURVE",
"368 554 OFFCURVE",
"368 534 CURVE SMOOTH",
"368 502.667 OFFCURVE",
"360.333 478.5 OFFCURVE",
"345 461.5 CURVE SMOOTH",
"329.667 444.5 OFFCURVE",
"307.667 427.333 OFFCURVE",
"279 410 CURVE SMOOTH",
"254.333 394.667 OFFCURVE",
"233.167 381 OFFCURVE",
"215.5 369 CURVE SMOOTH",
"197.833 357 OFFCURVE",
"183.167 343.833 OFFCURVE",
"171.5 329.5 CURVE SMOOTH",
"159.833 315.167 OFFCURVE",
"151.333 298.167 OFFCURVE",
"146 278.5 CURVE SMOOTH",
"140.667 258.833 OFFCURVE",
"138 233.667 OFFCURVE",
"138 203 CURVE SMOOTH",
"138 0 LINE",
"206 0 LINE",
"206 200 LINE SMOOTH"
);
}
);
width = 473;
}
);
note = uni0241;
unicode = 0241;
},
{
glyphname = Gstroke;
lastChange = "2018-03-22 14:29:51 +0000";
layers = (
{
layerId = "ECA8ADC0-D5C0-4AFD-BCF0-9F577B806AFE";
paths = (
{
closed = 1;
nodes = (
"514 58.667 OFFCURVE",
"498.5 55.167 OFFCURVE",
"475.5 51.5 CURVE SMOOTH",
"452.5 47.833 OFFCURVE",
"424 46 OFFCURVE",
"390 46 CURVE SMOOTH",
"348 46 OFFCURVE",
"311 53 OFFCURVE",
"279 67 CURVE SMOOTH",
"247 81 OFFCURVE",
"220.167 101.167 OFFCURVE",
"198.5 127.5 CURVE SMOOTH",
"176.833 153.833 OFFCURVE",
"160.667 185.5 OFFCURVE",
"150 222.5 CURVE SMOOTH",
"139.333 259.5 OFFCURVE",
"134 301 OFFCURVE",
"134 347 CURVE SMOOTH",
"134 396.333 OFFCURVE",
"140.5 439.667 OFFCURVE",
"153.5 477 CURVE SMOOTH",
"166.5 514.333 OFFCURVE",
"184.333 545.667 OFFCURVE",
"207 571 CURVE SMOOTH",
"229.667 596.333 OFFCURVE",
"256.333 615.333 OFFCURVE",
"287 628 CURVE SMOOTH",
"317.667 640.667 OFFCURVE",
"350.333 647 OFFCURVE",
"385 647 CURVE SMOOTH",
"422.333 647 OFFCURVE",
"457 642.833 OFFCURVE",
"489 634.5 CURVE SMOOTH",
"521 626.167 OFFCURVE",
"546.333 615.333 OFFCURVE",
"565 602 CURVE",
"588 660 LINE",
"572.667 670 OFFCURVE",
"548.333 680.5 OFFCURVE",
"515 691.5 CURVE SMOOTH",
"481.667 702.5 OFFCURVE",
"439.333 708 OFFCURVE",
"388 708 CURVE SMOOTH",
"343.333 708 OFFCURVE",
"301.333 700 OFFCURVE",
"262 684 CURVE SMOOTH",
"222.667 668 OFFCURVE",
"188.167 644.833 OFFCURVE",
"158.5 614.5 CURVE SMOOTH",
"128.833 584.167 OFFCURVE",
"105.333 546.5 OFFCURVE",
"88 501.5 CURVE SMOOTH",
"70.667 456.5 OFFCURVE",
"62 405 OFFCURVE",
"62 347 CURVE SMOOTH",
"62 289 OFFCURVE",
"70 237.5 OFFCURVE",
"86 192.5 CURVE SMOOTH",
"102 147.5 OFFCURVE",
"124.167 109.833 OFFCURVE",
"152.5 79.5 CURVE SMOOTH",
"180.833 49.167 OFFCURVE",
"214.333 26 OFFCURVE",
"253 10 CURVE SMOOTH",
"291.667 -6 OFFCURVE",
"333.667 -14 OFFCURVE",
"379 -14 CURVE SMOOTH",
"433 -14 OFFCURVE",
"478.5 -9.833 OFFCURVE",
"515.5 -1.5 CURVE SMOOTH",
"552.5 6.833 OFFCURVE",
"577.333 13.667 OFFCURVE",
"590 19 CURVE",
"590 206 LINE",
"670 206 LINE",
"670 260 LINE",
"590 260 LINE",
"590 353 LINE",
"522 353 LINE",
"522 260 LINE",
"406 260 LINE",
"406 206 LINE",
"522 206 LINE",
"522 62 LINE"
);
}
);
width = 690;
}
);
leftKerningGroup = G;
note = uni01E4;
rightKerningGroup = G;
unicode = 01E4;
},
{
glyphname = Yogh;
lastChange = "2018-03-22 14:29:51 +0000";
layers = (
{
layerId = "ECA8ADC0-D5C0-4AFD-BCF0-9F577B806AFE";
paths = (
{
closed = 1;
nodes = (
"368 468 OFFCURVE",
"361.833 442.167 OFFCURVE",
"349.5 420.5 CURVE SMOOTH",
"337.167 398.833 OFFCURVE",
"321 381 OFFCURVE",
"301 367 CURVE SMOOTH",
"281 353 OFFCURVE",
"258.333 342.833 OFFCURVE",
"233 336.5 CURVE SMOOTH",
"207.667 330.167 OFFCURVE",
"182 327 OFFCURVE",
"156 327 CURVE SMOOTH",
"129 327 LINE",
"129 269 LINE",
"165 269 LINE SMOOTH",
"185.667 269 OFFCURVE",
"209.333 266.5 OFFCURVE",
"236 261.5 CURVE SMOOTH",
"262.667 256.5 OFFCURVE",
"288 247.333 OFFCURVE",
"312 234 CURVE SMOOTH",
"336 220.667 OFFCURVE",
"356.167 202.167 OFFCURVE",
"372.5 178.5 CURVE SMOOTH",
"388.833 154.833 OFFCURVE",
"397 124.333 OFFCURVE",
"397 87 CURVE SMOOTH",
"397 45 OFFCURVE",
"387.5 10.333 OFFCURVE",
"368.5 -17 CURVE SMOOTH",
"349.5 -44.333 OFFCURVE",
"325.167 -66.167 OFFCURVE",
"295.5 -82.5 CURVE SMOOTH",
"265.833 -98.833 OFFCURVE",
"232.667 -110.167 OFFCURVE",
"196 -116.5 CURVE SMOOTH",
"159.333 -122.833 OFFCURVE",
"123.333 -126 OFFCURVE",
"88 -126 CURVE SMOOTH",
"74.667 -126 OFFCURVE",
"63.167 -125.833 OFFCURVE",
"53.5 -125.5 CURVE SMOOTH",
"43.833 -125.167 OFFCURVE",
"37.333 -124.667 OFFCURVE",
"34 -124 CURVE",
"30 -182 LINE",
"35.333 -183.333 OFFCURVE",
"44 -184.167 OFFCURVE",
"56 -184.5 CURVE SMOOTH",
"68 -184.833 OFFCURVE",
"81 -185 OFFCURVE",
"95 -185 CURVE SMOOTH",
"141 -185 OFFCURVE",
"186.333 -180.333 OFFCURVE",
"231 -171 CURVE SMOOTH",
"275.667 -161.667 OFFCURVE",
"315.667 -146.333 OFFCURVE",
"351 -125 CURVE SMOOTH",
"386.333 -103.667 OFFCURVE",
"414.833 -75.333 OFFCURVE",
"436.5 -40 CURVE SMOOTH",
"458.167 -4.667 OFFCURVE",
"469 38.667 OFFCURVE",
"469 90 CURVE SMOOTH",
"469 143.333 OFFCURVE",
"453.167 189.167 OFFCURVE",
"421.5 227.5 CURVE SMOOTH",
"389.833 265.833 OFFCURVE",
"345.667 291.667 OFFCURVE",
"289 305 CURVE",
"313 312.333 OFFCURVE",
"334.333 322.667 OFFCURVE",
"353 336 CURVE SMOOTH",
"371.667 349.333 OFFCURVE",
"387.5 364.667 OFFCURVE",
"400.5 382 CURVE SMOOTH",
"413.5 399.333 OFFCURVE",
"423.333 418.167 OFFCURVE",
"430 438.5 CURVE SMOOTH",
"436.667 458.833 OFFCURVE",
"440 479.333 OFFCURVE",
"440 500 CURVE SMOOTH",
"440 534.667 OFFCURVE",
"434.333 565.167 OFFCURVE",
"423 591.5 CURVE SMOOTH",
"411.667 617.833 OFFCURVE",
"395.667 639.5 OFFCURVE",
"375 656.5 CURVE SMOOTH",
"354.333 673.5 OFFCURVE",
"329.833 686.333 OFFCURVE",
"301.5 695 CURVE SMOOTH",
"273.167 703.667 OFFCURVE",
"242 708 OFFCURVE",
"208 708 CURVE SMOOTH",
"187.333 708 OFFCURVE",
"167.5 706.5 OFFCURVE",
"148.5 703.5 CURVE SMOOTH",
"129.5 700.5 OFFCURVE",
"111.833 696.667 OFFCURVE",
"95.5 692 CURVE SMOOTH",
"79.167 687.333 OFFCURVE",
"64.5 682.167 OFFCURVE",
"51.5 676.5 CURVE SMOOTH",
"38.5 670.833 OFFCURVE",
"27.667 665 OFFCURVE",
"19 659 CURVE",
"43 602 LINE",
"62.333 615.333 OFFCURVE",
"86.5 626.667 OFFCURVE",
"115.5 636 CURVE SMOOTH",
"144.5 645.333 OFFCURVE",
"175.667 650 OFFCURVE",
"209 650 CURVE SMOOTH",
"261 650 OFFCURVE",
"300.5 636.5 OFFCURVE",
"327.5 609.5 CURVE SMOOTH",
"354.5 582.5 OFFCURVE",
"368 545.333 OFFCURVE",
"368 498 CURVE SMOOTH"
);
}
);
width = 524;
}
);
leftKerningGroup = Yogh;
note = uni021C;
rightKerningGroup = Yogh;
unicode = 021C;
},
{
glyphname = H;
lastChange = "2018-03-24 11:16:21 +0000";
layers = (
{
layerId = "ECA8ADC0-D5C0-4AFD-BCF0-9F577B806AFE";
paths = (
{
closed = 1;
nodes = (
"472 388 OFFCURVE",
"150 385 OFFCURVE",
"116 395 CURVE",
"107 409 OFFCURVE",
"119 665 OFFCURVE",
"112 685 CURVE",
"89 697 OFFCURVE",
"64 692 OFFCURVE",
"48 685 CURVE",
"37 656 OFFCURVE",
"39 23 OFFCURVE",
"48 9 CURVE",
"65 -3 OFFCURVE",
"98 -2 OFFCURVE",
"113 9 CURVE",
"117 82 OFFCURVE",
"105 309 OFFCURVE",
"116 330 CURVE",
"140 338 OFFCURVE",
"472 338 OFFCURVE",
"492 330 CURVE",
"500 314 OFFCURVE",
"486 90 OFFCURVE",
"495 9 CURVE",
"518 -1 OFFCURVE",
"545 -2 OFFCURVE",
"560 9 CURVE",
"568 94 OFFCURVE",
"569 665 OFFCURVE",
"560 685 CURVE",
"544 692 OFFCURVE",
"518 697 OFFCURVE",
"495 685 CURVE",
"486 656 OFFCURVE",
"500 416 OFFCURVE",
"492 395 CURVE"
);
}
);
width = 606;
}
);
leftKerningGroup = D;
unicode = 0048;
},
{
glyphname = Hbar;
lastChange = "2018-03-22 14:29:51 +0000";
layers = (
{
layerId = "ECA8ADC0-D5C0-4AFD-BCF0-9F577B806AFE";
paths = (
{
closed = 1;
nodes = (
"696 586 LINE",
"616 586 LINE",
"616 693 LINE",
"548 693 LINE",
"548 586 LINE",
"172 586 LINE",
"172 693 LINE",
"104 693 LINE",
"104 586 LINE",
"24 586 LINE",
"24 532 LINE",
"104 532 LINE",
"104 0 LINE",
"172 0 LINE",
"172 333 LINE",
"548 333 LINE",
"548 0 LINE",
"616 0 LINE",
"616 532 LINE",
"696 532 LINE"
);
},
{
closed = 1;
nodes = (
"172 392 LINE",
"172 532 LINE",
"548 532 LINE",
"548 392 LINE"
);
}
);
width = 720;
}
);
leftKerningGroup = D;
unicode = 0126;
},
{
glyphname = Hwair;
lastChange = "2018-03-22 14:29:51 +0000";
layers = (
{
layerId = "ECA8ADC0-D5C0-4AFD-BCF0-9F577B806AFE";
paths = (
{
closed = 1;
nodes = (
"899 183.667 OFFCURVE",
"887.5 130.333 OFFCURVE",
"864.5 97 CURVE SMOOTH",
"841.5 63.667 OFFCURVE",
"802.667 47 OFFCURVE",
"748 47 CURVE SMOOTH",
"693.333 47 OFFCURVE",
"654.5 63.667 OFFCURVE",
"631.5 97 CURVE SMOOTH",
"608.5 130.333 OFFCURVE",
"597 183.667 OFFCURVE",
"597 257 CURVE SMOOTH",
"597 693 LINE",
"529 693 LINE",
"529 392 LINE",
"158 392 LINE",
"158 693 LINE",
"90 693 LINE",
"90 0 LINE",
"158 0 LINE",
"158 333 LINE",
"529 333 LINE",
"529 241 LINE SMOOTH",
"529 204.333 OFFCURVE",
"532.333 170.5 OFFCURVE",
"539 139.5 CURVE SMOOTH",
"545.667 108.5 OFFCURVE",
"557.333 81.667 OFFCURVE",
"574 59 CURVE SMOOTH",
"590.667 36.333 OFFCURVE",
"613 18.5 OFFCURVE",
"641 5.5 CURVE SMOOTH",
"669 -7.5 OFFCURVE",
"704.667 -14 OFFCURVE",
"748 -14 CURVE SMOOTH",
"790.667 -14 OFFCURVE",
"826.167 -7.5 OFFCURVE",
"854.5 5.5 CURVE SMOOTH",
"882.833 18.5 OFFCURVE",
"905.333 36.333 OFFCURVE",
"922 59 CURVE SMOOTH",
"938.667 81.667 OFFCURVE",
"950.333 108.5 OFFCURVE",
"957 139.5 CURVE SMOOTH",
"963.667 170.5 OFFCURVE",
"967 204.333 OFFCURVE",
"967 241 CURVE SMOOTH",
"967 513 LINE",
"899 513 LINE",
"899 257 LINE SMOOTH"
);
}
);
width = 1047;
}
);
note = uni01F6;
unicode = 01F6;
},
{
glyphname = I;
lastChange = "2018-03-24 16:47:10 +0000";
layers = (
{
layerId = "ECA8ADC0-D5C0-4AFD-BCF0-9F577B806AFE";
paths = (
{
closed = 1;
nodes = (
"46 -2 OFFCURVE",
"257 -2 OFFCURVE",
"278 4 CURVE",
"283 14 OFFCURVE",
"289 41 OFFCURVE",
"278 55 CURVE",
"265 61 OFFCURVE",
"209 50 OFFCURVE",
"194 63 CURVE",
"189 99 OFFCURVE",
"186 592 OFFCURVE",
"194 630 CURVE",
"210 636 OFFCURVE",
"257 631 OFFCURVE",
"279 634 CURVE",
"287 651 OFFCURVE",
"288 668 OFFCURVE",
"279 687 CURVE",
"255 695 OFFCURVE",
"52 693 OFFCURVE",
"37 687 CURVE",
"29 672 OFFCURVE",
"31 647 OFFCURVE",
"37 634 CURVE",
"56 631 OFFCURVE",
"91 636 OFFCURVE",
"120 630 CURVE",
"128 604 OFFCURVE",
"127 99 OFFCURVE",
"120 63 CURVE",
"105 56 OFFCURVE",
"58 61 OFFCURVE",
"36 55 CURVE",
"27 36 OFFCURVE",
"29 23 OFFCURVE",
"36 4 CURVE"
);
}
);
width = 315;
}
);
leftKerningGroup = D;
unicode = 0049;
},
{
glyphname = Iogonek;
lastChange = "2018-03-22 14:29:51 +0000";
layers = (
{
layerId = "ECA8ADC0-D5C0-4AFD-BCF0-9F577B806AFE";
paths = (
{
closed = 1;
nodes = (
"90 693 LINE",
"90 0 LINE",
"86.667 -2.667 OFFCURVE",
"83.167 -5.333 OFFCURVE",
"79.5 -8 CURVE SMOOTH",
"75.833 -10.667 OFFCURVE",
"72.333 -13.667 OFFCURVE",
"69 -17 CURVE",
"54.333 -30.333 OFFCURVE",
"41.667 -45 OFFCURVE",
"31 -61 CURVE SMOOTH",
"20.333 -77 OFFCURVE",
"15 -95.333 OFFCURVE",
"15 -116 CURVE SMOOTH",
"15 -136.667 OFFCURVE",
"22.333 -153.5 OFFCURVE",
"37 -166.5 CURVE SMOOTH",
"51.667 -179.5 OFFCURVE",
"77 -186 OFFCURVE",
"113 -186 CURVE SMOOTH",
"123 -186 OFFCURVE",
"133.167 -185 OFFCURVE",
"143.5 -183 CURVE SMOOTH",
"153.833 -181 OFFCURVE",
"161.667 -179 OFFCURVE",
"167 -177 CURVE",
"162 -129 LINE",
"156.667 -131 OFFCURVE",
"150.5 -132.5 OFFCURVE",
"143.5 -133.5 CURVE SMOOTH",
"136.5 -134.5 OFFCURVE",
"130 -135 OFFCURVE",
"124 -135 CURVE SMOOTH",
"112 -135 OFFCURVE",
"102 -132.333 OFFCURVE",
"94 -127 CURVE SMOOTH",
"86 -121.667 OFFCURVE",
"82 -113 OFFCURVE",
"82 -101 CURVE SMOOTH",
"82 -89.667 OFFCURVE",
"85 -79.167 OFFCURVE",
"91 -69.5 CURVE SMOOTH",
"97 -59.833 OFFCURVE",
"105.333 -49.333 OFFCURVE",
"116 -38 CURVE SMOOTH",
"123.333 -30 OFFCURVE",
"130.5 -23 OFFCURVE",
"137.5 -17 CURVE SMOOTH",
"144.5 -11 OFFCURVE",
"151.333 -5.333 OFFCURVE",
"158 0 CURVE",
"158 693 LINE"
);
}
);
width = 248;
}
);
leftKerningGroup = D;
unicode = 012E;
},
{
glyphname = "Iota-latin";
lastChange = "2018-03-22 14:29:51 +0000";
layers = (
{
layerId = "ECA8ADC0-D5C0-4AFD-BCF0-9F577B806AFE";
paths = (
{
closed = 1;
nodes = (
"88 132.667 OFFCURVE",
"91.5 103.333 OFFCURVE",
"98.5 80 CURVE SMOOTH",
"105.5 56.667 OFFCURVE",
"115.667 38 OFFCURVE",
"129 24 CURVE SMOOTH",
"142.333 10 OFFCURVE",
"158.667 0 OFFCURVE",
"178 -6 CURVE SMOOTH",
"197.333 -12 OFFCURVE",
"219.667 -15 OFFCURVE",
"245 -15 CURVE SMOOTH",
"268.333 -15 OFFCURVE",
"289.833 -12.333 OFFCURVE",
"309.5 -7 CURVE SMOOTH",
"329.167 -1.667 OFFCURVE",
"342.333 2.667 OFFCURVE",
"349 6 CURVE",
"333 62 LINE",
"327 58.667 OFFCURVE",
"316.833 55.167 OFFCURVE",
"302.5 51.5 CURVE SMOOTH",
"288.167 47.833 OFFCURVE",
"272.333 46 OFFCURVE",
"255 46 CURVE SMOOTH",
"239.667 46 OFFCURVE",
"225.833 47.5 OFFCURVE",
"213.5 50.5 CURVE SMOOTH",
"201.167 53.5 OFFCURVE",
"190.833 59.333 OFFCURVE",
"182.5 68 CURVE SMOOTH",
"174.167 76.667 OFFCURVE",
"167.667 88.833 OFFCURVE",
"163 104.5 CURVE SMOOTH",
"158.333 120.167 OFFCURVE",
"156 140.333 OFFCURVE",
"156 165 CURVE SMOOTH",
"156 693 LINE",
"88 693 LINE",
"88 168 LINE SMOOTH"
);
}
);
width = 362;
}
);
note = uni0196;
rightKerningGroup = "Iota-latin";
unicode = 0196;
},
{
glyphname = Istroke;
lastChange = "2018-03-22 14:29:51 +0000";
layers = (
{
layerId = "ECA8ADC0-D5C0-4AFD-BCF0-9F577B806AFE";
paths = (
{
closed = 1;
nodes = (
"188 334 LINE",
"284 334 LINE",
"284 388 LINE",
"188 388 LINE",
"188 693 LINE",
"120 693 LINE",
"120 388 LINE",
"24 388 LINE",
"24 334 LINE",
"120 334 LINE",
"120 0 LINE",
"188 0 LINE"
);
}
);
width = 308;
}
);
note = uni0197;
unicode = 0197;
},
{
glyphname = J;
lastChange = "2018-03-24 16:54:34 +0000";
layers = (
{
layerId = "ECA8ADC0-D5C0-4AFD-BCF0-9F577B806AFE";
paths = (
{
closed = 1;
nodes = (
"26 45 OFFCURVE",
"53 30 OFFCURVE",
"74 22 CURVE SMOOTH",
"110 8 OFFCURVE",
"154 0 OFFCURVE",
"193 0 CURVE SMOOTH",
"258 0 OFFCURVE",
"321 16 OFFCURVE",
"360 67 CURVE SMOOTH",
"393 110 OFFCURVE",
"404 170 OFFCURVE",
"404 233 CURVE SMOOTH",
"404 391 OFFCURVE",
"412 652 OFFCURVE",
"401 684 CURVE",
"373 694 OFFCURVE",
"164 695 OFFCURVE",
"135 684 CURVE",
"125 665 OFFCURVE",
"124 647 OFFCURVE",
"135 633 CURVE",
"159 620 OFFCURVE",
"310 636 OFFCURVE",
"332 622 CURVE",
"342 604 OFFCURVE",
"336 377 OFFCURVE",
"336 240 CURVE SMOOTH",
"336 175 OFFCURVE",
"324 129 OFFCURVE",
"300 102 CURVE SMOOTH",
"275 74 OFFCURVE",
"237 61 OFFCURVE",
"186 61 CURVE SMOOTH",
"157 61 OFFCURVE",
"124 69 OFFCURVE",
"98 79 CURVE SMOOTH",
"85 84 OFFCURVE",
"60 99 OFFCURVE",
"44 114 CURVE",
"23 124 OFFCURVE",
"5 73 OFFCURVE",
"12 59 CURVE"
);
}
);
width = 447;
}
);
leftKerningGroup = J;
rightKerningGroup = J;
unicode = 004A;
},
{
glyphname = Jstroke;
lastChange = "2018-03-22 14:29:51 +0000";
layers = (
{
layerId = "ECA8ADC0-D5C0-4AFD-BCF0-9F577B806AFE";
paths = (
{
closed = 1;
nodes = (
"332 693 LINE",
"332 388 LINE",
"183 388 LINE",
"183 334 LINE",
"332 334 LINE",
"332 225 LINE SMOOTH",
"332 159.667 OFFCURVE",
"319.833 113.5 OFFCURVE",
"295.5 86.5 CURVE SMOOTH",
"271.167 59.5 OFFCURVE",
"233.333 46 OFFCURVE",
"182 46 CURVE SMOOTH",
"164.667 46 OFFCURVE",
"148.667 47.667 OFFCURVE",
"134 51 CURVE SMOOTH",
"119.333 54.333 OFFCURVE",
"106 58.667 OFFCURVE",
"94 64 CURVE SMOOTH",
"82 69.333 OFFCURVE",
"71.5 75.167 OFFCURVE",
"62.5 81.5 CURVE SMOOTH",
"53.5 87.833 OFFCURVE",
"46 93.667 OFFCURVE",
"40 99 CURVE",
"8 44 LINE",
"13.333 38.667 OFFCURVE",
"21.167 32.667 OFFCURVE",
"31.5 26 CURVE SMOOTH",
"41.833 19.333 OFFCURVE",
"54.667 13 OFFCURVE",
"70 7 CURVE SMOOTH",
"85.333 1 OFFCURVE",
"103 -4.167 OFFCURVE",
"123 -8.5 CURVE SMOOTH",
"143 -12.833 OFFCURVE",
"165 -15 OFFCURVE",
"189 -15 CURVE SMOOTH",
"229.667 -15 OFFCURVE",
"263.5 -9.167 OFFCURVE",
"290.5 2.5 CURVE SMOOTH",
"317.5 14.167 OFFCURVE",
"339.167 30.5 OFFCURVE",
"355.5 51.5 CURVE SMOOTH",
"371.833 72.5 OFFCURVE",
"383.333 97.167 OFFCURVE",
"390 125.5 CURVE SMOOTH",
"396.667 153.833 OFFCURVE",
"400 184.667 OFFCURVE",
"400 218 CURVE SMOOTH",
"400 334 LINE",
"480 334 LINE",
"480 388 LINE",
"400 388 LINE",
"400 693 LINE"
);
}
);
width = 504;
}
);
note = uni0248;
unicode = 0248;
},
{
glyphname = K;
lastChange = "2018-03-24 16:58:47 +0000";
layers = (
{
layerId = "ECA8ADC0-D5C0-4AFD-BCF0-9F577B806AFE";
paths = (
{
closed = 1;
nodes = (
"514 13 OFFCURVE",
"446 101 OFFCURVE",
"423 129 CURVE SMOOTH",
"403 152 OFFCURVE",
"382 176 OFFCURVE",
"360 199 CURVE",
"337 222 OFFCURVE",
"315 244 OFFCURVE",
"292 265 CURVE SMOOTH",
"269 286 OFFCURVE",
"246 305 OFFCURVE",
"224 323 CURVE SMOOTH",
"201 340 OFFCURVE",
"180 355 OFFCURVE",
"161 367 CURVE",
"185 389 OFFCURVE",
"212 415 OFFCURVE",
"243 444 CURVE SMOOTH",
"288 487 OFFCURVE",
"372 565 OFFCURVE",
"406 600 CURVE SMOOTH",
"433 628 OFFCURVE",
"472 661 OFFCURVE",
"491 682 CURVE",
"490 696 OFFCURVE",
"428 693 OFFCURVE",
"409 682 CURVE",
"383 652 OFFCURVE",
"308 586 OFFCURVE",
"260 538 CURVE SMOOTH",
"217 496 OFFCURVE",
"152 444 OFFCURVE",
"115 411 CURVE",
"106 439 OFFCURVE",
"121 638 OFFCURVE",
"108 682 CURVE",
"91 700 OFFCURVE",
"74 699 OFFCURVE",
"51 682 CURVE",
"38 652 OFFCURVE",
"37 53 OFFCURVE",
"48 12 CURVE",
"71 -1 OFFCURVE",
"83 -6 OFFCURVE",
"106 12 CURVE",
"119 64 OFFCURVE",
"107 280 OFFCURVE",
"115 325 CURVE",
"176 291 OFFCURVE",
"217 252 OFFCURVE",
"272 199 CURVE SMOOTH",
"303 169 OFFCURVE",
"333 137 OFFCURVE",
"362 103 CURVE SMOOTH",
"390 69 OFFCURVE",
"415 47 OFFCURVE",
"438 12 CURVE",
"453 -3 OFFCURVE",
"514 -6 OFFCURVE",
"514 12 CURVE"
);
}
);
width = 524;
}
);
leftKerningGroup = K;
rightKerningGroup = K;
unicode = 004B;
},
{
glyphname = Khook;
lastChange = "2018-03-22 14:29:51 +0000";
layers = (
{
layerId = "ECA8ADC0-D5C0-4AFD-BCF0-9F577B806AFE";
paths = (
{
closed = 1;
nodes = (
"158 693 LINE",
"90 693 LINE",
"90 0 LINE",
"158 0 LINE",
"158 343 LINE",
"188 326.333 OFFCURVE",
"219.167 305.667 OFFCURVE",
"251.5 281 CURVE SMOOTH",
"283.833 256.333 OFFCURVE",
"315.667 229 OFFCURVE",
"347 199 CURVE SMOOTH",
"378.333 169 OFFCURVE",
"408.167 137 OFFCURVE",
"436.5 103 CURVE SMOOTH",
"464.833 69 OFFCURVE",
"490.333 34.667 OFFCURVE",
"513 0 CURVE",
"589 0 LINE",
"574.333 28 OFFCURVE",
"553.167 59.5 OFFCURVE",
"525.5 94.5 CURVE SMOOTH",
"497.833 129.5 OFFCURVE",
"467.333 164.333 OFFCURVE",
"434 199 CURVE SMOOTH",
"400.667 233.667 OFFCURVE",
"366.333 266.167 OFFCURVE",
"331 296.5 CURVE SMOOTH",
"295.667 326.833 OFFCURVE",
"263 351 OFFCURVE",
"233 369 CURVE",
"263 405 OFFCURVE",
"294.5 442 OFFCURVE",
"327.5 480 CURVE SMOOTH",
"360.5 518 OFFCURVE",
"398.667 559 OFFCURVE",
"442 603 CURVE SMOOTH",
"459.333 620.333 OFFCURVE",
"474.333 632.333 OFFCURVE",
"487 639 CURVE SMOOTH",
"499.667 645.667 OFFCURVE",
"512.667 649 OFFCURVE",
"526 649 CURVE SMOOTH",
"541.333 649 OFFCURVE",
"554.667 645.333 OFFCURVE",
"566 638 CURVE SMOOTH",
"577.333 630.667 OFFCURVE",
"586.667 623 OFFCURVE",
"594 615 CURVE",
"628 661 LINE",
"620 669.667 OFFCURVE",
"608 679.5 OFFCURVE",
"592 690.5 CURVE SMOOTH",
"576 701.5 OFFCURVE",
"554.333 707 OFFCURVE",
"527 707 CURVE SMOOTH",
"499 707 OFFCURVE",
"475.167 700.667 OFFCURVE",
"455.5 688 CURVE SMOOTH",
"435.833 675.333 OFFCURVE",
"417 659.333 OFFCURVE",
"399 640 CURVE SMOOTH",
"379 618.667 OFFCURVE",
"358 595.667 OFFCURVE",
"336 571 CURVE SMOOTH",
"314 546.333 OFFCURVE",
"292.167 521.833 OFFCURVE",
"270.5 497.5 CURVE SMOOTH",
"248.833 473.167 OFFCURVE",
"228.333 449.333 OFFCURVE",
"209 426 CURVE SMOOTH",
"189.667 402.667 OFFCURVE",
"172.667 382 OFFCURVE",
"158 364 CURVE"
);
}
);
width = 650;
}
);
leftKerningGroup = K;
note = uni0198;
rightKerningGroup = K;
unicode = 0198;
},
{
glyphname = L;
lastChange = "2018-03-24 17:01:14 +0000";
layers = (
{
layerId = "ECA8ADC0-D5C0-4AFD-BCF0-9F577B806AFE";
paths = (
{
closed = 1;
nodes = (
"104 83 OFFCURVE",
"115 659 OFFCURVE",
"107 684 CURVE",
"92 696 OFFCURVE",
"65 697 OFFCURVE",
"49 684 CURVE",
"40 652 OFFCURVE",
"36 32 OFFCURVE",
"45 5 CURVE",
"86 -3 OFFCURVE",
"425 -1 OFFCURVE",
"439 5 CURVE",
"445 25 OFFCURVE",
"448 38 OFFCURVE",
"439 58 CURVE",
"407 64 OFFCURVE",
"131 52 OFFCURVE",
"113 65 CURVE"
);
}
);
width = 455;
}
);
leftKerningGroup = L;
rightKerningGroup = L;
unicode = 004C;
},
{
glyphname = Lbar;
lastChange = "2018-03-22 14:29:51 +0000";
layers = (
{
layerId = "ECA8ADC0-D5C0-4AFD-BCF0-9F577B806AFE";
paths = (
{
closed = 1;
nodes = (
"172 334 LINE",
"335 334 LINE",
"335 388 LINE",
"172 388 LINE",
"172 693 LINE",
"104 693 LINE",
"104 388 LINE",
"24 388 LINE",
"24 334 LINE",
"104 334 LINE",
"104 0 LINE",
"498 0 LINE",
"498 59 LINE",
"172 59 LINE"
);
}
);
width = 516;
}
);
note = uni023D;
rightKerningGroup = Lbar;
unicode = 023D;
},
{
glyphname = Lslash;
lastChange = "2018-03-22 14:29:51 +0000";
layers = (
{
layerId = "ECA8ADC0-D5C0-4AFD-BCF0-9F577B806AFE";
paths = (
{
closed = 1;
nodes = (
"172 693 LINE",
"104 693 LINE",
"104 356 LINE",
"1 303 LINE",
"26 255 LINE",
"104 295 LINE",
"104 0 LINE",
"498 0 LINE",
"498 59 LINE",
"172 59 LINE",
"172 330 LINE",
"308 401 LINE",
"285 449 LINE",
"172 391 LINE"
);
}
);
width = 516;
}
);
leftKerningGroup = L;
rightKerningGroup = L;
unicode = 0141;
},
{
glyphname = M;
lastChange = "2018-03-24 17:27:07 +0000";
layers = (
{
layerId = "ECA8ADC0-D5C0-4AFD-BCF0-9F577B806AFE";
paths = (
{
closed = 1;
nodes = (
"70 -3 OFFCURVE",
"81 -3 OFFCURVE",
"103 11 CURVE",
"116 54 OFFCURVE",
"90 561 OFFCURVE",
"115 576 CURVE",
"127 569 OFFCURVE",
"339 264 OFFCURVE",
"374 253 CURVE",
"411 260 OFFCURVE",
"604 556 OFFCURVE",
"632 574 CURVE",
"657 559 OFFCURVE",
"631 54 OFFCURVE",
"644 11 CURVE",
"666 -3 OFFCURVE",
"677 -3 OFFCURVE",
"699 11 CURVE",
"711 59 OFFCURVE",
"707 647 OFFCURVE",
"699 685 CURVE",
"681 695 OFFCURVE",
"663 695 OFFCURVE",
"645 685 CURVE",
"585 642 OFFCURVE",
"406 359 OFFCURVE",
"373 345 CURVE",
"341 359 OFFCURVE",
"160 650 OFFCURVE",
"102 685 CURVE",
"84 695 OFFCURVE",
"66 695 OFFCURVE",
"48 685 CURVE",
"40 647 OFFCURVE",
"36 59 OFFCURVE",
"48 11 CURVE"
);
}
);
width = 747;
}
);
unicode = 004D;
},
{
glyphname = Mturned;
lastChange = "2018-03-22 14:29:51 +0000";
layers = (
{
layerId = "ECA8ADC0-D5C0-4AFD-BCF0-9F577B806AFE";
paths = (
{
closed = 1;
nodes = (
"712.667 -15 OFFCURVE",
"754.333 -11 OFFCURVE",
"791 -3 CURVE SMOOTH",
"827.667 5 OFFCURVE",
"855.667 12.333 OFFCURVE",
"875 19 CURVE",
"875 693 LINE",
"807 693 LINE",
"807 64 LINE",
"802.333 62 OFFCURVE",
"795.333 60 OFFCURVE",
"786 58 CURVE SMOOTH",
"776.667 56 OFFCURVE",
"765.667 54 OFFCURVE",
"753 52 CURVE SMOOTH",
"740.333 50 OFFCURVE",
"726.833 48.333 OFFCURVE",
"712.5 47 CURVE SMOOTH",
"698.167 45.667 OFFCURVE",
"683.667 45 OFFCURVE",
"669 45 CURVE SMOOTH",
"638.333 45 OFFCURVE",
"613 49.5 OFFCURVE",
"593 58.5 CURVE SMOOTH",
"573 67.5 OFFCURVE",
"557.333 81.333 OFFCURVE",
"546 100 CURVE SMOOTH",
"534.667 118.667 OFFCURVE",
"526.667 142.167 OFFCURVE",
"522 170.5 CURVE SMOOTH",
"517.333 198.833 OFFCURVE",
"515 232.333 OFFCURVE",
"515 271 CURVE SMOOTH",
"515 693 LINE",
"447 693 LINE",
"447 258 LINE SMOOTH",
"447 230 OFFCURVE",
"448.333 203.333 OFFCURVE",
"451 178 CURVE SMOOTH",
"453.667 152.667 OFFCURVE",
"458.667 129.333 OFFCURVE",
"466 108 CURVE",
"460.667 102.667 OFFCURVE",
"453.167 96.333 OFFCURVE",
"443.5 89 CURVE SMOOTH",
"433.833 81.667 OFFCURVE",
"422.5 74.667 OFFCURVE",
"409.5 68 CURVE SMOOTH",
"396.5 61.333 OFFCURVE",
"381.667 55.833 OFFCURVE",
"365 51.5 CURVE SMOOTH",
"348.333 47.167 OFFCURVE",
"330 45 OFFCURVE",
"310 45 CURVE SMOOTH",
"278 45 OFFCURVE",
"252 49.5 OFFCURVE",
"232 58.5 CURVE SMOOTH",
"212 67.5 OFFCURVE",
"196.333 81.833 OFFCURVE",
"185 101.5 CURVE SMOOTH",
"173.667 121.167 OFFCURVE",
"165.833 146 OFFCURVE",
"161.5 176 CURVE SMOOTH",
"157.167 206 OFFCURVE",
"155 242 OFFCURVE",
"155 284 CURVE SMOOTH",
"155 693 LINE",
"87 693 LINE",
"87 254 LINE SMOOTH",
"87 214 OFFCURVE",
"90.167 177.5 OFFCURVE",
"96.5 144.5 CURVE SMOOTH",
"102.833 111.5 OFFCURVE",
"114 83.167 OFFCURVE",
"130 59.5 CURVE SMOOTH",
"146 35.833 OFFCURVE",
"168 17.5 OFFCURVE",
"196 4.5 CURVE SMOOTH",
"224 -8.5 OFFCURVE",
"260 -15 OFFCURVE",
"304 -15 CURVE SMOOTH",
"328 -15 OFFCURVE",
"350.167 -12.333 OFFCURVE",
"370.5 -7 CURVE SMOOTH",
"390.833 -1.667 OFFCURVE",
"409 4.833 OFFCURVE",
"425 12.5 CURVE SMOOTH",
"441 20.167 OFFCURVE",
"454.833 28.167 OFFCURVE",
"466.5 36.5 CURVE SMOOTH",
"478.167 44.833 OFFCURVE",
"487.333 51.667 OFFCURVE",
"494 57 CURVE",
"532 9 OFFCURVE",
"589.333 -15 OFFCURVE",
"666 -15 CURVE SMOOTH"
);
}
);
width = 965;
}
);
leftKerningGroup = Mturned;
note = uni019C;
unicode = 019C;
},
{
glyphname = N;
lastChange = "2018-03-24 17:24:37 +0000";
layers = (
{
layerId = "ECA8ADC0-D5C0-4AFD-BCF0-9F577B806AFE";
paths = (
{
closed = 1;
nodes = (
"583 62 OFFCURVE",
"588 627 OFFCURVE",
"579 684 CURVE",
"557 696 OFFCURVE",
"543 696 OFFCURVE",
"521 684 CURVE",
"511 651 OFFCURVE",
"520 166 OFFCURVE",
"510 141 CURVE",
"473 186 OFFCURVE",
"167 627 OFFCURVE",
"102 684 CURVE",
"84 694 OFFCURVE",
"66 694 OFFCURVE",
"48 684 CURVE",
"40 646 OFFCURVE",
"36 58 OFFCURVE",
"48 10 CURVE",
"70 -4 OFFCURVE",
"81 -4 OFFCURVE",
"103 10 CURVE",
"116 53 OFFCURVE",
"90 560 OFFCURVE",
"115 575 CURVE",
"140 560 OFFCURVE",
"441 125 OFFCURVE",
"523 10 CURVE",
"542 -4 OFFCURVE",
"558 -4 OFFCURVE",
"577 10 CURVE"
);
}
);
width = 624;
}
);
leftKerningGroup = D;
unicode = 004E;
},
{
glyphname = Eng;
lastChange = "2018-03-22 14:29:51 +0000";
layers = (
{
layerId = "ECA8ADC0-D5C0-4AFD-BCF0-9F577B806AFE";
paths = (
{
closed = 1;
nodes = (
"552 -69 OFFCURVE",
"546.833 -92.5 OFFCURVE",
"536.5 -107.5 CURVE SMOOTH",
"526.167 -122.5 OFFCURVE",
"508.333 -130 OFFCURVE",
"483 -130 CURVE SMOOTH",
"475 -130 OFFCURVE",
"467.667 -129.333 OFFCURVE",
"461 -128 CURVE SMOOTH",
"454.333 -126.667 OFFCURVE",
"449.333 -125.333 OFFCURVE",
"446 -124 CURVE",
"437 -178 LINE",
"442.333 -180 OFFCURVE",
"450.167 -182 OFFCURVE",
"460.5 -184 CURVE SMOOTH",
"470.833 -186 OFFCURVE",
"481.667 -187 OFFCURVE",
"493 -187 CURVE SMOOTH",
"521 -187 OFFCURVE",
"543.167 -182.833 OFFCURVE",
"559.5 -174.5 CURVE SMOOTH",
"575.833 -166.167 OFFCURVE",
"588.5 -154.833 OFFCURVE",
"597.5 -140.5 CURVE SMOOTH",
"606.5 -126.167 OFFCURVE",
"612.333 -109.167 OFFCURVE",
"615 -89.5 CURVE SMOOTH",
"617.667 -69.833 OFFCURVE",
"619 -48.667 OFFCURVE",
"619 -26 CURVE SMOOTH",
"619 693 LINE",
"552 693 LINE",
"552 129 LINE",
"531.333 165.667 OFFCURVE",
"504.833 208.667 OFFCURVE",
"472.5 258 CURVE SMOOTH",
"440.167 307.333 OFFCURVE",
"405.333 357.833 OFFCURVE",
"368 409.5 CURVE SMOOTH",
"330.667 461.167 OFFCURVE",
"292.5 511.833 OFFCURVE",
"253.5 561.5 CURVE SMOOTH",
"214.5 611.167 OFFCURVE",
"178 655 OFFCURVE",
"144 693 CURVE",
"90 693 LINE",
"90 0 LINE",
"157 0 LINE",
"157 584 LINE",
"175.667 562 OFFCURVE",
"196.5 536.167 OFFCURVE",
"219.5 506.5 CURVE SMOOTH",
"242.5 476.833 OFFCURVE",
"266.333 445 OFFCURVE",
"291 411 CURVE SMOOTH",
"315.667 377 OFFCURVE",
"340.5 342 OFFCURVE",
"365.5 306 CURVE SMOOTH",
"390.5 270 OFFCURVE",
"414.5 234.667 OFFCURVE",
"437.5 200 CURVE SMOOTH",
"460.5 165.333 OFFCURVE",
"481.833 132.333 OFFCURVE",
"501.5 101 CURVE SMOOTH",
"521.167 69.667 OFFCURVE",
"538 41.667 OFFCURVE",
"552 17 CURVE",
"552 -37 LINE SMOOTH"
);
}
);
width = 709;
}
);
rightKerningGroup = Eng;
unicode = 014A;
},
{
glyphname = Nhookleft;
lastChange = "2018-03-22 14:29:51 +0000";
layers = (
{
layerId = "ECA8ADC0-D5C0-4AFD-BCF0-9F577B806AFE";
paths = (
{
closed = 1;
nodes = (
"176.333 561.333 OFFCURVE",
"198.167 534.333 OFFCURVE",
"222.5 503 CURVE SMOOTH",
"246.833 471.667 OFFCURVE",
"271.833 438.167 OFFCURVE",
"297.5 402.5 CURVE SMOOTH",
"323.167 366.833 OFFCURVE",
"349 330.167 OFFCURVE",
"375 292.5 CURVE SMOOTH",
"401 254.833 OFFCURVE",
"425.667 218.167 OFFCURVE",
"449 182.5 CURVE SMOOTH",
"472.333 146.833 OFFCURVE",
"493.833 113.333 OFFCURVE",
"513.5 82 CURVE SMOOTH",
"533.167 50.667 OFFCURVE",
"549.333 23.333 OFFCURVE",
"562 0 CURVE",
"619 0 LINE",
"619 693 LINE",
"552 693 LINE",
"552 129 LINE",
"531.333 165.667 OFFCURVE",
"504.833 208.667 OFFCURVE",
"472.5 258 CURVE SMOOTH",
"440.167 307.333 OFFCURVE",
"405.333 357.833 OFFCURVE",
"368 409.5 CURVE SMOOTH",
"330.667 461.167 OFFCURVE",
"292.5 511.833 OFFCURVE",
"253.5 561.5 CURVE SMOOTH",
"214.5 611.167 OFFCURVE",
"178 655 OFFCURVE",
"144 693 CURVE",
"90 693 LINE",
"90 -37 LINE SMOOTH",
"90 -69 OFFCURVE",
"84.833 -92.5 OFFCURVE",
"74.5 -107.5 CURVE SMOOTH",
"64.167 -122.5 OFFCURVE",
"46.333 -130 OFFCURVE",
"21 -130 CURVE SMOOTH",
"13 -130 OFFCURVE",
"5.667 -129.333 OFFCURVE",
"-1 -128 CURVE SMOOTH",
"-7.667 -126.667 OFFCURVE",
"-12.667 -125.333 OFFCURVE",
"-16 -124 CURVE",
"-25 -178 LINE",
"-19.667 -180 OFFCURVE",
"-11.833 -182 OFFCURVE",
"-1.5 -184 CURVE SMOOTH",
"8.833 -186 OFFCURVE",
"19.667 -187 OFFCURVE",
"31 -187 CURVE SMOOTH",
"59 -187 OFFCURVE",
"81.167 -182.833 OFFCURVE",
"97.5 -174.5 CURVE SMOOTH",
"113.833 -166.167 OFFCURVE",
"126.5 -154.833 OFFCURVE",
"135.5 -140.5 CURVE SMOOTH",
"144.5 -126.167 OFFCURVE",
"150.333 -109.167 OFFCURVE",
"153 -89.5 CURVE SMOOTH",
"155.667 -69.833 OFFCURVE",
"157 -48.667 OFFCURVE",
"157 -26 CURVE SMOOTH",
"157 584 LINE"
);
}
);
width = 709;
}
);
note = uni019D;
unicode = 019D;
},
{
glyphname = Nlongrightleg;
lastChange = "2018-03-22 14:29:51 +0000";
layers = (
{
layerId = "ECA8ADC0-D5C0-4AFD-BCF0-9F577B806AFE";
paths = (
{
closed = 1;
nodes = (
"577 476.667 OFFCURVE",
"573 512.5 OFFCURVE",
"565 545.5 CURVE SMOOTH",
"557 578.5 OFFCURVE",
"543.5 607 OFFCURVE",
"524.5 631 CURVE SMOOTH",
"505.5 655 OFFCURVE",
"480.333 673.667 OFFCURVE",
"449 687 CURVE SMOOTH",
"417.667 700.333 OFFCURVE",
"379 707 OFFCURVE",
"333 707 CURVE SMOOTH",
"307.667 707 OFFCURVE",
"283 705.833 OFFCURVE",
"259 703.5 CURVE SMOOTH",
"235 701.167 OFFCURVE",
"212.5 698.333 OFFCURVE",
"191.5 695 CURVE SMOOTH",
"170.5 691.667 OFFCURVE",
"151.333 687.833 OFFCURVE",
"134 683.5 CURVE SMOOTH",
"116.667 679.167 OFFCURVE",
"102 675 OFFCURVE",
"90 671 CURVE",
"90 0 LINE",
"158 0 LINE",
"158 626 LINE",
"175.333 631.333 OFFCURVE",
"198 636.167 OFFCURVE",
"226 640.5 CURVE SMOOTH",
"254 644.833 OFFCURVE",
"286 647 OFFCURVE",
"322 647 CURVE SMOOTH",
"356.667 647 OFFCURVE",
"386 642.167 OFFCURVE",
"410 632.5 CURVE SMOOTH",
"434 622.833 OFFCURVE",
"453.333 608.333 OFFCURVE",
"468 589 CURVE SMOOTH",
"482.667 569.667 OFFCURVE",
"493.167 545.5 OFFCURVE",
"499.5 516.5 CURVE SMOOTH",
"505.833 487.5 OFFCURVE",
"509 453.667 OFFCURVE",
"509 415 CURVE SMOOTH",
"509 -185 LINE",
"577 -185 LINE",
"577 438 LINE SMOOTH"
);
}
);
width = 664;
}
);
note = uni0220;
rightKerningGroup = Nlongrightleg;
unicode = 0220;
},
{
glyphname = O;
lastChange = "2018-03-24 17:34:21 +0000";
layers = (
{
layerId = "ECA8ADC0-D5C0-4AFD-BCF0-9F577B806AFE";
paths = (
{
closed = 1;
nodes = (
"268 693 OFFCURVE",
"186 662 OFFCURVE",
"127 602 CURVE SMOOTH",
"59 532 OFFCURVE",
"30 451 OFFCURVE",
"30 347 CURVE SMOOTH",
"30 243 OFFCURVE",
"59 161 OFFCURVE",
"127 93 CURVE SMOOTH",
"187 33 OFFCURVE",
"268 1 OFFCURVE",
"355 1 CURVE SMOOTH",
"442 1 OFFCURVE",
"524 32 OFFCURVE",
"584 93 CURVE SMOOTH",
"651 161 OFFCURVE",
"680 244 OFFCURVE",
"680 347 CURVE SMOOTH",
"680 451 OFFCURVE",
"651 532 OFFCURVE",
"584 602 CURVE SMOOTH",
"525 663 OFFCURVE",
"442 693 OFFCURVE",
"355 693 CURVE SMOOTH"
);
},
{
closed = 1;
nodes = (
"282 62 OFFCURVE",
"217 89 OFFCURVE",
"171 143 CURVE SMOOTH",
"122 200 OFFCURVE",
"102 265 OFFCURVE",
"102 347 CURVE SMOOTH",
"102 426 OFFCURVE",
"121 492 OFFCURVE",
"171 552 CURVE SMOOTH",
"216 606 OFFCURVE",
"282 632 OFFCURVE",
"355 632 CURVE SMOOTH",
"428 632 OFFCURVE",
"493 606 OFFCURVE",
"539 552 CURVE SMOOTH",
"588 495 OFFCURVE",
"608 429 OFFCURVE",
"608 347 CURVE SMOOTH",
"608 269 OFFCURVE",
"589 202 OFFCURVE",
"539 143 CURVE SMOOTH",
"493 89 OFFCURVE",
"428 62 OFFCURVE",
"355 62 CURVE SMOOTH"
);
}
);
width = 710;
}
);
leftKerningGroup = O;
rightKerningGroup = O;
unicode = 004F;
},
{
glyphname = OU;
lastChange = "2018-03-22 14:29:51 +0000";
layers = (
{
layerId = "ECA8ADC0-D5C0-4AFD-BCF0-9F577B806AFE";
paths = (
{
closed = 1;
nodes = (
"123 227 OFFCURVE",
"128 249.333 OFFCURVE",
"138 268 CURVE SMOOTH",
"148 286.667 OFFCURVE",
"162 302 OFFCURVE",
"180 314 CURVE SMOOTH",
"198 326 OFFCURVE",
"219.5 334.833 OFFCURVE",
"244.5 340.5 CURVE SMOOTH",
"269.5 346.167 OFFCURVE",
"297 349 OFFCURVE",
"327 349 CURVE SMOOTH",
"357 349 OFFCURVE",
"384.5 346.167 OFFCURVE",
"409.5 340.5 CURVE SMOOTH",
"434.5 334.833 OFFCURVE",
"456 326 OFFCURVE",
"474 314 CURVE SMOOTH",
"492 302 OFFCURVE",
"506 286.667 OFFCURVE",
"516 268 CURVE SMOOTH",
"526 249.333 OFFCURVE",
"531 227 OFFCURVE",
"531 201 CURVE SMOOTH",
"531 175 OFFCURVE",
"526 152.667 OFFCURVE",
"516 134 CURVE SMOOTH",
"506 115.333 OFFCURVE",
"492 100.167 OFFCURVE",
"474 88.5 CURVE SMOOTH",
"456 76.833 OFFCURVE",
"434.5 68.167 OFFCURVE",
"409.5 62.5 CURVE SMOOTH",
"384.5 56.833 OFFCURVE",
"357 54 OFFCURVE",
"327 54 CURVE SMOOTH",
"297 54 OFFCURVE",
"269.5 56.833 OFFCURVE",
"244.5 62.5 CURVE SMOOTH",
"219.5 68.167 OFFCURVE",
"198 76.833 OFFCURVE",
"180 88.5 CURVE SMOOTH",
"162 100.167 OFFCURVE",
"148 115.333 OFFCURVE",
"138 134 CURVE SMOOTH",
"128 152.667 OFFCURVE",
"123 175 OFFCURVE",
"123 201 CURVE SMOOTH"
);
},
{
closed = 1;
nodes = (
"603 229 OFFCURVE",
"598.333 253.333 OFFCURVE",
"589 274 CURVE SMOOTH",
"579.667 294.667 OFFCURVE",
"567.667 312.333 OFFCURVE",
"553 327 CURVE SMOOTH",
"538.333 341.667 OFFCURVE",
"522.167 353.5 OFFCURVE",
"504.5 362.5 CURVE SMOOTH",
"486.833 371.5 OFFCURVE",
"470 377.667 OFFCURVE",
"454 381 CURVE",
"486.667 391.667 OFFCURVE",
"511.833 410 OFFCURVE",
"529.5 436 CURVE SMOOTH",
"547.167 462 OFFCURVE",
"556 498.333 OFFCURVE",
"556 545 CURVE SMOOTH",
"556 575 OFFCURVE",
"554.167 601.833 OFFCURVE",
"550.5 625.5 CURVE SMOOTH",
"546.833 649.167 OFFCURVE",
"542.333 671.667 OFFCURVE",
"537 693 CURVE",
"473 693 LINE",
"476.333 675.667 OFFCURVE",
"480 654.833 OFFCURVE",
"484 630.5 CURVE SMOOTH",
"488 606.167 OFFCURVE",
"490 580 OFFCURVE",
"490 552 CURVE SMOOTH",
"490 503.333 OFFCURVE",
"477.167 466.833 OFFCURVE",
"451.5 442.5 CURVE SMOOTH",
"425.833 418.167 OFFCURVE",
"384.333 406 OFFCURVE",
"327 406 CURVE SMOOTH",
"269.667 406 OFFCURVE",
"228.167 418.167 OFFCURVE",
"202.5 442.5 CURVE SMOOTH",
"176.833 466.833 OFFCURVE",
"164 503.333 OFFCURVE",
"164 552 CURVE SMOOTH",
"164 580 OFFCURVE",
"166 606.167 OFFCURVE",
"170 630.5 CURVE SMOOTH",
"174 654.833 OFFCURVE",
"177.667 675.667 OFFCURVE",
"181 693 CURVE",
"117 693 LINE",
"111.667 671.667 OFFCURVE",
"107.167 649.167 OFFCURVE",
"103.5 625.5 CURVE SMOOTH",
"99.833 601.833 OFFCURVE",
"98 575 OFFCURVE",
"98 545 CURVE SMOOTH",
"98 498.333 OFFCURVE",
"106.833 462 OFFCURVE",
"124.5 436 CURVE SMOOTH",
"142.167 410 OFFCURVE",
"167.333 391.667 OFFCURVE",
"200 381 CURVE",
"184 377.667 OFFCURVE",
"167.167 371.5 OFFCURVE",
"149.5 362.5 CURVE SMOOTH",
"131.833 353.5 OFFCURVE",
"115.667 341.667 OFFCURVE",
"101 327 CURVE SMOOTH",
"86.333 312.333 OFFCURVE",
"74.333 294.667 OFFCURVE",
"65 274 CURVE SMOOTH",
"55.667 253.333 OFFCURVE",
"51 229 OFFCURVE",
"51 201 CURVE SMOOTH",
"51 138.333 OFFCURVE",
"73.5 88.5 OFFCURVE",
"118.5 51.5 CURVE SMOOTH",
"163.5 14.5 OFFCURVE",
"233 -4 OFFCURVE",
"327 -4 CURVE SMOOTH",
"421 -4 OFFCURVE",
"490.5 14.5 OFFCURVE",
"535.5 51.5 CURVE SMOOTH",
"580.5 88.5 OFFCURVE",
"603 138.333 OFFCURVE",
"603 201 CURVE SMOOTH"
);
}
);
width = 654;
}
);
note = uni0222;
unicode = 0222;
},
{
glyphname = Ocenteredtilde;
lastChange = "2018-03-22 14:29:51 +0000";
layers = (
{
layerId = "ECA8ADC0-D5C0-4AFD-BCF0-9F577B806AFE";
paths = (
{
closed = 1;
nodes = (
"343 708 OFFCURVE",
"301.333 700.333 OFFCURVE",
"262 685 CURVE SMOOTH",
"222.667 669.667 OFFCURVE",
"188.167 646.833 OFFCURVE",
"158.5 616.5 CURVE SMOOTH",
"128.833 586.167 OFFCURVE",
"105.333 548.5 OFFCURVE",
"88 503.5 CURVE SMOOTH",
"70.667 458.5 OFFCURVE",
"62 406.333 OFFCURVE",
"62 347 CURVE SMOOTH",
"62 287.667 OFFCURVE",
"70.667 235.333 OFFCURVE",
"88 190 CURVE SMOOTH",
"105.333 144.667 OFFCURVE",
"128.833 106.833 OFFCURVE",
"158.5 76.5 CURVE SMOOTH",
"188.167 46.167 OFFCURVE",
"222.667 23.333 OFFCURVE",
"262 8 CURVE SMOOTH",
"301.333 -7.333 OFFCURVE",
"343 -15 OFFCURVE",
"387 -15 CURVE SMOOTH",
"431 -15 OFFCURVE",
"472.667 -7.333 OFFCURVE",
"512 8 CURVE SMOOTH",
"551.333 23.333 OFFCURVE",
"585.833 46.167 OFFCURVE",
"615.5 76.5 CURVE SMOOTH",
"645.167 106.833 OFFCURVE",
"668.667 144.667 OFFCURVE",
"686 190 CURVE SMOOTH",
"703.333 235.333 OFFCURVE",
"712 287.667 OFFCURVE",
"712 347 CURVE SMOOTH",
"712 406.333 OFFCURVE",
"703.333 458.5 OFFCURVE",
"686 503.5 CURVE SMOOTH",
"668.667 548.5 OFFCURVE",
"645.167 586.167 OFFCURVE",
"615.5 616.5 CURVE SMOOTH",
"585.833 646.833 OFFCURVE",
"551.333 669.667 OFFCURVE",
"512 685 CURVE SMOOTH",
"472.667 700.333 OFFCURVE",
"431 708 OFFCURVE",
"387 708 CURVE SMOOTH"
);
},
{
closed = 1;
nodes = (
"639 321 LINE",
"637 278.333 OFFCURVE",
"629.5 240 OFFCURVE",
"616.5 206 CURVE SMOOTH",
"603.5 172 OFFCURVE",
"586.167 143.167 OFFCURVE",
"564.5 119.5 CURVE SMOOTH",
"542.833 95.833 OFFCURVE",
"517 77.667 OFFCURVE",
"487 65 CURVE SMOOTH",
"457 52.333 OFFCURVE",
"423.667 46 OFFCURVE",
"387 46 CURVE SMOOTH",
"350.333 46 OFFCURVE",
"317 52.333 OFFCURVE",
"287 65 CURVE SMOOTH",
"257 77.667 OFFCURVE",
"231 95.833 OFFCURVE",
"209 119.5 CURVE SMOOTH",
"187 143.167 OFFCURVE",
"169.5 172 OFFCURVE",
"156.5 206 CURVE SMOOTH",
"143.5 240 OFFCURVE",
"136 278.333 OFFCURVE",
"134 321 CURVE"
);
},
{
closed = 1;
nodes = (
"135 379 LINE",
"137.667 421 OFFCURVE",
"145.5 458.5 OFFCURVE",
"158.5 491.5 CURVE SMOOTH",
"171.5 524.5 OFFCURVE",
"188.833 552.5 OFFCURVE",
"210.5 575.5 CURVE SMOOTH",
"232.167 598.5 OFFCURVE",
"258 616.167 OFFCURVE",
"288 628.5 CURVE SMOOTH",
"318 640.833 OFFCURVE",
"351 647 OFFCURVE",
"387 647 CURVE SMOOTH",
"423 647 OFFCURVE",
"456 640.833 OFFCURVE",
"486 628.5 CURVE SMOOTH",
"516 616.167 OFFCURVE",
"541.833 598.5 OFFCURVE",
"563.5 575.5 CURVE SMOOTH",
"585.167 552.5 OFFCURVE",
"602.5 524.5 OFFCURVE",
"615.5 491.5 CURVE SMOOTH",
"628.5 458.5 OFFCURVE",
"636.333 421 OFFCURVE",
"639 379 CURVE"
);
}
);
width = 774;
}
);
leftKerningGroup = O;
note = uni019F;
rightKerningGroup = O;
unicode = 019F;
},
{
glyphname = Ohorn;
lastChange = "2018-03-22 14:29:51 +0000";
layers = (
{
layerId = "ECA8ADC0-D5C0-4AFD-BCF0-9F577B806AFE";
paths = (
{
closed = 1;
nodes = (
"661.667 623.667 OFFCURVE",
"682.167 651.167 OFFCURVE",
"692.5 681.5 CURVE SMOOTH",
"702.833 711.833 OFFCURVE",
"708 742.333 OFFCURVE",
"708 773 CURVE SMOOTH",
"708 776.333 OFFCURVE",
"707.833 780.667 OFFCURVE",
"707.5 786 CURVE SMOOTH",
"707.167 791.333 OFFCURVE",
"706.667 796 OFFCURVE",
"706 800 CURVE",
"641 800 LINE",
"641.667 798 OFFCURVE",
"642.333 793.167 OFFCURVE",
"643 785.5 CURVE SMOOTH",
"643.667 777.833 OFFCURVE",
"644 771 OFFCURVE",
"644 765 CURVE SMOOTH",
"644 737 OFFCURVE",
"640 713.167 OFFCURVE",
"632 693.5 CURVE SMOOTH",
"624 673.833 OFFCURVE",
"610.333 655.333 OFFCURVE",
"591 638 CURVE",
"563 661.333 OFFCURVE",
"531.5 678.833 OFFCURVE",
"496.5 690.5 CURVE SMOOTH",
"461.5 702.167 OFFCURVE",
"425 708 OFFCURVE",
"387 708 CURVE SMOOTH",
"343 708 OFFCURVE",
"301.333 700.333 OFFCURVE",
"262 685 CURVE SMOOTH",
"222.667 669.667 OFFCURVE",
"188.167 646.833 OFFCURVE",
"158.5 616.5 CURVE SMOOTH",
"128.833 586.167 OFFCURVE",
"105.333 548.5 OFFCURVE",
"88 503.5 CURVE SMOOTH",
"70.667 458.5 OFFCURVE",
"62 406.333 OFFCURVE",
"62 347 CURVE SMOOTH",
"62 287.667 OFFCURVE",
"70.667 235.333 OFFCURVE",
"88 190 CURVE SMOOTH",
"105.333 144.667 OFFCURVE",
"128.833 106.833 OFFCURVE",
"158.5 76.5 CURVE SMOOTH",
"188.167 46.167 OFFCURVE",
"222.667 23.333 OFFCURVE",
"262 8 CURVE SMOOTH",
"301.333 -7.333 OFFCURVE",
"343 -15 OFFCURVE",
"387 -15 CURVE SMOOTH",
"431 -15 OFFCURVE",
"472.667 -7.333 OFFCURVE",
"512 8 CURVE SMOOTH",
"551.333 23.333 OFFCURVE",
"585.833 46.167 OFFCURVE",
"615.5 76.5 CURVE SMOOTH",
"645.167 106.833 OFFCURVE",
"668.667 144.667 OFFCURVE",
"686 190 CURVE SMOOTH",
"703.333 235.333 OFFCURVE",
"712 287.667 OFFCURVE",
"712 347 CURVE SMOOTH",
"712 401 OFFCURVE",
"704.833 449 OFFCURVE",
"690.5 491 CURVE SMOOTH",
"676.167 533 OFFCURVE",
"656.333 569 OFFCURVE",
"631 599 CURVE"
);
},
{
closed = 1;
nodes = (
"348.333 46 OFFCURVE",
"313.5 53 OFFCURVE",
"282.5 67 CURVE SMOOTH",
"251.5 81 OFFCURVE",
"225 101 OFFCURVE",
"203 127 CURVE SMOOTH",
"181 153 OFFCURVE",
"164 184.5 OFFCURVE",
"152 221.5 CURVE SMOOTH",
"140 258.5 OFFCURVE",
"134 300.333 OFFCURVE",
"134 347 CURVE SMOOTH",
"134 393.667 OFFCURVE",
"140 435.5 OFFCURVE",
"152 472.5 CURVE SMOOTH",
"164 509.5 OFFCURVE",
"181 541 OFFCURVE",
"203 567 CURVE SMOOTH",
"225 593 OFFCURVE",
"251.5 612.833 OFFCURVE",
"282.5 626.5 CURVE SMOOTH",
"313.5 640.167 OFFCURVE",
"348.333 647 OFFCURVE",
"387 647 CURVE SMOOTH",
"425.667 647 OFFCURVE",
"460.5 640.167 OFFCURVE",
"491.5 626.5 CURVE SMOOTH",
"522.5 612.833 OFFCURVE",
"549 593 OFFCURVE",
"571 567 CURVE SMOOTH",
"593 541 OFFCURVE",
"610 509.5 OFFCURVE",
"622 472.5 CURVE SMOOTH",
"634 435.5 OFFCURVE",
"640 393.667 OFFCURVE",
"640 347 CURVE SMOOTH",
"640 300.333 OFFCURVE",
"634 258.5 OFFCURVE",
"622 221.5 CURVE SMOOTH",
"610 184.5 OFFCURVE",
"593 153 OFFCURVE",
"571 127 CURVE SMOOTH",
"549 101 OFFCURVE",
"522.5 81 OFFCURVE",
"491.5 67 CURVE SMOOTH",
"460.5 53 OFFCURVE",
"425.667 46 OFFCURVE",
"387 46 CURVE SMOOTH"
);
}
);
width = 774;
}
);
leftKerningGroup = O;
rightKerningGroup = Ohorn;
unicode = 01A0;
},
{
glyphname = Oi;
lastChange = "2018-03-22 14:29:51 +0000";
layers = (
{
layerId = "ECA8ADC0-D5C0-4AFD-BCF0-9F577B806AFE";
paths = (
{
closed = 1;
nodes = (
"62 287.667 OFFCURVE",
"70.333 235.333 OFFCURVE",
"87 190 CURVE SMOOTH",
"103.667 144.667 OFFCURVE",
"126.333 106.833 OFFCURVE",
"155 76.5 CURVE SMOOTH",
"183.667 46.167 OFFCURVE",
"216.833 23.333 OFFCURVE",
"254.5 8 CURVE SMOOTH",
"292.167 -7.333 OFFCURVE",
"332 -15 OFFCURVE",
"374 -15 CURVE SMOOTH",
"416 -15 OFFCURVE",
"455.833 -7.333 OFFCURVE",
"493.5 8 CURVE SMOOTH",
"531.167 23.333 OFFCURVE",
"564.333 46.167 OFFCURVE",
"593 76.5 CURVE SMOOTH",
"621.667 106.833 OFFCURVE",
"644.333 144.667 OFFCURVE",
"661 190 CURVE SMOOTH",
"677.667 235.333 OFFCURVE",
"686 287.667 OFFCURVE",
"686 347 CURVE SMOOTH",
"686 401 OFFCURVE",
"679 449 OFFCURVE",
"665 491 CURVE SMOOTH",
"651 533 OFFCURVE",
"632 569 OFFCURVE",
"608 599 CURVE",
"612.667 603 OFFCURVE",
"618.833 607.833 OFFCURVE",
"626.5 613.5 CURVE SMOOTH",
"634.167 619.167 OFFCURVE",
"642.833 624.5 OFFCURVE",
"652.5 629.5 CURVE SMOOTH",
"662.167 634.5 OFFCURVE",
"673 638.833 OFFCURVE",
"685 642.5 CURVE SMOOTH",
"697 646.167 OFFCURVE",
"710 648 OFFCURVE",
"724 648 CURVE SMOOTH",
"748.667 648 OFFCURVE",
"768.667 644 OFFCURVE",
"784 636 CURVE SMOOTH",
"799.333 628 OFFCURVE",
"811.5 615.833 OFFCURVE",
"820.5 599.5 CURVE SMOOTH",
"829.5 583.167 OFFCURVE",
"835.667 562.5 OFFCURVE",
"839 537.5 CURVE SMOOTH",
"842.333 512.5 OFFCURVE",
"844 483.333 OFFCURVE",
"844 450 CURVE SMOOTH",
"844 0 LINE",
"912 0 LINE",
"912 456 LINE SMOOTH",
"912 494.667 OFFCURVE",
"909.667 529.5 OFFCURVE",
"905 560.5 CURVE SMOOTH",
"900.333 591.5 OFFCURVE",
"891.333 617.833 OFFCURVE",
"878 639.5 CURVE SMOOTH",
"864.667 661.167 OFFCURVE",
"846.333 677.833 OFFCURVE",
"823 689.5 CURVE SMOOTH",
"799.667 701.167 OFFCURVE",
"769 707 OFFCURVE",
"731 707 CURVE SMOOTH",
"709 707 OFFCURVE",
"689 704.5 OFFCURVE",
"671 699.5 CURVE SMOOTH",
"653 694.5 OFFCURVE",
"637.167 688.333 OFFCURVE",
"623.5 681 CURVE SMOOTH",
"609.833 673.667 OFFCURVE",
"598.333 666.167 OFFCURVE",
"589 658.5 CURVE SMOOTH",
"579.667 650.833 OFFCURVE",
"572.333 644.667 OFFCURVE",
"567 640 CURVE",
"539.667 662.667 OFFCURVE",
"509.667 679.667 OFFCURVE",
"477 691 CURVE SMOOTH",
"444.333 702.333 OFFCURVE",
"410 708 OFFCURVE",
"374 708 CURVE SMOOTH",
"332 708 OFFCURVE",
"292.167 700.333 OFFCURVE",
"254.5 685 CURVE SMOOTH",
"216.833 669.667 OFFCURVE",
"183.667 646.833 OFFCURVE",
"155 616.5 CURVE SMOOTH",
"126.333 586.167 OFFCURVE",
"103.667 548.5 OFFCURVE",
"87 503.5 CURVE SMOOTH",
"70.333 458.5 OFFCURVE",
"62 406.333 OFFCURVE",
"62 347 CURVE SMOOTH"
);
},
{
closed = 1;
nodes = (
"134 393.667 OFFCURVE",
"139.5 435.5 OFFCURVE",
"150.5 472.5 CURVE SMOOTH",
"161.5 509.5 OFFCURVE",
"177.5 541 OFFCURVE",
"198.5 567 CURVE SMOOTH",
"219.5 593 OFFCURVE",
"244.667 612.833 OFFCURVE",
"274 626.5 CURVE SMOOTH",
"303.333 640.167 OFFCURVE",
"336.667 647 OFFCURVE",
"374 647 CURVE SMOOTH",
"410.667 647 OFFCURVE",
"443.833 640.167 OFFCURVE",
"473.5 626.5 CURVE SMOOTH",
"503.167 612.833 OFFCURVE",
"528.5 593 OFFCURVE",
"549.5 567 CURVE SMOOTH",
"570.5 541 OFFCURVE",
"586.5 509.5 OFFCURVE",
"597.5 472.5 CURVE SMOOTH",
"608.5 435.5 OFFCURVE",
"614 393.667 OFFCURVE",
"614 347 CURVE SMOOTH",
"614 300.333 OFFCURVE",
"608.5 258.5 OFFCURVE",
"597.5 221.5 CURVE SMOOTH",
"586.5 184.5 OFFCURVE",
"570.5 153 OFFCURVE",
"549.5 127 CURVE SMOOTH",
"528.5 101 OFFCURVE",
"503.167 81 OFFCURVE",
"473.5 67 CURVE SMOOTH",
"443.833 53 OFFCURVE",
"410.667 46 OFFCURVE",
"374 46 CURVE SMOOTH",
"336.667 46 OFFCURVE",
"303.333 53 OFFCURVE",
"274 67 CURVE SMOOTH",
"244.667 81 OFFCURVE",
"219.5 101 OFFCURVE",
"198.5 127 CURVE SMOOTH",
"177.5 153 OFFCURVE",
"161.5 184.5 OFFCURVE",
"150.5 221.5 CURVE SMOOTH",
"139.5 258.5 OFFCURVE",
"134 300.333 OFFCURVE",
"134 347 CURVE SMOOTH"
);
}
);
width = 1002;
}
);
leftKerningGroup = O;
note = uni01A2;
rightKerningGroup = Oi;
unicode = 01A2;
},
{
glyphname = Oogonek;
lastChange = "2018-03-22 14:29:51 +0000";
layers = (
{
layerId = "ECA8ADC0-D5C0-4AFD-BCF0-9F577B806AFE";
paths = (
{
closed = 1;
nodes = (
"348.333 46 OFFCURVE",
"313.5 53 OFFCURVE",
"282.5 67 CURVE SMOOTH",
"251.5 81 OFFCURVE",
"225 101 OFFCURVE",
"203 127 CURVE SMOOTH",
"181 153 OFFCURVE",
"164 184.5 OFFCURVE",
"152 221.5 CURVE SMOOTH",
"140 258.5 OFFCURVE",
"134 300.333 OFFCURVE",
"134 347 CURVE SMOOTH",
"134 393.667 OFFCURVE",
"140 435.5 OFFCURVE",
"152 472.5 CURVE SMOOTH",
"164 509.5 OFFCURVE",
"181 541 OFFCURVE",
"203 567 CURVE SMOOTH",
"225 593 OFFCURVE",
"251.5 612.833 OFFCURVE",
"282.5 626.5 CURVE SMOOTH",
"313.5 640.167 OFFCURVE",
"348.333 647 OFFCURVE",
"387 647 CURVE SMOOTH",
"425.667 647 OFFCURVE",
"460.5 640.167 OFFCURVE",
"491.5 626.5 CURVE SMOOTH",
"522.5 612.833 OFFCURVE",
"549 593 OFFCURVE",
"571 567 CURVE SMOOTH",
"593 541 OFFCURVE",
"610 509.5 OFFCURVE",
"622 472.5 CURVE SMOOTH",
"634 435.5 OFFCURVE",
"640 393.667 OFFCURVE",
"640 347 CURVE SMOOTH",
"640 300.333 OFFCURVE",
"634 258.5 OFFCURVE",
"622 221.5 CURVE SMOOTH",
"610 184.5 OFFCURVE",
"593 153 OFFCURVE",
"571 127 CURVE SMOOTH",
"549 101 OFFCURVE",
"522.5 81 OFFCURVE",
"491.5 67 CURVE SMOOTH",
"460.5 53 OFFCURVE",
"425.667 46 OFFCURVE",
"387 46 CURVE SMOOTH"
);
},
{
closed = 1;
nodes = (
"391.333 -28.667 OFFCURVE",
"377.333 -44.167 OFFCURVE",
"366 -60.5 CURVE SMOOTH",
"354.667 -76.833 OFFCURVE",
"349 -95.333 OFFCURVE",
"349 -116 CURVE SMOOTH",
"349 -136.667 OFFCURVE",
"356.333 -153.5 OFFCURVE",
"371 -166.5 CURVE SMOOTH",
"385.667 -179.5 OFFCURVE",
"411 -186 OFFCURVE",
"447 -186 CURVE SMOOTH",
"457 -186 OFFCURVE",
"467.167 -185 OFFCURVE",
"477.5 -183 CURVE SMOOTH",
"487.833 -181 OFFCURVE",
"495.667 -179 OFFCURVE",
"501 -177 CURVE",
"496 -129 LINE",
"490.667 -131 OFFCURVE",
"484.5 -132.5 OFFCURVE",
"477.5 -133.5 CURVE SMOOTH",
"470.5 -134.5 OFFCURVE",
"464 -135 OFFCURVE",
"458 -135 CURVE SMOOTH",
"446 -135 OFFCURVE",
"436 -132.333 OFFCURVE",
"428 -127 CURVE SMOOTH",
"420 -121.667 OFFCURVE",
"416 -113 OFFCURVE",
"416 -101 CURVE SMOOTH",
"416 -89.667 OFFCURVE",
"419.167 -79.167 OFFCURVE",
"425.5 -69.5 CURVE SMOOTH",
"431.833 -59.833 OFFCURVE",
"440.333 -49.333 OFFCURVE",
"451 -38 CURVE SMOOTH",
"463 -25.333 OFFCURVE",
"476 -14.833 OFFCURVE",
"490 -6.5 CURVE SMOOTH",
"504 1.833 OFFCURVE",
"517.667 9.333 OFFCURVE",
"531 16 CURVE SMOOTH",
"557.667 28.667 OFFCURVE",
"582 45.167 OFFCURVE",
"604 65.5 CURVE SMOOTH",
"626 85.833 OFFCURVE",
"645 109.833 OFFCURVE",
"661 137.5 CURVE SMOOTH",
"677 165.167 OFFCURVE",
"689.5 196.5 OFFCURVE",
"698.5 231.5 CURVE SMOOTH",
"707.5 266.5 OFFCURVE",
"712 305 OFFCURVE",
"712 347 CURVE SMOOTH",
"712 406.333 OFFCURVE",
"703.333 458.5 OFFCURVE",
"686 503.5 CURVE SMOOTH",
"668.667 548.5 OFFCURVE",
"645.167 586.167 OFFCURVE",
"615.5 616.5 CURVE SMOOTH",
"585.833 646.833 OFFCURVE",
"551.333 669.667 OFFCURVE",
"512 685 CURVE SMOOTH",
"472.667 700.333 OFFCURVE",
"431 708 OFFCURVE",
"387 708 CURVE SMOOTH",
"343 708 OFFCURVE",
"301.333 700.333 OFFCURVE",
"262 685 CURVE SMOOTH",
"222.667 669.667 OFFCURVE",
"188.167 646.833 OFFCURVE",
"158.5 616.5 CURVE SMOOTH",
"128.833 586.167 OFFCURVE",
"105.333 548.5 OFFCURVE",
"88 503.5 CURVE SMOOTH",
"70.667 458.5 OFFCURVE",
"62 406.333 OFFCURVE",
"62 347 CURVE SMOOTH",
"62 287.667 OFFCURVE",
"70.667 235.333 OFFCURVE",
"88 190 CURVE SMOOTH",
"105.333 144.667 OFFCURVE",
"128.833 106.833 OFFCURVE",
"158.5 76.5 CURVE SMOOTH",
"188.167 46.167 OFFCURVE",
"222.667 23.333 OFFCURVE",
"262 8 CURVE SMOOTH",
"301.333 -7.333 OFFCURVE",
"343 -15 OFFCURVE",
"387 -15 CURVE SMOOTH",
"390.333 -15 OFFCURVE",
"393.667 -15 OFFCURVE",
"397 -15 CURVE SMOOTH",
"400.333 -15 OFFCURVE",
"404 -14.667 OFFCURVE",
"408 -14 CURVE"
);
}
);
width = 774;
}
);
leftKerningGroup = O;
note = uni01EA;
rightKerningGroup = O;
unicode = 01EA;
},
{
glyphname = Oopen;
lastChange = "2018-03-22 14:29:51 +0000";
layers = (
{
layerId = "ECA8ADC0-D5C0-4AFD-BCF0-9F577B806AFE";
paths = (
{
closed = 1;
nodes = (
"29 26 LINE",
"35 22.667 OFFCURVE",
"43.833 18.667 OFFCURVE",
"55.5 14 CURVE SMOOTH",
"67.167 9.333 OFFCURVE",
"81.333 4.833 OFFCURVE",
"98 0.5 CURVE SMOOTH",
"114.667 -3.833 OFFCURVE",
"133.167 -7.5 OFFCURVE",
"153.5 -10.5 CURVE SMOOTH",
"173.833 -13.5 OFFCURVE",
"195.667 -15 OFFCURVE",
"219 -15 CURVE SMOOTH",
"266.333 -15 OFFCURVE",
"309.833 -7.167 OFFCURVE",
"349.5 8.5 CURVE SMOOTH",
"389.167 24.167 OFFCURVE",
"423.167 47.333 OFFCURVE",
"451.5 78 CURVE SMOOTH",
"479.833 108.667 OFFCURVE",
"502 146.5 OFFCURVE",
"518 191.5 CURVE SMOOTH",
"534 236.5 OFFCURVE",
"542 288 OFFCURVE",
"542 346 CURVE SMOOTH",
"542 404 OFFCURVE",
"534 455.5 OFFCURVE",
"518 500.5 CURVE SMOOTH",
"502 545.5 OFFCURVE",
"480 583.333 OFFCURVE",
"452 614 CURVE SMOOTH",
"424 644.667 OFFCURVE",
"390.833 668 OFFCURVE",
"352.5 684 CURVE SMOOTH",
"314.167 700 OFFCURVE",
"272.667 708 OFFCURVE",
"228 708 CURVE SMOOTH",
"202 708 OFFCURVE",
"177.833 706.5 OFFCURVE",
"155.5 703.5 CURVE SMOOTH",
"133.167 700.5 OFFCURVE",
"113.5 696.833 OFFCURVE",
"96.5 692.5 CURVE SMOOTH",
"79.5 688.167 OFFCURVE",
"65.333 683.5 OFFCURVE",
"54 678.5 CURVE SMOOTH",
"42.667 673.5 OFFCURVE",
"34.333 669.333 OFFCURVE",
"29 666 CURVE",
"47 609 LINE",
"62.333 617.667 OFFCURVE",
"84.5 626.167 OFFCURVE",
"113.5 634.5 CURVE SMOOTH",
"142.5 642.833 OFFCURVE",
"178 647 OFFCURVE",
"220 647 CURVE SMOOTH",
"260 647 OFFCURVE",
"295.5 640 OFFCURVE",
"326.5 626 CURVE SMOOTH",
"357.5 612 OFFCURVE",
"383.667 592 OFFCURVE",
"405 566 CURVE SMOOTH",
"426.333 540 OFFCURVE",
"442.5 508.5 OFFCURVE",
"453.5 471.5 CURVE SMOOTH",
"464.5 434.5 OFFCURVE",
"470 393 OFFCURVE",
"470 347 CURVE SMOOTH",
"470 302.333 OFFCURVE",
"465 261.5 OFFCURVE",
"455 224.5 CURVE SMOOTH",
"445 187.5 OFFCURVE",
"429.5 155.833 OFFCURVE",
"408.5 129.5 CURVE SMOOTH",
"387.5 103.167 OFFCURVE",
"360.833 82.667 OFFCURVE",
"328.5 68 CURVE SMOOTH",
"296.167 53.333 OFFCURVE",
"257.667 46 OFFCURVE",
"213 46 CURVE SMOOTH",
"173 46 OFFCURVE",
"139.333 50.167 OFFCURVE",
"112 58.5 CURVE SMOOTH",
"84.667 66.833 OFFCURVE",
"63.333 75.333 OFFCURVE",
"48 84 CURVE"
);
}
);
width = 604;
}
);
leftKerningGroup = Oopen;
note = uni0186;
rightKerningGroup = O;
unicode = 0186;
},
{
glyphname = Oslash;
lastChange = "2018-03-22 14:29:51 +0000";
layers = (
{
layerId = "ECA8ADC0-D5C0-4AFD-BCF0-9F577B806AFE";
paths = (
{
closed = 1;
nodes = (
"694 692 LINE",
"646 728 LINE",
"582 645 LINE",
"554 666.333 OFFCURVE",
"523.5 682.167 OFFCURVE",
"490.5 692.5 CURVE SMOOTH",
"457.5 702.833 OFFCURVE",
"423 708 OFFCURVE",
"387 708 CURVE SMOOTH",
"343 708 OFFCURVE",
"301.333 700.333 OFFCURVE",
"262 685 CURVE SMOOTH",
"222.667 669.667 OFFCURVE",
"188.167 646.833 OFFCURVE",
"158.5 616.5 CURVE SMOOTH",
"128.833 586.167 OFFCURVE",
"105.333 548.5 OFFCURVE",
"88 503.5 CURVE SMOOTH",
"70.667 458.5 OFFCURVE",
"62 406.333 OFFCURVE",
"62 347 CURVE SMOOTH",
"62 290.333 OFFCURVE",
"69.667 240.167 OFFCURVE",
"85 196.5 CURVE SMOOTH",
"100.333 152.833 OFFCURVE",
"122 116 OFFCURVE",
"150 86 CURVE",
"85 2 LINE",
"133 -34 LINE",
"194 46 LINE",
"222 25.333 OFFCURVE",
"252.167 10 OFFCURVE",
"284.5 0 CURVE SMOOTH",
"316.833 -10 OFFCURVE",
"351 -15 OFFCURVE",
"387 -15 CURVE SMOOTH",
"431 -15 OFFCURVE",
"472.667 -7.333 OFFCURVE",
"512 8 CURVE SMOOTH",
"551.333 23.333 OFFCURVE",
"585.833 46.167 OFFCURVE",
"615.5 76.5 CURVE SMOOTH",
"645.167 106.833 OFFCURVE",
"668.667 144.667 OFFCURVE",
"686 190 CURVE SMOOTH",
"703.333 235.333 OFFCURVE",
"712 287.667 OFFCURVE",
"712 347 CURVE SMOOTH",
"712 403 OFFCURVE",
"704.333 452.333 OFFCURVE",
"689 495 CURVE SMOOTH",
"673.667 537.667 OFFCURVE",
"652.667 574 OFFCURVE",
"626 604 CURVE"
);
},
{
closed = 1;
nodes = (
"447.667 647 OFFCURVE",
"499.667 629.333 OFFCURVE",
"543 594 CURVE",
"192 140 LINE",
"173.333 165.333 OFFCURVE",
"159 195.5 OFFCURVE",
"149 230.5 CURVE SMOOTH",
"139 265.5 OFFCURVE",
"134 304.333 OFFCURVE",
"134 347 CURVE SMOOTH",
"134 393.667 OFFCURVE",
"140 435.5 OFFCURVE",
"152 472.5 CURVE SMOOTH",
"164 509.5 OFFCURVE",
"181 541 OFFCURVE",
"203 567 CURVE SMOOTH",
"225 593 OFFCURVE",
"251.5 612.833 OFFCURVE",
"282.5 626.5 CURVE SMOOTH",
"313.5 640.167 OFFCURVE",
"348.333 647 OFFCURVE",
"387 647 CURVE SMOOTH"
);
},
{
closed = 1;
nodes = (
"325.667 46 OFFCURVE",
"274.333 62.667 OFFCURVE",
"233 96 CURVE",
"584 550 LINE",
"602 524.667 OFFCURVE",
"615.833 495 OFFCURVE",
"625.5 461 CURVE SMOOTH",
"635.167 427 OFFCURVE",
"640 389 OFFCURVE",
"640 347 CURVE SMOOTH",
"640 300.333 OFFCURVE",
"634 258.5 OFFCURVE",
"622 221.5 CURVE SMOOTH",
"610 184.5 OFFCURVE",
"593 153 OFFCURVE",
"571 127 CURVE SMOOTH",
"549 101 OFFCURVE",
"522.5 81 OFFCURVE",
"491.5 67 CURVE SMOOTH",
"460.5 53 OFFCURVE",
"425.667 46 OFFCURVE",
"387 46 CURVE SMOOTH"
);
}
);
width = 774;
}
);
leftKerningGroup = O;
rightKerningGroup = O;
unicode = 00D8;
},
{
glyphname = OE;
lastChange = "2018-03-22 14:29:51 +0000";
layers = (
{
layerId = "ECA8ADC0-D5C0-4AFD-BCF0-9F577B806AFE";
paths = (
{
closed = 1;
nodes = (
"535 59.333 OFFCURVE",
"525.167 58 OFFCURVE",
"509.5 56 CURVE SMOOTH",
"493.833 54 OFFCURVE",
"468 53 OFFCURVE",
"432 53 CURVE SMOOTH",
"383.333 53 OFFCURVE",
"340.5 59.833 OFFCURVE",
"303.5 73.5 CURVE SMOOTH",
"266.5 87.167 OFFCURVE",
"235.667 106.667 OFFCURVE",
"211 132 CURVE SMOOTH",
"186.333 157.333 OFFCURVE",
"167.833 188.167 OFFCURVE",
"155.5 224.5 CURVE SMOOTH",
"143.167 260.833 OFFCURVE",
"137 301.667 OFFCURVE",
"137 347 CURVE SMOOTH",
"137 392.333 OFFCURVE",
"143.167 433 OFFCURVE",
"155.5 469 CURVE SMOOTH",
"167.833 505 OFFCURVE",
"186.333 535.667 OFFCURVE",
"211 561 CURVE SMOOTH",
"235.667 586.333 OFFCURVE",
"266.5 605.833 OFFCURVE",
"303.5 619.5 CURVE SMOOTH",
"340.5 633.167 OFFCURVE",
"383.333 640 OFFCURVE",
"432 640 CURVE SMOOTH",
"468 640 OFFCURVE",
"493.833 639 OFFCURVE",
"509.5 637 CURVE SMOOTH",
"525.167 635 OFFCURVE",
"535 633.667 OFFCURVE",
"539 633 CURVE",
"539 60 LINE"
);
},
{
closed = 1;
nodes = (
"951 59 LINE",
"607 59 LINE",
"607 335 LINE",
"889 335 LINE",
"889 393 LINE",
"607 393 LINE",
"607 634 LINE",
"925 634 LINE",
"925 693 LINE",
"539 693 LINE",
"523 695 OFFCURVE",
"506.5 696.5 OFFCURVE",
"489.5 697.5 CURVE SMOOTH",
"472.5 698.5 OFFCURVE",
"456 699 OFFCURVE",
"440 699 CURVE SMOOTH",
"384.667 699 OFFCURVE",
"334.167 691.667 OFFCURVE",
"288.5 677 CURVE SMOOTH",
"242.833 662.333 OFFCURVE",
"203.333 640.333 OFFCURVE",
"170 611 CURVE SMOOTH",
"136.667 581.667 OFFCURVE",
"110.833 545 OFFCURVE",
"92.5 501 CURVE SMOOTH",
"74.167 457 OFFCURVE",
"65 405.667 OFFCURVE",
"65 347 CURVE SMOOTH",
"65 287.667 OFFCURVE",
"74.167 236 OFFCURVE",
"92.5 192 CURVE SMOOTH",
"110.833 148 OFFCURVE",
"136.667 111.333 OFFCURVE",
"170 82 CURVE SMOOTH",
"203.333 52.667 OFFCURVE",
"242.833 30.667 OFFCURVE",
"288.5 16 CURVE SMOOTH",
"334.167 1.333 OFFCURVE",
"384.667 -6 OFFCURVE",
"440 -6 CURVE SMOOTH",
"473.333 -6 OFFCURVE",
"506.667 -4 OFFCURVE",
"540 0 CURVE",
"951 0 LINE"
);
}
);
width = 990;
}
);
leftKerningGroup = O;
rightKerningGroup = E;
unicode = 0152;
},
{
glyphname = P;
lastChange = "2018-03-24 17:41:40 +0000";
layers = (
{
layerId = "ECA8ADC0-D5C0-4AFD-BCF0-9F577B806AFE";
paths = (
{
closed = 1;
nodes = (
"32 632 OFFCURVE",
"44 37 OFFCURVE",
"49 6 CURVE",
"72 -4 OFFCURVE",
"90 -4 OFFCURVE",
"113 6 CURVE",
"113 95 OFFCURVE",
"113 179 OFFCURVE",
"113 268 CURVE",
"207 268 LINE SMOOTH",
"285 268 OFFCURVE",
"371 278 OFFCURVE",
"430 317 CURVE SMOOTH",
"484 352 OFFCURVE",
"511 409 OFFCURVE",
"511 484 CURVE SMOOTH",
"511 553 OFFCURVE",
"487 606 OFFCURVE",
"439 643 CURVE SMOOTH",
"391 680 OFFCURVE",
"318 692 OFFCURVE",
"220 692 CURVE SMOOTH",
"169 692 OFFCURVE",
"82 694 OFFCURVE",
"50 683 CURVE"
);
},
{
closed = 1;
nodes = (
"440 428 OFFCURVE",
"421 383 OFFCURVE",
"375 358 CURVE SMOOTH",
"330 333 OFFCURVE",
"264 327 OFFCURVE",
"199 327 CURVE SMOOTH",
"113 327 LINE",
"102 342 OFFCURVE",
"104 598 OFFCURVE",
"113 631 CURVE",
"148 635 OFFCURVE",
"190 636 OFFCURVE",
"223 636 CURVE SMOOTH",
"273 636 OFFCURVE",
"330 633 OFFCURVE",
"373 609 CURVE SMOOTH",
"416 583 OFFCURVE",
"440 543 OFFCURVE",
"440 485 CURVE SMOOTH"
);
}
);
width = 541;
}
);
leftKerningGroup = P;
rightKerningGroup = P;
unicode = 0050;
},
{
glyphname = Phook;
lastChange = "2018-03-22 14:29:51 +0000";
layers = (
{
layerId = "ECA8ADC0-D5C0-4AFD-BCF0-9F577B806AFE";
paths = (
{
closed = 1;
nodes = (
"20 537 OFFCURVE",
"20.667 528.833 OFFCURVE",
"22 518.5 CURVE SMOOTH",
"23.333 508.167 OFFCURVE",
"24.667 500.333 OFFCURVE",
"26 495 CURVE",
"82 503 LINE",
"80.667 509 OFFCURVE",
"79.833 515 OFFCURVE",
"79.5 521 CURVE SMOOTH",
"79.167 527 OFFCURVE",
"79 531.667 OFFCURVE",
"79 535 CURVE SMOOTH",
"79 566.333 OFFCURVE",
"86.333 590.333 OFFCURVE",
"101 607 CURVE SMOOTH",
"115.667 623.667 OFFCURVE",
"139.333 633 OFFCURVE",
"172 635 CURVE",
"172 0 LINE",
"240 0 LINE",
"240 268 LINE",
"334 268 LINE SMOOTH",
"381.333 268 OFFCURVE",
"423.833 271.833 OFFCURVE",
"461.5 279.5 CURVE SMOOTH",
"499.167 287.167 OFFCURVE",
"531 299.5 OFFCURVE",
"557 316.5 CURVE SMOOTH",
"583 333.5 OFFCURVE",
"603 355.833 OFFCURVE",
"617 383.5 CURVE SMOOTH",
"631 411.167 OFFCURVE",
"638 444.667 OFFCURVE",
"638 484 CURVE SMOOTH",
"638 552.667 OFFCURVE",
"613.833 605.667 OFFCURVE",
"565.5 643 CURVE SMOOTH",
"517.167 680.333 OFFCURVE",
"442.333 699 OFFCURVE",
"341 699 CURVE SMOOTH",
"289.667 699 OFFCURVE",
"244.167 697.167 OFFCURVE",
"204.5 693.5 CURVE SMOOTH",
"164.833 689.833 OFFCURVE",
"131.333 682.5 OFFCURVE",
"104 671.5 CURVE SMOOTH",
"76.667 660.5 OFFCURVE",
"55.833 644.833 OFFCURVE",
"41.5 624.5 CURVE SMOOTH",
"27.167 604.167 OFFCURVE",
"20 577 OFFCURVE",
"20 543 CURVE SMOOTH"
);
},
{
closed = 1;
nodes = (
"567 453 OFFCURVE",
"561.333 426.667 OFFCURVE",
"550 406 CURVE SMOOTH",
"538.667 385.333 OFFCURVE",
"522.5 369.167 OFFCURVE",
"501.5 357.5 CURVE SMOOTH",
"480.5 345.833 OFFCURVE",
"455.167 337.833 OFFCURVE",
"425.5 333.5 CURVE SMOOTH",
"395.833 329.167 OFFCURVE",
"362.667 327 OFFCURVE",
"326 327 CURVE SMOOTH",
"240 327 LINE",
"240 638 LINE",
"251.333 639.333 OFFCURVE",
"267 640 OFFCURVE",
"287 640 CURVE SMOOTH",
"307 640 OFFCURVE",
"326.333 640 OFFCURVE",
"345 640 CURVE SMOOTH",
"373.667 640 OFFCURVE",
"401.333 637.667 OFFCURVE",
"428 633 CURVE SMOOTH",
"454.667 628.333 OFFCURVE",
"478.333 620.167 OFFCURVE",
"499 608.5 CURVE SMOOTH",
"519.667 596.833 OFFCURVE",
"536.167 581 OFFCURVE",
"548.5 561 CURVE SMOOTH",
"560.833 541 OFFCURVE",
"567 515.667 OFFCURVE",
"567 485 CURVE SMOOTH"
);
}
);
width = 675;
}
);
note = uni01A4;
rightKerningGroup = P;
unicode = 01A4;
},
{
glyphname = Thorn;
lastChange = "2018-03-22 14:29:51 +0000";
layers = (
{
layerId = "ECA8ADC0-D5C0-4AFD-BCF0-9F577B806AFE";
paths = (
{
closed = 1;
nodes = (
"90 693 LINE",
"90 0 LINE",
"158 0 LINE",
"158 145 LINE",
"252 145 LINE SMOOTH",
"299.333 145 OFFCURVE",
"341.833 148.833 OFFCURVE",
"379.5 156.5 CURVE SMOOTH",
"417.167 164.167 OFFCURVE",
"449 176.5 OFFCURVE",
"475 193.5 CURVE SMOOTH",
"501 210.5 OFFCURVE",
"521 232.833 OFFCURVE",
"535 260.5 CURVE SMOOTH",
"549 288.167 OFFCURVE",
"556 321.667 OFFCURVE",
"556 361 CURVE SMOOTH",
"556 429 OFFCURVE",
"531.833 481.833 OFFCURVE",
"483.5 519.5 CURVE SMOOTH",
"435.167 557.167 OFFCURVE",
"361.667 576 OFFCURVE",
"263 576 CURVE SMOOTH",
"246.333 576 OFFCURVE",
"227.5 575.333 OFFCURVE",
"206.5 574 CURVE SMOOTH",
"185.5 572.667 OFFCURVE",
"169.333 571.333 OFFCURVE",
"158 570 CURVE",
"158 693 LINE"
);
},
{
closed = 1;
nodes = (
"485 330 OFFCURVE",
"479.333 303.667 OFFCURVE",
"468 283 CURVE SMOOTH",
"456.667 262.333 OFFCURVE",
"440.5 246.167 OFFCURVE",
"419.5 234.5 CURVE SMOOTH",
"398.5 222.833 OFFCURVE",
"373.167 214.833 OFFCURVE",
"343.5 210.5 CURVE SMOOTH",
"313.833 206.167 OFFCURVE",
"280.667 204 OFFCURVE",
"244 204 CURVE SMOOTH",
"158 204 LINE",
"158 511 LINE",
"169.333 512.333 OFFCURVE",
"184.167 513.667 OFFCURVE",
"202.5 515 CURVE SMOOTH",
"220.833 516.333 OFFCURVE",
"242 517 OFFCURVE",
"266 517 CURVE SMOOTH",
"294 517 OFFCURVE",
"321.167 514.667 OFFCURVE",
"347.5 510 CURVE SMOOTH",
"373.833 505.333 OFFCURVE",
"397.167 497.167 OFFCURVE",
"417.5 485.5 CURVE SMOOTH",
"437.833 473.833 OFFCURVE",
"454.167 458 OFFCURVE",
"466.5 438 CURVE SMOOTH",
"478.833 418 OFFCURVE",
"485 392.667 OFFCURVE",
"485 362 CURVE SMOOTH"
);
}
);
width = 593;
}
);
leftKerningGroup = Thorn;
rightKerningGroup = Thorn;
unicode = 00DE;
},
{
glyphname = Q;
lastChange = "2018-03-24 17:47:30 +0000";
layers = (
{
layerId = "ECA8ADC0-D5C0-4AFD-BCF0-9F577B806AFE";
paths = (
{
closed = 1;
nodes = (
"30 243 OFFCURVE",
"59 161 OFFCURVE",
"127 93 CURVE SMOOTH",
"185 35 OFFCURVE",
"260 2 OFFCURVE",
"343 1 CURVE SMOOTH",
"463 0 OFFCURVE",
"637 -4 OFFCURVE",
"706 6 CURVE",
"716 27 OFFCURVE",
"719 41 OFFCURVE",
"709 62 CURVE",
"680 71 OFFCURVE",
"568 49 OFFCURVE",
"550 61 CURVE",
"563 70 OFFCURVE",
"592 98 OFFCURVE",
"602 110 CURVE SMOOTH",
"655 178 OFFCURVE",
"680 244 OFFCURVE",
"680 347 CURVE SMOOTH",
"680 451 OFFCURVE",
"651 532 OFFCURVE",
"584 602 CURVE SMOOTH",
"525 663 OFFCURVE",
"442 693 OFFCURVE",
"355 693 CURVE SMOOTH",
"268 693 OFFCURVE",
"186 662 OFFCURVE",
"127 602 CURVE SMOOTH",
"59 532 OFFCURVE",
"30 451 OFFCURVE",
"30 347 CURVE SMOOTH"
);
},
{
closed = 1;
nodes = (
"102 426 OFFCURVE",
"121 492 OFFCURVE",
"171 552 CURVE SMOOTH",
"216 606 OFFCURVE",
"282 632 OFFCURVE",
"355 632 CURVE SMOOTH",
"428 632 OFFCURVE",
"493 606 OFFCURVE",
"539 552 CURVE SMOOTH",
"588 495 OFFCURVE",
"608 429 OFFCURVE",
"608 347 CURVE SMOOTH",
"608 269 OFFCURVE",
"585 204 OFFCURVE",
"539 142 CURVE SMOOTH",
"493 80 OFFCURVE",
"448 59 OFFCURVE",
"355 59 CURVE SMOOTH",
"282 59 OFFCURVE",
"217 89 OFFCURVE",
"171 143 CURVE SMOOTH",
"122 200 OFFCURVE",
"102 265 OFFCURVE",
"102 347 CURVE SMOOTH"
);
}
);
width = 745;
}
);
leftKerningGroup = Q;
rightKerningGroup = Q;
unicode = 0051;
},
{
glyphname = Qhooktail;
lastChange = "2018-03-22 14:29:51 +0000";
layers = (
{
layerId = "ECA8ADC0-D5C0-4AFD-BCF0-9F577B806AFE";
paths = (
{
closed = 1;
nodes = (
"348.333 46 OFFCURVE",
"313.5 53 OFFCURVE",
"282.5 67 CURVE SMOOTH",
"251.5 81 OFFCURVE",
"225 101 OFFCURVE",
"203 127 CURVE SMOOTH",
"181 153 OFFCURVE",
"164 184.5 OFFCURVE",
"152 221.5 CURVE SMOOTH",
"140 258.5 OFFCURVE",
"134 300.333 OFFCURVE",
"134 347 CURVE SMOOTH",
"134 393.667 OFFCURVE",
"140 435.5 OFFCURVE",
"152 472.5 CURVE SMOOTH",
"164 509.5 OFFCURVE",
"181 541 OFFCURVE",
"203 567 CURVE SMOOTH",
"225 593 OFFCURVE",
"251.5 612.833 OFFCURVE",
"282.5 626.5 CURVE SMOOTH",
"313.5 640.167 OFFCURVE",
"348.333 647 OFFCURVE",
"387 647 CURVE SMOOTH",
"425.667 647 OFFCURVE",
"460.5 640.167 OFFCURVE",
"491.5 626.5 CURVE SMOOTH",
"522.5 612.833 OFFCURVE",
"549 593 OFFCURVE",
"571 567 CURVE SMOOTH",
"593 541 OFFCURVE",
"610 509.5 OFFCURVE",
"622 472.5 CURVE SMOOTH",
"634 435.5 OFFCURVE",
"640 393.667 OFFCURVE",
"640 347 CURVE SMOOTH",
"640 300.333 OFFCURVE",
"634 258.5 OFFCURVE",
"622 221.5 CURVE SMOOTH",
"610 184.5 OFFCURVE",
"593 153 OFFCURVE",
"571 127 CURVE SMOOTH",
"549 101 OFFCURVE",
"522.5 81 OFFCURVE",
"491.5 67 CURVE SMOOTH",
"460.5 53 OFFCURVE",
"425.667 46 OFFCURVE",
"387 46 CURVE SMOOTH"
);
},
{
closed = 1;
nodes = (
"646 -48.667 OFFCURVE",
"647.333 -69.833 OFFCURVE",
"650 -89.5 CURVE SMOOTH",
"652.667 -109.167 OFFCURVE",
"658.333 -126.167 OFFCURVE",
"667 -140.5 CURVE SMOOTH",
"675.667 -154.833 OFFCURVE",
"688.5 -166.167 OFFCURVE",
"705.5 -174.5 CURVE SMOOTH",
"722.5 -182.833 OFFCURVE",
"745 -187 OFFCURVE",
"773 -187 CURVE SMOOTH",
"784.333 -187 OFFCURVE",
"794.833 -186 OFFCURVE",
"804.5 -184 CURVE SMOOTH",
"814.167 -182 OFFCURVE",
"821.667 -180 OFFCURVE",
"827 -178 CURVE",
"818 -124 LINE",
"814.667 -125.333 OFFCURVE",
"809.667 -126.667 OFFCURVE",
"803 -128 CURVE SMOOTH",
"796.333 -129.333 OFFCURVE",
"789 -130 OFFCURVE",
"781 -130 CURVE SMOOTH",
"755.667 -130 OFFCURVE",
"737.833 -122.5 OFFCURVE",
"727.5 -107.5 CURVE SMOOTH",
"717.167 -92.5 OFFCURVE",
"712 -69 OFFCURVE",
"712 -37 CURVE SMOOTH",
"712 347 LINE SMOOTH",
"712 406.333 OFFCURVE",
"703.333 458.5 OFFCURVE",
"686 503.5 CURVE SMOOTH",
"668.667 548.5 OFFCURVE",
"645.167 586.167 OFFCURVE",
"615.5 616.5 CURVE SMOOTH",
"585.833 646.833 OFFCURVE",
"551.333 669.667 OFFCURVE",
"512 685 CURVE SMOOTH",
"472.667 700.333 OFFCURVE",
"431 708 OFFCURVE",
"387 708 CURVE SMOOTH",
"343 708 OFFCURVE",
"301.333 700.333 OFFCURVE",
"262 685 CURVE SMOOTH",
"222.667 669.667 OFFCURVE",
"188.167 646.833 OFFCURVE",
"158.5 616.5 CURVE SMOOTH",
"128.833 586.167 OFFCURVE",
"105.333 548.5 OFFCURVE",
"88 503.5 CURVE SMOOTH",
"70.667 458.5 OFFCURVE",
"62 406.333 OFFCURVE",
"62 347 CURVE SMOOTH",
"62 287.667 OFFCURVE",
"70.667 235.333 OFFCURVE",
"88 190 CURVE SMOOTH",
"105.333 144.667 OFFCURVE",
"128.833 106.833 OFFCURVE",
"158.5 76.5 CURVE SMOOTH",
"188.167 46.167 OFFCURVE",
"222.667 23.333 OFFCURVE",
"262 8 CURVE SMOOTH",
"301.333 -7.333 OFFCURVE",
"343 -15 OFFCURVE",
"387 -15 CURVE SMOOTH",
"415 -15 OFFCURVE",
"442.167 -11.5 OFFCURVE",
"468.5 -4.5 CURVE SMOOTH",
"494.833 2.5 OFFCURVE",
"519.333 12.333 OFFCURVE",
"542 25 CURVE SMOOTH",
"564.667 37.667 OFFCURVE",
"584.833 52.5 OFFCURVE",
"602.5 69.5 CURVE SMOOTH",
"620.167 86.5 OFFCURVE",
"634.667 104.667 OFFCURVE",
"646 124 CURVE",
"646 -26 LINE SMOOTH"
);
}
);
width = 789;
}
);
note = uni024A;
unicode = 024A;
},
{
glyphname = R;
lastChange = "2018-03-24 17:52:15 +0000";
layers = (
{
layerId = "ECA8ADC0-D5C0-4AFD-BCF0-9F577B806AFE";
paths = (
{
closed = 1;
nodes = (
"164 693 OFFCURVE",
"98 688 OFFCURVE",
"50 674 CURVE",
"39 623 OFFCURVE",
"35 66 OFFCURVE",
"50 7 CURVE",
"73 -3 OFFCURVE",
"88 -3 OFFCURVE",
"111 7 CURVE",
"111 100 OFFCURVE",
"104 235 OFFCURVE",
"118 274 CURVE",
"141 290 OFFCURVE",
"261 286 OFFCURVE",
"290 274 CURVE",
"317 240 OFFCURVE",
"411 107 OFFCURVE",
"474 7 CURVE",
"498 -6 OFFCURVE",
"517 -3 OFFCURVE",
"541 7 CURVE",
"560 15 OFFCURVE",
"366 267 OFFCURVE",
"366 290 CURVE",
"384 311 OFFCURVE",
"437 332 OFFCURVE",
"464 362 CURVE SMOOTH",
"491 392 OFFCURVE",
"505 433 OFFCURVE",
"505 485 CURVE SMOOTH",
"505 556 OFFCURVE",
"481 603 OFFCURVE",
"433 639 CURVE SMOOTH",
"384 675 OFFCURVE",
"312 693 OFFCURVE",
"217 693 CURVE SMOOTH"
);
},
{
closed = 1;
nodes = (
"442 432 OFFCURVE",
"418 388 OFFCURVE",
"367 363 CURVE SMOOTH",
"319 339 OFFCURVE",
"152 332 OFFCURVE",
"118 349 CURVE",
"103 386 OFFCURVE",
"101 586 OFFCURVE",
"120 627 CURVE",
"151 630 OFFCURVE",
"130 634 OFFCURVE",
"225 634 CURVE SMOOTH",
"280 634 OFFCURVE",
"334 631 OFFCURVE",
"374 605 CURVE SMOOTH",
"424 572 OFFCURVE",
"442 541 OFFCURVE",
"442 486 CURVE SMOOTH"
);
}
);
width = 572;
}
);
leftKerningGroup = R;
rightKerningGroup = R;
unicode = 0052;
},
{
glyphname = Rstroke;
lastChange = "2018-03-22 14:29:51 +0000";
layers = (
{
layerId = "ECA8ADC0-D5C0-4AFD-BCF0-9F577B806AFE";
paths = (
{
closed = 1;
nodes = (
"608 0 LINE",
"596 26.667 OFFCURVE",
"581.333 54.667 OFFCURVE",
"564 84 CURVE SMOOTH",
"546.667 113.333 OFFCURVE",
"529 141.5 OFFCURVE",
"511 168.5 CURVE SMOOTH",
"493 195.5 OFFCURVE",
"475.5 220.333 OFFCURVE",
"458.5 243 CURVE SMOOTH",
"441.5 265.667 OFFCURVE",
"427.667 283.667 OFFCURVE",
"417 297 CURVE",
"461.667 310.333 OFFCURVE",
"497.667 332 OFFCURVE",
"525 362 CURVE SMOOTH",
"552.333 392 OFFCURVE",
"566 433 OFFCURVE",
"566 485 CURVE SMOOTH",
"566 555.667 OFFCURVE",
"541.833 609 OFFCURVE",
"493.5 645 CURVE SMOOTH",
"445.167 681 OFFCURVE",
"373.333 699 OFFCURVE",
"278 699 CURVE SMOOTH",
"250.667 699 OFFCURVE",
"220.833 697.5 OFFCURVE",
"188.5 694.5 CURVE SMOOTH",
"156.167 691.5 OFFCURVE",
"128 686.667 OFFCURVE",
"104 680 CURVE",
"104 338 LINE",
"24 338 LINE",
"24 283 LINE",
"104 283 LINE",
"104 0 LINE",
"172 0 LINE",
"172 283 LINE",
"284 283 LINE SMOOTH",
"294.667 283 OFFCURVE",
"305.333 283 OFFCURVE",
"316 283 CURVE SMOOTH",
"326.667 283 OFFCURVE",
"337 283.667 OFFCURVE",
"347 285 CURVE",
"359 269 OFFCURVE",
"373 250.167 OFFCURVE",
"389 228.5 CURVE SMOOTH",
"405 206.833 OFFCURVE",
"421.5 183.5 OFFCURVE",
"438.5 158.5 CURVE SMOOTH",
"455.5 133.5 OFFCURVE",
"472.333 107.5 OFFCURVE",
"489 80.5 CURVE SMOOTH",
"505.667 53.5 OFFCURVE",
"521 26.667 OFFCURVE",
"535 0 CURVE"
);
},
{
closed = 1;
nodes = (
"495 452.667 OFFCURVE",
"489 426.333 OFFCURVE",
"477 407 CURVE SMOOTH",
"465 387.667 OFFCURVE",
"448.667 372.833 OFFCURVE",
"428 362.5 CURVE SMOOTH",
"407.333 352.167 OFFCURVE",
"383 345.5 OFFCURVE",
"355 342.5 CURVE SMOOTH",
"327 339.5 OFFCURVE",
"297.333 338 OFFCURVE",
"266 338 CURVE SMOOTH",
"172 338 LINE",
"172 633 LINE",
"184.667 634.333 OFFCURVE",
"200.5 635.833 OFFCURVE",
"219.5 637.5 CURVE SMOOTH",
"238.5 639.167 OFFCURVE",
"260.667 640 OFFCURVE",
"286 640 CURVE SMOOTH",
"312.667 640 OFFCURVE",
"338.5 637.833 OFFCURVE",
"363.5 633.5 CURVE SMOOTH",
"388.5 629.167 OFFCURVE",
"410.667 621.167 OFFCURVE",
"430 609.5 CURVE SMOOTH",
"449.333 597.833 OFFCURVE",
"465 582 OFFCURVE",
"477 562 CURVE SMOOTH",
"489 542 OFFCURVE",
"495 516.667 OFFCURVE",
"495 486 CURVE SMOOTH"
);
}
);
width = 632;
}
);
note = uni024C;
rightKerningGroup = R;
unicode = 024C;
},
{
glyphname = S;
lastChange = "2018-03-24 18:24:17 +0000";
layers = (
{
layerId = "ECA8ADC0-D5C0-4AFD-BCF0-9F577B806AFE";
paths = (
{
closed = 1;
nodes = (
"41 105 OFFCURVE",
"21 66 OFFCURVE",
"35 46 CURVE",
"52 36 OFFCURVE",
"85 23 OFFCURVE",
"107 17 CURVE SMOOTH",
"146 6 OFFCURVE",
"196 -1 OFFCURVE",
"239 -1 CURVE SMOOTH",
"314 -1 OFFCURVE",
"373 15 OFFCURVE",
"417 46 CURVE SMOOTH",
"483 92 OFFCURVE",
"500 183 OFFCURVE",
"466 254 CURVE SMOOTH",
"445 298 OFFCURVE",
"407 328 OFFCURVE",
"360 350 CURVE SMOOTH",
"335 361 OFFCURVE",
"234 404 OFFCURVE",
"219 411 CURVE SMOOTH",
"186 426 OFFCURVE",
"152 446 OFFCURVE",
"135 478 CURVE SMOOTH",
"100 541 OFFCURVE",
"134 609 OFFCURVE",
"214 628 CURVE SMOOTH",
"255 638 OFFCURVE",
"316 636 OFFCURVE",
"364 622 CURVE SMOOTH",
"391 614 OFFCURVE",
"415 603 OFFCURVE",
"434 590 CURVE",
"454 590 OFFCURVE",
"471 628 OFFCURVE",
"458 647 CURVE",
"441 659 OFFCURVE",
"407 672 OFFCURVE",
"383 679 CURVE SMOOTH",
"355 687 OFFCURVE",
"311 693 OFFCURVE",
"277 693 CURVE SMOOTH",
"207 693 OFFCURVE",
"152 678 OFFCURVE",
"113 647 CURVE SMOOTH",
"74 616 OFFCURVE",
"54 586 OFFCURVE",
"54 527 CURVE SMOOTH",
"54 479 OFFCURVE",
"69 439 OFFCURVE",
"103 408 CURVE SMOOTH",
"119 393 OFFCURVE",
"138 379 OFFCURVE",
"161 367 CURVE SMOOTH",
"188 352 OFFCURVE",
"245 329 OFFCURVE",
"303 306 CURVE SMOOTH",
"340 291 OFFCURVE",
"376 269 OFFCURVE",
"397 233 CURVE SMOOTH",
"423 186 OFFCURVE",
"416 120 OFFCURVE",
"366 88 CURVE SMOOTH",
"336 69 OFFCURVE",
"294 58 OFFCURVE",
"240 58 CURVE SMOOTH",
"203 58 OFFCURVE",
"158 64 OFFCURVE",
"124 76 CURVE",
"57 105 LINE"
);
}
);
width = 513;
}
);
leftKerningGroup = S;
rightKerningGroup = S;
unicode = 0053;
},
{
glyphname = Scedilla;
lastChange = "2018-03-22 14:29:51 +0000";
layers = (
{
layerId = "ECA8ADC0-D5C0-4AFD-BCF0-9F577B806AFE";
paths = (
{
closed = 1;
nodes = (
"338.667 -8.333 OFFCURVE",
"389.333 9.333 OFFCURVE",
"426 40 CURVE SMOOTH",
"462.667 70.667 OFFCURVE",
"481 115 OFFCURVE",
"481 173 CURVE SMOOTH",
"481 205 OFFCURVE",
"475.667 232 OFFCURVE",
"465 254 CURVE SMOOTH",
"454.333 276 OFFCURVE",
"440 294.667 OFFCURVE",
"422 310 CURVE SMOOTH",
"404 325.333 OFFCURVE",
"382.833 338.667 OFFCURVE",
"358.5 350 CURVE SMOOTH",
"334.167 361.333 OFFCURVE",
"308.333 372.667 OFFCURVE",
"281 384 CURVE SMOOTH",
"258.333 393.333 OFFCURVE",
"237.333 402.333 OFFCURVE",
"218 411 CURVE SMOOTH",
"198.667 419.667 OFFCURVE",
"181.833 429.333 OFFCURVE",
"167.5 440 CURVE SMOOTH",
"153.167 450.667 OFFCURVE",
"142 463.333 OFFCURVE",
"134 478 CURVE SMOOTH",
"126 492.667 OFFCURVE",
"122 510.667 OFFCURVE",
"122 532 CURVE SMOOTH",
"122 552.667 OFFCURVE",
"125.833 570.333 OFFCURVE",
"133.5 585 CURVE SMOOTH",
"141.167 599.667 OFFCURVE",
"151.667 611.833 OFFCURVE",
"165 621.5 CURVE SMOOTH",
"178.333 631.167 OFFCURVE",
"194.167 638.167 OFFCURVE",
"212.5 642.5 CURVE SMOOTH",
"230.833 646.833 OFFCURVE",
"251 649 OFFCURVE",
"273 649 CURVE SMOOTH",
"305 649 OFFCURVE",
"334.833 645 OFFCURVE",
"362.5 637 CURVE SMOOTH",
"390.167 629 OFFCURVE",
"413.667 618.333 OFFCURVE",
"433 605 CURVE",
"457 662 LINE",
"448.333 668 OFFCURVE",
"437.5 673.667 OFFCURVE",
"424.5 679 CURVE SMOOTH",
"411.5 684.333 OFFCURVE",
"397.167 689.167 OFFCURVE",
"381.5 693.5 CURVE SMOOTH",
"365.833 697.833 OFFCURVE",
"349 701.333 OFFCURVE",
"331 704 CURVE SMOOTH",
"313 706.667 OFFCURVE",
"294.667 708 OFFCURVE",
"276 708 CURVE SMOOTH",
"206 708 OFFCURVE",
"151.333 692.667 OFFCURVE",
"112 662 CURVE SMOOTH",
"72.667 631.333 OFFCURVE",
"53 586.333 OFFCURVE",
"53 527 CURVE SMOOTH",
"53 501 OFFCURVE",
"57.167 478.333 OFFCURVE",
"65.5 459 CURVE SMOOTH",
"73.833 439.667 OFFCURVE",
"86 422.5 OFFCURVE",
"102 407.5 CURVE SMOOTH",
"118 392.5 OFFCURVE",
"137.333 379 OFFCURVE",
"160 367 CURVE SMOOTH",
"182.667 355 OFFCURVE",
"208.333 343.333 OFFCURVE",
"237 332 CURVE SMOOTH",
"259.667 322.667 OFFCURVE",
"281.333 313.833 OFFCURVE",
"302 305.5 CURVE SMOOTH",
"322.667 297.167 OFFCURVE",
"341 287.167 OFFCURVE",
"357 275.5 CURVE SMOOTH",
"373 263.833 OFFCURVE",
"385.833 249.5 OFFCURVE",
"395.5 232.5 CURVE SMOOTH",
"405.167 215.5 OFFCURVE",
"410 194.333 OFFCURVE",
"410 169 CURVE SMOOTH",
"410 125 OFFCURVE",
"395 93.167 OFFCURVE",
"365 73.5 CURVE SMOOTH",
"335 53.833 OFFCURVE",
"293 44 OFFCURVE",
"239 44 CURVE SMOOTH",
"215.667 44 OFFCURVE",
"194.333 45.667 OFFCURVE",
"175 49 CURVE SMOOTH",
"155.667 52.333 OFFCURVE",
"138.333 56.5 OFFCURVE",
"123 61.5 CURVE SMOOTH",
"107.667 66.5 OFFCURVE",
"94.333 71.667 OFFCURVE",
"83 77 CURVE SMOOTH",
"71.667 82.333 OFFCURVE",
"62.667 87 OFFCURVE",
"56 91 CURVE",
"34 32 LINE",
"40 28 OFFCURVE",
"48.833 23.5 OFFCURVE",
"60.5 18.5 CURVE SMOOTH",
"72.167 13.5 OFFCURVE",
"86.167 8.5 OFFCURVE",
"102.5 3.5 CURVE SMOOTH",
"118.833 -1.5 OFFCURVE",
"137.5 -5.667 OFFCURVE",
"158.5 -9 CURVE SMOOTH",
"179.5 -12.333 OFFCURVE",
"202.667 -14.333 OFFCURVE",
"228 -15 CURVE",
"223.333 -23.667 OFFCURVE",
"219 -32.333 OFFCURVE",
"215 -41 CURVE SMOOTH",
"211 -49.667 OFFCURVE",
"208 -57.667 OFFCURVE",
"206 -65 CURVE",
"226 -73 OFFCURVE",
"240.667 -80 OFFCURVE",
"250 -86 CURVE SMOOTH",
"259.333 -92 OFFCURVE",
"264 -100.667 OFFCURVE",
"264 -112 CURVE SMOOTH",
"264 -131.333 OFFCURVE",
"250.333 -141 OFFCURVE",
"223 -141 CURVE SMOOTH",
"209.667 -141 OFFCURVE",
"198.333 -140.333 OFFCURVE",
"189 -139 CURVE SMOOTH",
"179.667 -137.667 OFFCURVE",
"171.333 -135.333 OFFCURVE",
"164 -132 CURVE",
"156 -175 LINE",
"162 -178.333 OFFCURVE",
"172 -181.167 OFFCURVE",
"186 -183.5 CURVE SMOOTH",
"200 -185.833 OFFCURVE",
"213.667 -187 OFFCURVE",
"227 -187 CURVE SMOOTH",
"247 -187 OFFCURVE",
"263.333 -184.667 OFFCURVE",
"276 -180 CURVE SMOOTH",
"288.667 -175.333 OFFCURVE",
"298.667 -169.333 OFFCURVE",
"306 -162 CURVE SMOOTH",
"313.333 -154.667 OFFCURVE",
"318.333 -146.5 OFFCURVE",
"321 -137.5 CURVE SMOOTH",
"323.667 -128.5 OFFCURVE",
"325 -120 OFFCURVE",
"325 -112 CURVE SMOOTH",
"325 -92.667 OFFCURVE",
"319.5 -77.167 OFFCURVE",
"308.5 -65.5 CURVE SMOOTH",
"297.5 -53.833 OFFCURVE",
"282.667 -44 OFFCURVE",
"264 -36 CURVE",
"265.333 -32.667 OFFCURVE",
"266.833 -29 OFFCURVE",
"268.5 -25 CURVE SMOOTH",
"270.167 -21 OFFCURVE",
"272 -17 OFFCURVE",
"274 -13 CURVE"
);
}
);
width = 517;
}
);
leftKerningGroup = S;
rightKerningGroup = S;
unicode = 015E;
},
{
glyphname = Schwa;
lastChange = "2018-03-22 14:29:51 +0000";
layers = (
{
layerId = "ECA8ADC0-D5C0-4AFD-BCF0-9F577B806AFE";
paths = (
{
closed = 1;
nodes = (
"559 273 OFFCURVE",
"553.167 242.833 OFFCURVE",
"543.5 212.5 CURVE SMOOTH",
"533.833 182.167 OFFCURVE",
"519.833 154.5 OFFCURVE",
"501.5 129.5 CURVE SMOOTH",
"483.167 104.5 OFFCURVE",
"459.833 84.167 OFFCURVE",
"431.5 68.5 CURVE SMOOTH",
"403.167 52.833 OFFCURVE",
"369.667 45 OFFCURVE",
"331 45 CURVE SMOOTH",
"297 45 OFFCURVE",
"267.5 51.5 OFFCURVE",
"242.5 64.5 CURVE SMOOTH",
"217.5 77.5 OFFCURVE",
"196.667 95.5 OFFCURVE",
"180 118.5 CURVE SMOOTH",
"163.333 141.5 OFFCURVE",
"151 168.667 OFFCURVE",
"143 200 CURVE SMOOTH",
"135 231.333 OFFCURVE",
"131 265.667 OFFCURVE",
"131 303 CURVE",
"561 303 LINE"
);
},
{
closed = 1;
nodes = (
"61.333 357.667 OFFCURVE",
"60.833 353.167 OFFCURVE",
"60.5 347.5 CURVE SMOOTH",
"60.167 341.833 OFFCURVE",
"60 336.667 OFFCURVE",
"60 332 CURVE SMOOTH",
"60 216 OFFCURVE",
"83.167 129.167 OFFCURVE",
"129.5 71.5 CURVE SMOOTH",
"175.833 13.833 OFFCURVE",
"242 -15 OFFCURVE",
"328 -15 CURVE SMOOTH",
"370 -15 OFFCURVE",
"409.5 -7.5 OFFCURVE",
"446.5 7.5 CURVE SMOOTH",
"483.5 22.5 OFFCURVE",
"515.667 45.333 OFFCURVE",
"543 76 CURVE SMOOTH",
"570.333 106.667 OFFCURVE",
"592 144.833 OFFCURVE",
"608 190.5 CURVE SMOOTH",
"624 236.167 OFFCURVE",
"632 289.667 OFFCURVE",
"632 351 CURVE SMOOTH",
"632 408.333 OFFCURVE",
"624.333 459.167 OFFCURVE",
"609 503.5 CURVE SMOOTH",
"593.667 547.833 OFFCURVE",
"572 585.167 OFFCURVE",
"544 615.5 CURVE SMOOTH",
"516 645.833 OFFCURVE",
"482.5 668.833 OFFCURVE",
"443.5 684.5 CURVE SMOOTH",
"404.5 700.167 OFFCURVE",
"361.333 708 OFFCURVE",
"314 708 CURVE SMOOTH",
"260 708 OFFCURVE",
"215.833 702.5 OFFCURVE",
"181.5 691.5 CURVE SMOOTH",
"147.167 680.5 OFFCURVE",
"122.333 670 OFFCURVE",
"107 660 CURVE",
"129 602 LINE",
"147.667 615.333 OFFCURVE",
"173.167 626.167 OFFCURVE",
"205.5 634.5 CURVE SMOOTH",
"237.833 642.833 OFFCURVE",
"273.333 647 OFFCURVE",
"312 647 CURVE SMOOTH",
"386.667 647 OFFCURVE",
"446.167 623 OFFCURVE",
"490.5 575 CURVE SMOOTH",
"534.833 527 OFFCURVE",
"558.333 455.667 OFFCURVE",
"561 361 CURVE",
"62 361 LINE"
);
}
);
width = 694;
}
);
leftKerningGroup = Schwa;
note = uni018F;
rightKerningGroup = O;
unicode = 018F;
},
{
glyphname = T;
lastChange = "2018-03-24 18:27:25 +0000";
layers = (
{
layerId = "ECA8ADC0-D5C0-4AFD-BCF0-9F577B806AFE";
paths = (
{
closed = 1;
nodes = (
"8 666 OFFCURVE",
"6 658 OFFCURVE",
"19 638 CURVE",
"37 629 OFFCURVE",
"218 643 OFFCURVE",
"238 629 CURVE",
"248 614 OFFCURVE",
"237 24 OFFCURVE",
"249 8 CURVE",
"272 -4 OFFCURVE",
"277 -4 OFFCURVE",
"300 8 CURVE",
"317 24 OFFCURVE",
"305 611 OFFCURVE",
"314 629 CURVE",
"353 643 OFFCURVE",
"512 627 OFFCURVE",
"531 641 CURVE",
"544 661 OFFCURVE",
"544 666 OFFCURVE",
"531 686 CURVE",
"507 697 OFFCURVE",
"37 694 OFFCURVE",
"19 686 CURVE"
);
}
);
width = 551;
}
);
leftKerningGroup = T;
rightKerningGroup = T;
unicode = 0054;
},
{
glyphname = Tbar;
lastChange = "2018-03-22 14:29:51 +0000";
layers = (
{
layerId = "ECA8ADC0-D5C0-4AFD-BCF0-9F577B806AFE";
paths = (
{
closed = 1;
nodes = (
"18 634 LINE",
"240 634 LINE",
"240 383 LINE",
"116 383 LINE",
"116 329 LINE",
"240 329 LINE",
"240 0 LINE",
"308 0 LINE",
"308 329 LINE",
"432 329 LINE",
"432 383 LINE",
"308 383 LINE",
"308 634 LINE",
"530 634 LINE",
"530 693 LINE",
"18 693 LINE"
);
}
);
width = 548;
}
);
leftKerningGroup = T;
rightKerningGroup = T;
unicode = 0166;
},
{
glyphname = Tcedilla;
lastChange = "2018-03-22 14:29:51 +0000";
layers = (
{
layerId = "ECA8ADC0-D5C0-4AFD-BCF0-9F577B806AFE";
paths = (
{
closed = 1;
nodes = (
"308 0 LINE",
"308 634 LINE",
"530 634 LINE",
"530 693 LINE",
"18 693 LINE",
"18 634 LINE",
"240 634 LINE",
"240 0 LINE",
"252 0 LINE",
"246.667 -9.333 OFFCURVE",
"241.333 -20.167 OFFCURVE",
"236 -32.5 CURVE SMOOTH",
"230.667 -44.833 OFFCURVE",
"226.333 -55.667 OFFCURVE",
"223 -65 CURVE",
"243 -73 OFFCURVE",
"257.667 -80 OFFCURVE",
"267 -86 CURVE SMOOTH",
"276.333 -92 OFFCURVE",
"281 -100.667 OFFCURVE",
"281 -112 CURVE SMOOTH",
"281 -131.333 OFFCURVE",
"267.333 -141 OFFCURVE",
"240 -141 CURVE SMOOTH",
"226.667 -141 OFFCURVE",
"215.333 -140.333 OFFCURVE",
"206 -139 CURVE SMOOTH",
"196.667 -137.667 OFFCURVE",
"188.333 -135.333 OFFCURVE",
"181 -132 CURVE",
"173 -175 LINE",
"179 -178.333 OFFCURVE",
"189 -181.167 OFFCURVE",
"203 -183.5 CURVE SMOOTH",
"217 -185.833 OFFCURVE",
"230.667 -187 OFFCURVE",
"244 -187 CURVE SMOOTH",
"264 -187 OFFCURVE",
"280.333 -184.667 OFFCURVE",
"293 -180 CURVE SMOOTH",
"305.667 -175.333 OFFCURVE",
"315.667 -169.333 OFFCURVE",
"323 -162 CURVE SMOOTH",
"330.333 -154.667 OFFCURVE",
"335.333 -146.5 OFFCURVE",
"338 -137.5 CURVE SMOOTH",
"340.667 -128.5 OFFCURVE",
"342 -120 OFFCURVE",
"342 -112 CURVE SMOOTH",
"342 -92.667 OFFCURVE",
"336.5 -77.167 OFFCURVE",
"325.5 -65.5 CURVE SMOOTH",
"314.5 -53.833 OFFCURVE",
"299.667 -44 OFFCURVE",
"281 -36 CURVE",
"283 -30.667 OFFCURVE",
"285.5 -24.833 OFFCURVE",
"288.5 -18.5 CURVE SMOOTH",
"291.5 -12.167 OFFCURVE",
"294.667 -6 OFFCURVE",
"298 0 CURVE"
);
}
);
width = 548;
}
);
note = uni0162;
unicode = 0162;
},
{
glyphname = Tdiagonalstroke;
lastChange = "2018-03-22 14:29:51 +0000";
layers = (
{
layerId = "ECA8ADC0-D5C0-4AFD-BCF0-9F577B806AFE";
paths = (
{
closed = 1;
nodes = (
"18 634 LINE",
"240 634 LINE",
"240 295 LINE",
"27 -5 LINE",
"74 -37 LINE",
"240 197 LINE",
"240 0 LINE",
"307 0 LINE",
"307 283 LINE",
"619 724 LINE",
"571 756 LINE",
"526 693 LINE",
"18 693 LINE"
);
},
{
closed = 1;
nodes = (
"485 634 LINE",
"307 382 LINE",
"307 634 LINE"
);
}
);
width = 579;
}
);
leftKerningGroup = Tdiagonalstroke;
note = uni023E;
rightKerningGroup = Tdiagonalstroke;
unicode = 023E;
},
{
glyphname = Thook;
lastChange = "2018-03-22 14:29:51 +0000";
layers = (
{
layerId = "ECA8ADC0-D5C0-4AFD-BCF0-9F577B806AFE";
paths = (
{
closed = 1;
nodes = (
"255 0 LINE",
"323 0 LINE",
"323 634 LINE",
"545 634 LINE",
"545 693 LINE",
"208 693 LINE SMOOTH",
"181.333 693 OFFCURVE",
"156.667 690.667 OFFCURVE",
"134 686 CURVE SMOOTH",
"111.333 681.333 OFFCURVE",
"91.5 673.333 OFFCURVE",
"74.5 662 CURVE SMOOTH",
"57.5 650.667 OFFCURVE",
"44.167 635.333 OFFCURVE",
"34.5 616 CURVE SMOOTH",
"24.833 596.667 OFFCURVE",
"20 572.333 OFFCURVE",
"20 543 CURVE SMOOTH",
"20 537 OFFCURVE",
"20.667 528.833 OFFCURVE",
"22 518.5 CURVE SMOOTH",
"23.333 508.167 OFFCURVE",
"24.667 500.333 OFFCURVE",
"26 495 CURVE",
"82 503 LINE",
"80.667 509 OFFCURVE",
"79.833 515 OFFCURVE",
"79.5 521 CURVE SMOOTH",
"79.167 527 OFFCURVE",
"79 531.667 OFFCURVE",
"79 535 CURVE SMOOTH",
"79 566.333 OFFCURVE",
"87.167 590.667 OFFCURVE",
"103.5 608 CURVE SMOOTH",
"119.833 625.333 OFFCURVE",
"144.333 634 OFFCURVE",
"177 634 CURVE SMOOTH",
"255 634 LINE"
);
}
);
width = 563;
}
);
note = uni01AC;
rightKerningGroup = T;
unicode = 01AC;
},
{
glyphname = Tonefive;
lastChange = "2018-03-22 14:29:51 +0000";
layers = (
{
layerId = "ECA8ADC0-D5C0-4AFD-BCF0-9F577B806AFE";
paths = (
{
closed = 1;
nodes = (
"468 693 LINE",
"35 693 LINE",
"35 634 LINE",
"133 634 LINE",
"132.333 613.333 OFFCURVE",
"131.333 592.667 OFFCURVE",
"130 572 CURVE SMOOTH",
"128.667 551.333 OFFCURVE",
"127.167 530 OFFCURVE",
"125.5 508 CURVE SMOOTH",
"123.833 486 OFFCURVE",
"121.667 462.833 OFFCURVE",
"119 438.5 CURVE SMOOTH",
"116.333 414.167 OFFCURVE",
"113.333 388 OFFCURVE",
"110 360 CURVE",
"166.667 360 OFFCURVE",
"215 356.333 OFFCURVE",
"255 349 CURVE SMOOTH",
"295 341.667 OFFCURVE",
"327.5 331 OFFCURVE",
"352.5 317 CURVE SMOOTH",
"377.5 303 OFFCURVE",
"395.667 285.5 OFFCURVE",
"407 264.5 CURVE SMOOTH",
"418.333 243.5 OFFCURVE",
"424 219.333 OFFCURVE",
"424 192 CURVE SMOOTH",
"424 170.667 OFFCURVE",
"420.667 151.167 OFFCURVE",
"414 133.5 CURVE SMOOTH",
"407.333 115.833 OFFCURVE",
"396.333 100.333 OFFCURVE",
"381 87 CURVE SMOOTH",
"365.667 73.667 OFFCURVE",
"345.667 63.333 OFFCURVE",
"321 56 CURVE SMOOTH",
"296.333 48.667 OFFCURVE",
"266 45 OFFCURVE",
"230 45 CURVE SMOOTH",
"192 45 OFFCURVE",
"158.833 49.333 OFFCURVE",
"130.5 58 CURVE SMOOTH",
"102.167 66.667 OFFCURVE",
"81.333 74.667 OFFCURVE",
"68 82 CURVE",
"51 24 LINE",
"55.667 20.667 OFFCURVE",
"63.833 16.833 OFFCURVE",
"75.5 12.5 CURVE SMOOTH",
"87.167 8.167 OFFCURVE",
"101.167 4 OFFCURVE",
"117.5 0 CURVE SMOOTH",
"133.833 -4 OFFCURVE",
"151.833 -7.5 OFFCURVE",
"171.5 -10.5 CURVE SMOOTH",
"191.167 -13.5 OFFCURVE",
"211.333 -15 OFFCURVE",
"232 -15 CURVE SMOOTH",
"278.667 -15 OFFCURVE",
"318.667 -9.833 OFFCURVE",
"352 0.5 CURVE SMOOTH",
"385.333 10.833 OFFCURVE",
"412.667 25.167 OFFCURVE",
"434 43.5 CURVE SMOOTH",
"455.333 61.833 OFFCURVE",
"471 83.667 OFFCURVE",
"481 109 CURVE SMOOTH",
"491 134.333 OFFCURVE",
"496 162.333 OFFCURVE",
"496 193 CURVE SMOOTH",
"496 226.333 OFFCURVE",
"490 256.333 OFFCURVE",
"478 283 CURVE SMOOTH",
"466 309.667 OFFCURVE",
"447.333 332.5 OFFCURVE",
"422 351.5 CURVE SMOOTH",
"396.667 370.5 OFFCURVE",
"363.667 385.667 OFFCURVE",
"323 397 CURVE SMOOTH",
"282.333 408.333 OFFCURVE",
"233.667 415.667 OFFCURVE",
"177 419 CURVE",
"179 430.333 OFFCURVE",
"180.833 445.5 OFFCURVE",
"182.5 464.5 CURVE SMOOTH",
"184.167 483.5 OFFCURVE",
"185.833 503.5 OFFCURVE",
"187.5 524.5 CURVE SMOOTH",
"189.167 545.5 OFFCURVE",
"190.5 565.833 OFFCURVE",
"191.5 585.5 CURVE SMOOTH",
"192.5 605.167 OFFCURVE",
"193.333 621.333 OFFCURVE",
"194 634 CURVE",
"468 634 LINE"
);
}
);
width = 539;
}
);
note = uni01BC;
rightKerningGroup = Tonefive;
unicode = 01BC;
},
{
glyphname = Tonesix;
lastChange = "2018-03-22 14:29:51 +0000";
layers = (
{
layerId = "ECA8ADC0-D5C0-4AFD-BCF0-9F577B806AFE";
paths = (
{
closed = 1;
nodes = (
"141 773.333 OFFCURVE",
"130.167 769.833 OFFCURVE",
"118.5 765.5 CURVE SMOOTH",
"106.833 761.167 OFFCURVE",
"95.167 756.333 OFFCURVE",
"83.5 751 CURVE SMOOTH",
"71.833 745.667 OFFCURVE",
"60.667 740.333 OFFCURVE",
"50 735 CURVE SMOOTH",
"39.333 729.667 OFFCURVE",
"30.333 724.667 OFFCURVE",
"23 720 CURVE",
"86 651 LINE",
"86 16 LINE",
"105.333 9.333 OFFCURVE",
"130 3 OFFCURVE",
"160 -3 CURVE SMOOTH",
"190 -9 OFFCURVE",
"228 -12 OFFCURVE",
"274 -12 CURVE SMOOTH",
"312 -12 OFFCURVE",
"346.5 -5.833 OFFCURVE",
"377.5 6.5 CURVE SMOOTH",
"408.5 18.833 OFFCURVE",
"435.167 36.667 OFFCURVE",
"457.5 60 CURVE SMOOTH",
"479.833 83.333 OFFCURVE",
"497.167 111.667 OFFCURVE",
"509.5 145 CURVE SMOOTH",
"521.833 178.333 OFFCURVE",
"528 216 OFFCURVE",
"528 258 CURVE SMOOTH",
"528 297.333 OFFCURVE",
"522.833 333.5 OFFCURVE",
"512.5 366.5 CURVE SMOOTH",
"502.167 399.5 OFFCURVE",
"487 428 OFFCURVE",
"467 452 CURVE SMOOTH",
"447 476 OFFCURVE",
"422.5 494.667 OFFCURVE",
"393.5 508 CURVE SMOOTH",
"364.5 521.333 OFFCURVE",
"331.333 528 OFFCURVE",
"294 528 CURVE SMOOTH",
"260 528 OFFCURVE",
"230.5 523.167 OFFCURVE",
"205.5 513.5 CURVE SMOOTH",
"180.5 503.833 OFFCURVE",
"162.333 494.667 OFFCURVE",
"151 486 CURVE",
"151 776 LINE"
);
},
{
closed = 1;
nodes = (
"157 427.667 OFFCURVE",
"164.5 432.667 OFFCURVE",
"173.5 438 CURVE SMOOTH",
"182.5 443.333 OFFCURVE",
"193 448.333 OFFCURVE",
"205 453 CURVE SMOOTH",
"217 457.667 OFFCURVE",
"230 461.5 OFFCURVE",
"244 464.5 CURVE SMOOTH",
"258 467.5 OFFCURVE",
"272.667 469 OFFCURVE",
"288 469 CURVE SMOOTH",
"320 469 OFFCURVE",
"346.833 463.333 OFFCURVE",
"368.5 452 CURVE SMOOTH",
"390.167 440.667 OFFCURVE",
"407.667 425.5 OFFCURVE",
"421 406.5 CURVE SMOOTH",
"434.333 387.5 OFFCURVE",
"444 365.167 OFFCURVE",
"450 339.5 CURVE SMOOTH",
"456 313.833 OFFCURVE",
"459 286.667 OFFCURVE",
"459 258 CURVE SMOOTH",
"459 190 OFFCURVE",
"442 137.833 OFFCURVE",
"408 101.5 CURVE SMOOTH",
"374 65.167 OFFCURVE",
"329 47 OFFCURVE",
"273 47 CURVE SMOOTH",
"241 47 OFFCURVE",
"215.167 48.5 OFFCURVE",
"195.5 51.5 CURVE SMOOTH",
"175.833 54.5 OFFCURVE",
"161 57.667 OFFCURVE",
"151 61 CURVE",
"151 423 LINE"
);
}
);
width = 583;
}
);
leftKerningGroup = b;
note = uni0184;
unicode = 0184;
},
{
glyphname = Tonetwo;
lastChange = "2018-03-22 14:29:51 +0000";
layers = (
{
layerId = "ECA8ADC0-D5C0-4AFD-BCF0-9F577B806AFE";
paths = (
{
closed = 1;
nodes = (
"107 194.333 OFFCURVE",
"111.667 215.5 OFFCURVE",
"121 232.5 CURVE SMOOTH",
"130.333 249.5 OFFCURVE",
"143 263.833 OFFCURVE",
"159 275.5 CURVE SMOOTH",
"175 287.167 OFFCURVE",
"193.333 297.167 OFFCURVE",
"214 305.5 CURVE SMOOTH",
"234.667 313.833 OFFCURVE",
"256.333 322.667 OFFCURVE",
"279 332 CURVE SMOOTH",
"307.667 343.333 OFFCURVE",
"333.5 355 OFFCURVE",
"356.5 367 CURVE SMOOTH",
"379.5 379 OFFCURVE",
"399 392.5 OFFCURVE",
"415 407.5 CURVE SMOOTH",
"431 422.5 OFFCURVE",
"443.167 439.667 OFFCURVE",
"451.5 459 CURVE SMOOTH",
"459.833 478.333 OFFCURVE",
"464 501 OFFCURVE",
"464 527 CURVE SMOOTH",
"464 586.333 OFFCURVE",
"444.833 631.333 OFFCURVE",
"406.5 662 CURVE SMOOTH",
"368.167 692.667 OFFCURVE",
"313.667 708 OFFCURVE",
"243 708 CURVE SMOOTH",
"224.333 708 OFFCURVE",
"205.833 706.667 OFFCURVE",
"187.5 704 CURVE SMOOTH",
"169.167 701.333 OFFCURVE",
"152 697.833 OFFCURVE",
"136 693.5 CURVE SMOOTH",
"120 689.167 OFFCURVE",
"105.5 684.333 OFFCURVE",
"92.5 679 CURVE SMOOTH",
"79.5 673.667 OFFCURVE",
"68.667 668 OFFCURVE",
"60 662 CURVE",
"84 605 LINE",
"103.333 618.333 OFFCURVE",
"126.833 629 OFFCURVE",
"154.5 637 CURVE SMOOTH",
"182.167 645 OFFCURVE",
"212 649 OFFCURVE",
"244 649 CURVE SMOOTH",
"266 649 OFFCURVE",
"286.167 646.833 OFFCURVE",
"304.5 642.5 CURVE SMOOTH",
"322.833 638.167 OFFCURVE",
"338.667 631.167 OFFCURVE",
"352 621.5 CURVE SMOOTH",
"365.333 611.833 OFFCURVE",
"375.833 599.667 OFFCURVE",
"383.5 585 CURVE SMOOTH",
"391.167 570.333 OFFCURVE",
"395 552.667 OFFCURVE",
"395 532 CURVE SMOOTH",
"395 510.667 OFFCURVE",
"391 492.667 OFFCURVE",
"383 478 CURVE SMOOTH",
"375 463.333 OFFCURVE",
"364 450.667 OFFCURVE",
"350 440 CURVE SMOOTH",
"336 429.333 OFFCURVE",
"319.333 419.667 OFFCURVE",
"300 411 CURVE SMOOTH",
"280.667 402.333 OFFCURVE",
"259.667 393.333 OFFCURVE",
"237 384 CURVE SMOOTH",
"209.667 372.667 OFFCURVE",
"183.833 361.333 OFFCURVE",
"159.5 350 CURVE SMOOTH",
"135.167 338.667 OFFCURVE",
"113.833 325.333 OFFCURVE",
"95.5 310 CURVE SMOOTH",
"77.167 294.667 OFFCURVE",
"62.667 276 OFFCURVE",
"52 254 CURVE SMOOTH",
"41.333 232 OFFCURVE",
"36 205 OFFCURVE",
"36 173 CURVE SMOOTH",
"36 110.333 OFFCURVE",
"57.167 63.333 OFFCURVE",
"99.5 32 CURVE SMOOTH",
"141.833 0.667 OFFCURVE",
"201 -15 OFFCURVE",
"277 -15 CURVE SMOOTH",
"303.667 -15 OFFCURVE",
"328.167 -13.333 OFFCURVE",
"350.5 -10 CURVE SMOOTH",
"372.833 -6.667 OFFCURVE",
"392.667 -2.5 OFFCURVE",
"410 2.5 CURVE SMOOTH",
"427.333 7.5 OFFCURVE",
"442.167 12.667 OFFCURVE",
"454.5 18 CURVE SMOOTH",
"466.833 23.333 OFFCURVE",
"476.333 28 OFFCURVE",
"483 32 CURVE",
"461 91 LINE",
"454.333 87 OFFCURVE",
"445.333 82.333 OFFCURVE",
"434 77 CURVE SMOOTH",
"422.667 71.667 OFFCURVE",
"409.333 66.5 OFFCURVE",
"394 61.5 CURVE SMOOTH",
"378.667 56.5 OFFCURVE",
"361.333 52.333 OFFCURVE",
"342 49 CURVE SMOOTH",
"322.667 45.667 OFFCURVE",
"301.333 44 OFFCURVE",
"278 44 CURVE SMOOTH",
"224 44 OFFCURVE",
"182 53.833 OFFCURVE",
"152 73.5 CURVE SMOOTH",
"122 93.167 OFFCURVE",
"107 125 OFFCURVE",
"107 169 CURVE SMOOTH"
);
}
);
width = 517;
}
);
leftKerningGroup = Tonetwo;
note = uni01A7;
rightKerningGroup = Tonetwo;
unicode = 01A7;
},
{
glyphname = Tretroflexhook;
lastChange = "2018-03-22 14:29:51 +0000";
layers = (
{
layerId = "ECA8ADC0-D5C0-4AFD-BCF0-9F577B806AFE";
paths = (
{
closed = 1;
nodes = (
"530 634 LINE",
"530 693 LINE",
"18 693 LINE",
"18 634 LINE",
"240 634 LINE",
"240 -26 LINE SMOOTH",
"240 -48.667 OFFCURVE",
"241.5 -69.833 OFFCURVE",
"244.5 -89.5 CURVE SMOOTH",
"247.5 -109.167 OFFCURVE",
"253.667 -126.167 OFFCURVE",
"263 -140.5 CURVE SMOOTH",
"272.333 -154.833 OFFCURVE",
"285.333 -166.167 OFFCURVE",
"302 -174.5 CURVE SMOOTH",
"318.667 -182.833 OFFCURVE",
"341 -187 OFFCURVE",
"369 -187 CURVE SMOOTH",
"380.333 -187 OFFCURVE",
"390.833 -186 OFFCURVE",
"400.5 -184 CURVE SMOOTH",
"410.167 -182 OFFCURVE",
"417.667 -180 OFFCURVE",
"423 -178 CURVE",
"414 -124 LINE",
"410.667 -125.333 OFFCURVE",
"405.667 -126.667 OFFCURVE",
"399 -128 CURVE SMOOTH",
"392.333 -129.333 OFFCURVE",
"385 -130 OFFCURVE",
"377 -130 CURVE SMOOTH",
"351.667 -130 OFFCURVE",
"333.833 -122.5 OFFCURVE",
"323.5 -107.5 CURVE SMOOTH",
"313.167 -92.5 OFFCURVE",
"308 -69 OFFCURVE",
"308 -37 CURVE SMOOTH",
"308 634 LINE"
);
}
);
width = 548;
}
);
leftKerningGroup = T;
note = uni01AE;
rightKerningGroup = T;
unicode = 01AE;
},
{
glyphname = U;
lastChange = "2018-03-24 18:29:01 +0000";
layers = (
{
layerId = "ECA8ADC0-D5C0-4AFD-BCF0-9F577B806AFE";
paths = (
{
closed = 1;
nodes = (
"546 680 LINE",
"523 697 OFFCURVE",
"501 697 OFFCURVE",
"478 680 CURVE",
"478 281 LINE SMOOTH",
"478 221 OFFCURVE",
"466 158 OFFCURVE",
"427 114 CURVE SMOOTH",
"394 77 OFFCURVE",
"346 61 OFFCURVE",
"293 61 CURVE SMOOTH",
"243 61 OFFCURVE",
"194 75 OFFCURVE",
"159 114 CURVE SMOOTH",
"122 156 OFFCURVE",
"108 218 OFFCURVE",
"108 281 CURVE SMOOTH",
"108 680 LINE",
"85 697 OFFCURVE",
"63 697 OFFCURVE",
"40 680 CURVE",
"40 272 LINE SMOOTH",
"40 203 OFFCURVE",
"54 131 OFFCURVE",
"97 79 CURVE SMOOTH",
"144 23 OFFCURVE",
"214 0 OFFCURVE",
"293 0 CURVE SMOOTH",
"372 0 OFFCURVE",
"443 23 OFFCURVE",
"489 79 CURVE SMOOTH",
"531 130 OFFCURVE",
"546 200 OFFCURVE",
"546 272 CURVE SMOOTH"
);
}
);
width = 586;
}
);
leftKerningGroup = U;
rightKerningGroup = U;
unicode = 0055;
},
{
glyphname = Ubar;
lastChange = "2018-03-22 14:29:51 +0000";
layers = (
{
layerId = "ECA8ADC0-D5C0-4AFD-BCF0-9F577B806AFE";
paths = (
{
closed = 1;
nodes = (
"602 351 LINE",
"674 351 LINE",
"674 405 LINE",
"602 405 LINE",
"602 693 LINE",
"534 693 LINE",
"534 405 LINE",
"164 405 LINE",
"164 693 LINE",
"96 693 LINE",
"96 405 LINE",
"24 405 LINE",
"24 351 LINE",
"96 351 LINE",
"96 257 LINE SMOOTH",
"96 219 OFFCURVE",
"100.5 183.5 OFFCURVE",
"109.5 150.5 CURVE SMOOTH",
"118.5 117.5 OFFCURVE",
"133 88.667 OFFCURVE",
"153 64 CURVE SMOOTH",
"173 39.333 OFFCURVE",
"199.167 20 OFFCURVE",
"231.5 6 CURVE SMOOTH",
"263.833 -8 OFFCURVE",
"303 -15 OFFCURVE",
"349 -15 CURVE SMOOTH",
"395 -15 OFFCURVE",
"434.167 -8 OFFCURVE",
"466.5 6 CURVE SMOOTH",
"498.833 20 OFFCURVE",
"525 39.333 OFFCURVE",
"545 64 CURVE SMOOTH",
"565 88.667 OFFCURVE",
"579.5 117.5 OFFCURVE",
"588.5 150.5 CURVE SMOOTH",
"597.5 183.5 OFFCURVE",
"602 219 OFFCURVE",
"602 257 CURVE SMOOTH"
);
},
{
closed = 1;
nodes = (
"164 351 LINE",
"534 351 LINE",
"534 266 LINE SMOOTH",
"534 228 OFFCURVE",
"529.5 195.167 OFFCURVE",
"520.5 167.5 CURVE SMOOTH",
"511.5 139.833 OFFCURVE",
"499 117 OFFCURVE",
"483 99 CURVE SMOOTH",
"467 81 OFFCURVE",
"447.667 67.667 OFFCURVE",
"425 59 CURVE SMOOTH",
"402.333 50.333 OFFCURVE",
"377 46 OFFCURVE",
"349 46 CURVE SMOOTH",
"321 46 OFFCURVE",
"295.667 50.333 OFFCURVE",
"273 59 CURVE SMOOTH",
"250.333 67.667 OFFCURVE",
"231 81 OFFCURVE",
"215 99 CURVE SMOOTH",
"199 117 OFFCURVE",
"186.5 139.833 OFFCURVE",
"177.5 167.5 CURVE SMOOTH",
"168.5 195.167 OFFCURVE",
"164 228 OFFCURVE",
"164 266 CURVE SMOOTH"
);
}
);
width = 698;
}
);
leftKerningGroup = Ubar;
note = uni0244;
rightKerningGroup = Ubar;
unicode = 0244;
},
{
glyphname = Uhorn;
lastChange = "2018-03-22 14:29:51 +0000";
layers = (
{
layerId = "ECA8ADC0-D5C0-4AFD-BCF0-9F577B806AFE";
paths = (
{
closed = 1;
nodes = (
"525 266 LINE SMOOTH",
"525 228 OFFCURVE",
"520.5 195.167 OFFCURVE",
"511.5 167.5 CURVE SMOOTH",
"502.5 139.833 OFFCURVE",
"490 117 OFFCURVE",
"474 99 CURVE SMOOTH",
"458 81 OFFCURVE",
"438.667 67.667 OFFCURVE",
"416 59 CURVE SMOOTH",
"393.333 50.333 OFFCURVE",
"368 46 OFFCURVE",
"340 46 CURVE SMOOTH",
"312 46 OFFCURVE",
"286.667 50.333 OFFCURVE",
"264 59 CURVE SMOOTH",
"241.333 67.667 OFFCURVE",
"222 81 OFFCURVE",
"206 99 CURVE SMOOTH",
"190 117 OFFCURVE",
"177.5 139.833 OFFCURVE",
"168.5 167.5 CURVE SMOOTH",
"159.5 195.167 OFFCURVE",
"155 228 OFFCURVE",
"155 266 CURVE SMOOTH",
"155 693 LINE",
"87 693 LINE",
"87 257 LINE SMOOTH",
"87 219 OFFCURVE",
"91.5 183.5 OFFCURVE",
"100.5 150.5 CURVE SMOOTH",
"109.5 117.5 OFFCURVE",
"124 88.667 OFFCURVE",
"144 64 CURVE SMOOTH",
"164 39.333 OFFCURVE",
"190.167 20 OFFCURVE",
"222.5 6 CURVE SMOOTH",
"254.833 -8 OFFCURVE",
"294 -15 OFFCURVE",
"340 -15 CURVE SMOOTH",
"386 -15 OFFCURVE",
"425.167 -8 OFFCURVE",
"457.5 6 CURVE SMOOTH",
"489.833 20 OFFCURVE",
"516 39.333 OFFCURVE",
"536 64 CURVE SMOOTH",
"556 88.667 OFFCURVE",
"570.5 117.5 OFFCURVE",
"579.5 150.5 CURVE SMOOTH",
"588.5 183.5 OFFCURVE",
"593 219 OFFCURVE",
"593 257 CURVE SMOOTH",
"593 639 LINE",
"617 640.333 OFFCURVE",
"637 645.167 OFFCURVE",
"653 653.5 CURVE SMOOTH",
"669 661.833 OFFCURVE",
"681.667 672.5 OFFCURVE",
"691 685.5 CURVE SMOOTH",
"700.333 698.5 OFFCURVE",
"707 712.667 OFFCURVE",
"711 728 CURVE SMOOTH",
"715 743.333 OFFCURVE",
"717 758.667 OFFCURVE",
"717 774 CURVE SMOOTH",
"717 777.333 OFFCURVE",
"716.833 781.667 OFFCURVE",
"716.5 787 CURVE SMOOTH",
"716.167 792.333 OFFCURVE",
"715.667 797 OFFCURVE",
"715 801 CURVE",
"650 801 LINE",
"650.667 799 OFFCURVE",
"651.333 794.167 OFFCURVE",
"652 786.5 CURVE SMOOTH",
"652.667 778.833 OFFCURVE",
"653 772 OFFCURVE",
"653 766 CURVE SMOOTH",
"653 752 OFFCURVE",
"651.167 740.333 OFFCURVE",
"647.5 731 CURVE SMOOTH",
"643.833 721.667 OFFCURVE",
"639 714.167 OFFCURVE",
"633 708.5 CURVE SMOOTH",
"627 702.833 OFFCURVE",
"620.167 698.833 OFFCURVE",
"612.5 696.5 CURVE SMOOTH",
"604.833 694.167 OFFCURVE",
"597 693 OFFCURVE",
"589 693 CURVE SMOOTH",
"525 693 LINE"
);
}
);
width = 693;
}
);
leftKerningGroup = U;
unicode = 01AF;
},
{
glyphname = Uogonek;
lastChange = "2018-03-22 14:29:51 +0000";
layers = (
{
layerId = "ECA8ADC0-D5C0-4AFD-BCF0-9F577B806AFE";
paths = (
{
closed = 1;
nodes = (
"302 -136.667 OFFCURVE",
"309.333 -153.5 OFFCURVE",
"324 -166.5 CURVE SMOOTH",
"338.667 -179.5 OFFCURVE",
"364 -186 OFFCURVE",
"400 -186 CURVE SMOOTH",
"410 -186 OFFCURVE",
"420.167 -185 OFFCURVE",
"430.5 -183 CURVE SMOOTH",
"440.833 -181 OFFCURVE",
"448.667 -179 OFFCURVE",
"454 -177 CURVE",
"449 -129 LINE",
"443.667 -131 OFFCURVE",
"437.5 -132.5 OFFCURVE",
"430.5 -133.5 CURVE SMOOTH",
"423.5 -134.5 OFFCURVE",
"417 -135 OFFCURVE",
"411 -135 CURVE SMOOTH",
"399 -135 OFFCURVE",
"389 -132.333 OFFCURVE",
"381 -127 CURVE SMOOTH",
"373 -121.667 OFFCURVE",
"369 -113 OFFCURVE",
"369 -101 CURVE SMOOTH",
"369 -89.667 OFFCURVE",
"372.167 -79.167 OFFCURVE",
"378.5 -69.5 CURVE SMOOTH",
"384.833 -59.833 OFFCURVE",
"393.333 -49.333 OFFCURVE",
"404 -38 CURVE SMOOTH",
"416 -25.333 OFFCURVE",
"428.833 -14.5 OFFCURVE",
"442.5 -5.5 CURVE SMOOTH",
"456.167 3.5 OFFCURVE",
"469.667 11.667 OFFCURVE",
"483 19 CURVE SMOOTH",
"522.333 41.667 OFFCURVE",
"550.5 74 OFFCURVE",
"567.5 116 CURVE SMOOTH",
"584.5 158 OFFCURVE",
"593 205 OFFCURVE",
"593 257 CURVE SMOOTH",
"593 693 LINE",
"525 693 LINE",
"525 266 LINE SMOOTH",
"525 228 OFFCURVE",
"520.5 195.167 OFFCURVE",
"511.5 167.5 CURVE SMOOTH",
"502.5 139.833 OFFCURVE",
"490 117 OFFCURVE",
"474 99 CURVE SMOOTH",
"458 81 OFFCURVE",
"438.667 67.667 OFFCURVE",
"416 59 CURVE SMOOTH",
"393.333 50.333 OFFCURVE",
"368 46 OFFCURVE",
"340 46 CURVE SMOOTH",
"312 46 OFFCURVE",
"286.667 50.333 OFFCURVE",
"264 59 CURVE SMOOTH",
"241.333 67.667 OFFCURVE",
"222 81 OFFCURVE",
"206 99 CURVE SMOOTH",
"190 117 OFFCURVE",
"177.5 139.833 OFFCURVE",
"168.5 167.5 CURVE SMOOTH",
"159.5 195.167 OFFCURVE",
"155 228 OFFCURVE",
"155 266 CURVE SMOOTH",
"155 693 LINE",
"87 693 LINE",
"87 257 LINE SMOOTH",
"87 219 OFFCURVE",
"91.5 183.5 OFFCURVE",
"100.5 150.5 CURVE SMOOTH",
"109.5 117.5 OFFCURVE",
"124 88.667 OFFCURVE",
"144 64 CURVE SMOOTH",
"164 39.333 OFFCURVE",
"190.167 20 OFFCURVE",
"222.5 6 CURVE SMOOTH",
"254.833 -8 OFFCURVE",
"294 -15 OFFCURVE",
"340 -15 CURVE SMOOTH",
"343.333 -15 OFFCURVE",
"346.667 -15 OFFCURVE",
"350 -15 CURVE SMOOTH",
"353.333 -15 OFFCURVE",
"357 -14.667 OFFCURVE",
"361 -14 CURVE",
"344.333 -28.667 OFFCURVE",
"330.333 -44.167 OFFCURVE",
"319 -60.5 CURVE SMOOTH",
"307.667 -76.833 OFFCURVE",
"302 -95.333 OFFCURVE",
"302 -116 CURVE SMOOTH"
);
}
);
width = 680;
}
);
leftKerningGroup = U;
rightKerningGroup = U;
unicode = 0172;
},
{
glyphname = "Upsilon-latin";
lastChange = "2018-03-22 14:29:51 +0000";
layers = (
{
layerId = "ECA8ADC0-D5C0-4AFD-BCF0-9F577B806AFE";
paths = (
{
closed = 1;
nodes = (
"708 364 OFFCURVE",
"703.5 398.833 OFFCURVE",
"694.5 430.5 CURVE SMOOTH",
"685.5 462.167 OFFCURVE",
"674.333 491 OFFCURVE",
"661 517 CURVE SMOOTH",
"647.667 543 OFFCURVE",
"632.667 565.833 OFFCURVE",
"616 585.5 CURVE SMOOTH",
"599.333 605.167 OFFCURVE",
"583.667 621.667 OFFCURVE",
"569 635 CURVE",
"724 635 LINE",
"724 693 LINE",
"470 693 LINE",
"470 649 LINE",
"493.333 631.667 OFFCURVE",
"515 612.167 OFFCURVE",
"535 590.5 CURVE SMOOTH",
"555 568.833 OFFCURVE",
"572.5 544.5 OFFCURVE",
"587.5 517.5 CURVE SMOOTH",
"602.5 490.5 OFFCURVE",
"614.333 461 OFFCURVE",
"623 429 CURVE SMOOTH",
"631.667 397 OFFCURVE",
"636 362 OFFCURVE",
"636 324 CURVE SMOOTH",
"636 280.667 OFFCURVE",
"630 241.833 OFFCURVE",
"618 207.5 CURVE SMOOTH",
"606 173.167 OFFCURVE",
"589.167 144 OFFCURVE",
"567.5 120 CURVE SMOOTH",
"545.833 96 OFFCURVE",
"520 77.667 OFFCURVE",
"490 65 CURVE SMOOTH",
"460 52.333 OFFCURVE",
"426.667 46 OFFCURVE",
"390 46 CURVE SMOOTH",
"353.333 46 OFFCURVE",
"320 52.333 OFFCURVE",
"290 65 CURVE SMOOTH",
"260 77.667 OFFCURVE",
"234.167 96 OFFCURVE",
"212.5 120 CURVE SMOOTH",
"190.833 144 OFFCURVE",
"174 173.167 OFFCURVE",
"162 207.5 CURVE SMOOTH",
"150 241.833 OFFCURVE",
"144 280.667 OFFCURVE",
"144 324 CURVE SMOOTH",
"144 362 OFFCURVE",
"148.333 397 OFFCURVE",
"157 429 CURVE SMOOTH",
"165.667 461 OFFCURVE",
"177.5 490.5 OFFCURVE",
"192.5 517.5 CURVE SMOOTH",
"207.5 544.5 OFFCURVE",
"225 568.833 OFFCURVE",
"245 590.5 CURVE SMOOTH",
"265 612.167 OFFCURVE",
"286.667 631.667 OFFCURVE",
"310 649 CURVE",
"310 693 LINE",
"56 693 LINE",
"56 635 LINE",
"211 635 LINE",
"195.667 621.667 OFFCURVE",
"179.833 605.167 OFFCURVE",
"163.5 585.5 CURVE SMOOTH",
"147.167 565.833 OFFCURVE",
"132.333 543 OFFCURVE",
"119 517 CURVE SMOOTH",
"105.667 491 OFFCURVE",
"94.5 462.167 OFFCURVE",
"85.5 430.5 CURVE SMOOTH",
"76.5 398.833 OFFCURVE",
"72 364 OFFCURVE",
"72 326 CURVE SMOOTH",
"72 270 OFFCURVE",
"80.5 220.667 OFFCURVE",
"97.5 178 CURVE SMOOTH",
"114.5 135.333 OFFCURVE",
"137.5 99.667 OFFCURVE",
"166.5 71 CURVE SMOOTH",
"195.5 42.333 OFFCURVE",
"229.167 20.833 OFFCURVE",
"267.5 6.5 CURVE SMOOTH",
"305.833 -7.833 OFFCURVE",
"346.667 -15 OFFCURVE",
"390 -15 CURVE SMOOTH",
"432.667 -15 OFFCURVE",
"473.333 -7.833 OFFCURVE",
"512 6.5 CURVE SMOOTH",
"550.667 20.833 OFFCURVE",
"584.5 42.333 OFFCURVE",
"613.5 71 CURVE SMOOTH",
"642.5 99.667 OFFCURVE",
"665.5 135.333 OFFCURVE",
"682.5 178 CURVE SMOOTH",
"699.5 220.667 OFFCURVE",
"708 270 OFFCURVE",
"708 326 CURVE SMOOTH"
);
}
);
width = 780;
}
);
leftKerningGroup = "Upsilon-latin";
note = uni01B1;
rightKerningGroup = "Upsilon-latin";
unicode = 01B1;
},
{
glyphname = V;
lastChange = "2018-03-24 18:32:14 +0000";
layers = (
{
layerId = "ECA8ADC0-D5C0-4AFD-BCF0-9F577B806AFE";
paths = (
{
closed = 1;
nodes = (
"91 440 OFFCURVE",
"181 233 OFFCURVE",
"281 10 CURVE",
"302 -4 OFFCURVE",
"323 -4 OFFCURVE",
"344 10 CURVE",
"438 219 OFFCURVE",
"529 436 OFFCURVE",
"614 675 CURVE",
"610 700 OFFCURVE",
"550 699 OFFCURVE",
"542 675 CURVE",
"469 460 OFFCURVE",
"335 124 OFFCURVE",
"314 98 CURVE",
"294 113 OFFCURVE",
"156 467 OFFCURVE",
"86 673 CURVE",
"72 702 OFFCURVE",
"10 696 OFFCURVE",
"10 673 CURVE"
);
}
);
width = 624;
}
);
leftKerningGroup = V;
rightKerningGroup = V;
unicode = 0056;
},
{
glyphname = "Gamma-latin";
lastChange = "2018-03-22 14:29:51 +0000";
layers = (
{
layerId = "ECA8ADC0-D5C0-4AFD-BCF0-9F577B806AFE";
paths = (
{
closed = 1;
nodes = (
"379 -73.333 OFFCURVE",
"373.667 -90.167 OFFCURVE",
"363 -104.5 CURVE SMOOTH",
"352.333 -118.833 OFFCURVE",
"335.333 -126 OFFCURVE",
"312 -126 CURVE SMOOTH",
"288.667 -126 OFFCURVE",
"271.667 -118.833 OFFCURVE",
"261 -104.5 CURVE SMOOTH",
"250.333 -90.167 OFFCURVE",
"245 -73.333 OFFCURVE",
"245 -54 CURVE SMOOTH",
"245 -40.667 OFFCURVE",
"247.167 -27.167 OFFCURVE",
"251.5 -13.5 CURVE SMOOTH",
"255.833 0.167 OFFCURVE",
"261.167 13.667 OFFCURVE",
"267.5 27 CURVE SMOOTH",
"273.833 40.333 OFFCURVE",
"281 53.333 OFFCURVE",
"289 66 CURVE SMOOTH",
"297 78.667 OFFCURVE",
"304.667 90.667 OFFCURVE",
"312 102 CURVE",
"319.333 90.667 OFFCURVE",
"327 78.667 OFFCURVE",
"335 66 CURVE SMOOTH",
"343 53.333 OFFCURVE",
"350.167 40.333 OFFCURVE",
"356.5 27 CURVE SMOOTH",
"362.833 13.667 OFFCURVE",
"368.167 0.167 OFFCURVE",
"372.5 -13.5 CURVE SMOOTH",
"376.833 -27.167 OFFCURVE",
"379 -40.667 OFFCURVE",
"379 -54 CURVE SMOOTH"
);
},
{
closed = 1;
nodes = (
"369.333 192.667 OFFCURVE",
"391.833 232.833 OFFCURVE",
"415.5 276.5 CURVE SMOOTH",
"439.167 320.167 OFFCURVE",
"462.667 365.333 OFFCURVE",
"486 412 CURVE SMOOTH",
"509.333 458.667 OFFCURVE",
"532 505.833 OFFCURVE",
"554 553.5 CURVE SMOOTH",
"576 601.167 OFFCURVE",
"596 647.667 OFFCURVE",
"614 693 CURVE",
"542 693 LINE",
"507.333 614.333 OFFCURVE",
"471.167 534.167 OFFCURVE",
"433.5 452.5 CURVE SMOOTH",
"395.833 370.833 OFFCURVE",
"355.667 290.667 OFFCURVE",
"313 212 CURVE",
"271.667 288 OFFCURVE",
"232.333 366.667 OFFCURVE",
"195 448 CURVE SMOOTH",
"157.667 529.333 OFFCURVE",
"121.333 611 OFFCURVE",
"86 693 CURVE",
"10 693 LINE",
"53.333 591.667 OFFCURVE",
"97.333 494.833 OFFCURVE",
"142 402.5 CURVE SMOOTH",
"186.667 310.167 OFFCURVE",
"231 226.667 OFFCURVE",
"275 152 CURVE",
"265 135 LINE SMOOTH",
"256.333 119.667 OFFCURVE",
"247.167 104.167 OFFCURVE",
"237.5 88.5 CURVE SMOOTH",
"227.833 72.833 OFFCURVE",
"219 57.167 OFFCURVE",
"211 41.5 CURVE SMOOTH",
"203 25.833 OFFCURVE",
"196.333 10 OFFCURVE",
"191 -6 CURVE SMOOTH",
"185.667 -22 OFFCURVE",
"183 -38.333 OFFCURVE",
"183 -55 CURVE SMOOTH",
"183 -66.333 OFFCURVE",
"184.5 -79.333 OFFCURVE",
"187.5 -94 CURVE SMOOTH",
"190.5 -108.667 OFFCURVE",
"196.667 -122.667 OFFCURVE",
"206 -136 CURVE SMOOTH",
"215.333 -149.333 OFFCURVE",
"228.5 -160.667 OFFCURVE",
"245.5 -170 CURVE SMOOTH",
"262.5 -179.333 OFFCURVE",
"285 -184 OFFCURVE",
"313 -184 CURVE SMOOTH",
"341 -184 OFFCURVE",
"363.5 -179.333 OFFCURVE",
"380.5 -170 CURVE SMOOTH",
"397.5 -160.667 OFFCURVE",
"410.667 -149.333 OFFCURVE",
"420 -136 CURVE SMOOTH",
"429.333 -122.667 OFFCURVE",
"435.5 -108.667 OFFCURVE",
"438.5 -94 CURVE SMOOTH",
"441.5 -79.333 OFFCURVE",
"443 -66.333 OFFCURVE",
"443 -55 CURVE SMOOTH",
"443 -38.333 OFFCURVE",
"440.333 -21.833 OFFCURVE",
"435 -5.5 CURVE SMOOTH",
"429.667 10.833 OFFCURVE",
"423 26.833 OFFCURVE",
"415 42.5 CURVE SMOOTH",
"407 58.167 OFFCURVE",
"398.167 73.667 OFFCURVE",
"388.5 89 CURVE SMOOTH",
"378.833 104.333 OFFCURVE",
"369.667 119.667 OFFCURVE",
"361 135 CURVE",
"348 156 LINE"
);
}
);
width = 624;
}
);
leftKerningGroup = V;
note = uni0194;
rightKerningGroup = V;
unicode = 0194;
},
{
glyphname = Vhook;
lastChange = "2018-03-22 14:29:51 +0000";
layers = (
{
layerId = "ECA8ADC0-D5C0-4AFD-BCF0-9F577B806AFE";
paths = (
{
closed = 1;
nodes = (
"386.667 694 OFFCURVE",
"375.833 693.333 OFFCURVE",
"365.5 692 CURVE SMOOTH",
"355.167 690.667 OFFCURVE",
"347.667 689.333 OFFCURVE",
"343 688 CURVE",
"349 634 LINE",
"352.333 634.667 OFFCURVE",
"357 635.333 OFFCURVE",
"363 636 CURVE SMOOTH",
"369 636.667 OFFCURVE",
"375.667 637 OFFCURVE",
"383 637 CURVE SMOOTH",
"435.667 637 OFFCURVE",
"474.5 614 OFFCURVE",
"499.5 568 CURVE SMOOTH",
"524.5 522 OFFCURVE",
"537 449.667 OFFCURVE",
"537 351 CURVE SMOOTH",
"537 296.333 OFFCURVE",
"532.333 249.667 OFFCURVE",
"523 211 CURVE SMOOTH",
"513.667 172.333 OFFCURVE",
"499.833 140.833 OFFCURVE",
"481.5 116.5 CURVE SMOOTH",
"463.167 92.167 OFFCURVE",
"440.833 74.333 OFFCURVE",
"414.5 63 CURVE SMOOTH",
"388.167 51.667 OFFCURVE",
"358 46 OFFCURVE",
"324 46 CURVE SMOOTH",
"300 46 OFFCURVE",
"277.667 50.333 OFFCURVE",
"257 59 CURVE SMOOTH",
"236.333 67.667 OFFCURVE",
"218.5 80.833 OFFCURVE",
"203.5 98.5 CURVE SMOOTH",
"188.5 116.167 OFFCURVE",
"176.667 138.5 OFFCURVE",
"168 165.5 CURVE SMOOTH",
"159.333 192.5 OFFCURVE",
"155 224.333 OFFCURVE",
"155 261 CURVE SMOOTH",
"155 693 LINE",
"87 693 LINE",
"87 251 LINE SMOOTH",
"87 214.333 OFFCURVE",
"91.333 179.833 OFFCURVE",
"100 147.5 CURVE SMOOTH",
"108.667 115.167 OFFCURVE",
"122.5 87 OFFCURVE",
"141.5 63 CURVE SMOOTH",
"160.5 39 OFFCURVE",
"185.5 20 OFFCURVE",
"216.5 6 CURVE SMOOTH",
"247.5 -8 OFFCURVE",
"285.333 -15 OFFCURVE",
"330 -15 CURVE SMOOTH",
"370.667 -15 OFFCURVE",
"405.833 -9 OFFCURVE",
"435.5 3 CURVE SMOOTH",
"465.167 15 OFFCURVE",
"490.167 30.833 OFFCURVE",
"510.5 50.5 CURVE SMOOTH",
"530.833 70.167 OFFCURVE",
"547.333 92.833 OFFCURVE",
"560 118.5 CURVE SMOOTH",
"572.667 144.167 OFFCURVE",
"582.333 171 OFFCURVE",
"589 199 CURVE SMOOTH",
"595.667 227 OFFCURVE",
"600.167 255 OFFCURVE",
"602.5 283 CURVE SMOOTH",
"604.833 311 OFFCURVE",
"606 337.333 OFFCURVE",
"606 362 CURVE SMOOTH",
"606 406 OFFCURVE",
"602.833 448 OFFCURVE",
"596.5 488 CURVE SMOOTH",
"590.167 528 OFFCURVE",
"579.167 563.167 OFFCURVE",
"563.5 593.5 CURVE SMOOTH",
"547.833 623.833 OFFCURVE",
"526.5 648.167 OFFCURVE",
"499.5 666.5 CURVE SMOOTH",
"472.5 684.833 OFFCURVE",
"438.667 694 OFFCURVE",
"398 694 CURVE SMOOTH"
);
}
);
width = 681;
}
);
leftKerningGroup = Vhook;
note = uni01B2;
rightKerningGroup = Vhook;
unicode = 01B2;
},
{
glyphname = W;
lastChange = "2018-03-24 18:34:56 +0000";
layers = (
{
layerId = "ECA8ADC0-D5C0-4AFD-BCF0-9F577B806AFE";
paths = (
{
closed = 1;
nodes = (
"353 429 OFFCURVE",
"241 145 OFFCURVE",
"217 83 CURVE",
"183 159 OFFCURVE",
"113 478 OFFCURVE",
"80 677 CURVE",
"69 695 OFFCURVE",
"22 701 OFFCURVE",
"10 677 CURVE",
"51 434 OFFCURVE",
"97 228 OFFCURVE",
"174 15 CURVE",
"198 -1 OFFCURVE",
"222 -1 OFFCURVE",
"246 15 CURVE",
"314 175 OFFCURVE",
"384 344 OFFCURVE",
"434 498 CURVE",
"494 316 OFFCURVE",
"546 193 OFFCURVE",
"621 15 CURVE",
"645 -4 OFFCURVE",
"670 -4 OFFCURVE",
"694 15 CURVE",
"761 205 OFFCURVE",
"819 439 OFFCURVE",
"859 677 CURVE",
"849 695 OFFCURVE",
"804 707 OFFCURVE",
"792 677 CURVE",
"755 474 OFFCURVE",
"688 147 OFFCURVE",
"656 88 CURVE",
"628 149 OFFCURVE",
"517 432 OFFCURVE",
"465 608 CURVE",
"460 624 OFFCURVE",
"423 630 OFFCURVE",
"406 608 CURVE"
);
}
);
width = 869;
}
);
leftKerningGroup = W;
rightKerningGroup = W;
unicode = 0057;
},
{
glyphname = Wynn;
lastChange = "2018-03-22 14:29:51 +0000";
layers = (
{
layerId = "ECA8ADC0-D5C0-4AFD-BCF0-9F577B806AFE";
paths = (
{
closed = 1;
nodes = (
"216.667 23.667 OFFCURVE",
"271.5 48.5 OFFCURVE",
"322.5 75.5 CURVE SMOOTH",
"373.5 102.5 OFFCURVE",
"417.667 133.5 OFFCURVE",
"455 168.5 CURVE SMOOTH",
"492.333 203.5 OFFCURVE",
"521.833 243.833 OFFCURVE",
"543.5 289.5 CURVE SMOOTH",
"565.167 335.167 OFFCURVE",
"576 387.667 OFFCURVE",
"576 447 CURVE SMOOTH",
"576 530.333 OFFCURVE",
"552.167 593.167 OFFCURVE",
"504.5 635.5 CURVE SMOOTH",
"456.833 677.833 OFFCURVE",
"388.333 699 OFFCURVE",
"299 699 CURVE SMOOTH",
"279 699 OFFCURVE",
"258.833 697.333 OFFCURVE",
"238.5 694 CURVE SMOOTH",
"218.167 690.667 OFFCURVE",
"198.667 686.5 OFFCURVE",
"180 681.5 CURVE SMOOTH",
"161.333 676.5 OFFCURVE",
"144.333 671.167 OFFCURVE",
"129 665.5 CURVE SMOOTH",
"113.667 659.833 OFFCURVE",
"100.667 655 OFFCURVE",
"90 651 CURVE",
"90 -185 LINE",
"158 -185 LINE",
"158 1 LINE"
);
},
{
closed = 1;
nodes = (
"170 615.333 OFFCURVE",
"187.833 621.667 OFFCURVE",
"211.5 629 CURVE SMOOTH",
"235.167 636.333 OFFCURVE",
"264.667 640 OFFCURVE",
"300 640 CURVE SMOOTH",
"365.333 640 OFFCURVE",
"415.667 624.5 OFFCURVE",
"451 593.5 CURVE SMOOTH",
"486.333 562.5 OFFCURVE",
"504 515 OFFCURVE",
"504 451 CURVE SMOOTH",
"504 394.333 OFFCURVE",
"494.333 346 OFFCURVE",
"475 306 CURVE SMOOTH",
"455.667 266 OFFCURVE",
"429.833 231.333 OFFCURVE",
"397.5 202 CURVE SMOOTH",
"365.167 172.667 OFFCURVE",
"328.167 147.5 OFFCURVE",
"286.5 126.5 CURVE SMOOTH",
"244.833 105.5 OFFCURVE",
"202 85.667 OFFCURVE",
"158 67 CURVE",
"158 610 LINE"
);
}
);
width = 630;
}
);
note = uni01F7;
rightKerningGroup = Wynn;
unicode = 01F7;
},
{
glyphname = X;
lastChange = "2018-03-24 18:36:47 +0000";
layers = (
{
layerId = "ECA8ADC0-D5C0-4AFD-BCF0-9F577B806AFE";
paths = (
{
closed = 1;
nodes = (
"99 673 LINE",
"73 703 OFFCURVE",
"23 696 OFFCURVE",
"21 673 CURVE",
"244 366 LINE",
"149 231 OFFCURVE",
"68 129 OFFCURVE",
"10 15 CURVE",
"10 -3 OFFCURVE",
"57 -3 OFFCURVE",
"81 15 CURVE",
"111 75 OFFCURVE",
"230 243 OFFCURVE",
"284 318 CURVE",
"344 234 OFFCURVE",
"448 93 OFFCURVE",
"487 15 CURVE",
"502 -6 OFFCURVE",
"561 -3 OFFCURVE",
"561 15 CURVE",
"502 132 OFFCURVE",
"425 228 OFFCURVE",
"326 368 CURVE",
"549 673 LINE",
"544 692 OFFCURVE",
"498 696 OFFCURVE",
"473 673 CURVE",
"286 414 LINE"
);
}
);
width = 571;
}
);
leftKerningGroup = X;
rightKerningGroup = X;
unicode = 0058;
},
{
glyphname = Y;
lastChange = "2018-03-24 18:38:17 +0000";
layers = (
{
layerId = "ECA8ADC0-D5C0-4AFD-BCF0-9F577B806AFE";
paths = (
{
closed = 1;
nodes = (
"320 107 OFFCURVE",
"314 248 OFFCURVE",
"323 285 CURVE",
"398 400 OFFCURVE",
"475 525 OFFCURVE",
"559 675 CURVE",
"559 690 OFFCURVE",
"502 699 OFFCURVE",
"486 675 CURVE",
"434 568 OFFCURVE",
"354 446 OFFCURVE",
"287 342 CURVE",
"219 443 OFFCURVE",
"142 560 OFFCURVE",
"87 675 CURVE",
"87 690 OFFCURVE",
"10 704 OFFCURVE",
"10 675 CURVE",
"79 546 OFFCURVE",
"168 410 OFFCURVE",
"249 286 CURVE",
"259 251 OFFCURVE",
"252 106 OFFCURVE",
"252 11 CURVE",
"262 -6 OFFCURVE",
"306 -4 OFFCURVE",
"320 11 CURVE"
);
}
);
width = 569;
}
);
leftKerningGroup = Y;
rightKerningGroup = Y;
unicode = 0059;
},
{
glyphname = Yhook;
lastChange = "2018-03-22 14:29:51 +0000";
layers = (
{
layerId = "ECA8ADC0-D5C0-4AFD-BCF0-9F577B806AFE";
paths = (
{
closed = 1;
nodes = (
"10 693 LINE",
"44 627 OFFCURVE",
"81.167 560.167 OFFCURVE",
"121.5 492.5 CURVE SMOOTH",
"161.833 424.833 OFFCURVE",
"205 355.667 OFFCURVE",
"251 285 CURVE",
"251 0 LINE",
"319 0 LINE",
"319 287 LINE",
"331.667 311.667 OFFCURVE",
"346 338.5 OFFCURVE",
"362 367.5 CURVE SMOOTH",
"378 396.5 OFFCURVE",
"394 425.167 OFFCURVE",
"410 453.5 CURVE SMOOTH",
"426 481.833 OFFCURVE",
"441.5 508.833 OFFCURVE",
"456.5 534.5 CURVE SMOOTH",
"471.5 560.167 OFFCURVE",
"484.667 582.667 OFFCURVE",
"496 602 CURVE SMOOTH",
"506 619.333 OFFCURVE",
"515 630.667 OFFCURVE",
"523 636 CURVE SMOOTH",
"531 641.333 OFFCURVE",
"541.667 644 OFFCURVE",
"555 644 CURVE SMOOTH",
"570.333 644 OFFCURVE",
"583.833 640.167 OFFCURVE",
"595.5 632.5 CURVE SMOOTH",
"607.167 624.833 OFFCURVE",
"616.667 616.667 OFFCURVE",
"624 608 CURVE",
"658 653 LINE",
"654 657.667 OFFCURVE",
"648.833 663 OFFCURVE",
"642.5 669 CURVE SMOOTH",
"636.167 675 OFFCURVE",
"628.5 680.5 OFFCURVE",
"619.5 685.5 CURVE SMOOTH",
"610.5 690.5 OFFCURVE",
"600.333 694.667 OFFCURVE",
"589 698 CURVE SMOOTH",
"577.667 701.333 OFFCURVE",
"565 703 OFFCURVE",
"551 703 CURVE SMOOTH",
"536.333 703 OFFCURVE",
"523.667 701.667 OFFCURVE",
"513 699 CURVE SMOOTH",
"502.333 696.333 OFFCURVE",
"493 692 OFFCURVE",
"485 686 CURVE SMOOTH",
"477 680 OFFCURVE",
"469.667 672.5 OFFCURVE",
"463 663.5 CURVE SMOOTH",
"456.333 654.5 OFFCURVE",
"449.667 644 OFFCURVE",
"443 632 CURVE SMOOTH",
"431.667 612 OFFCURVE",
"419.167 590 OFFCURVE",
"405.5 566 CURVE SMOOTH",
"391.833 542 OFFCURVE",
"378.167 517.333 OFFCURVE",
"364.5 492 CURVE SMOOTH",
"350.833 466.667 OFFCURVE",
"337.167 441.167 OFFCURVE",
"323.5 415.5 CURVE SMOOTH",
"309.833 389.833 OFFCURVE",
"297.333 365.667 OFFCURVE",
"286 343 CURVE",
"250 398.333 OFFCURVE",
"215.333 455.5 OFFCURVE",
"182 514.5 CURVE SMOOTH",
"148.667 573.5 OFFCURVE",
"117.667 633 OFFCURVE",
"89 693 CURVE"
);
}
);
width = 654;
}
);
leftKerningGroup = Y;
note = uni01B3;
rightKerningGroup = Y;
unicode = 01B3;
},
{
glyphname = Yr;
lastChange = "2018-03-22 14:29:51 +0000";
layers = (
{
layerId = "ECA8ADC0-D5C0-4AFD-BCF0-9F577B806AFE";
paths = (
{
closed = 1;
nodes = (
"90 0 LINE",
"158 0 LINE",
"158 280 LINE",
"270 280 LINE SMOOTH",
"291.333 280 OFFCURVE",
"312.667 281 OFFCURVE",
"334 283 CURVE",
"346 267 OFFCURVE",
"360.833 247 OFFCURVE",
"378.5 223 CURVE SMOOTH",
"396.167 199 OFFCURVE",
"415.5 170.667 OFFCURVE",
"436.5 138 CURVE SMOOTH",
"457.5 105.333 OFFCURVE",
"479.5 68.5 OFFCURVE",
"502.5 27.5 CURVE SMOOTH",
"525.5 -13.5 OFFCURVE",
"548.667 -59 OFFCURVE",
"572 -109 CURVE",
"645 -109 LINE",
"623.667 -60.333 OFFCURVE",
"601 -14.167 OFFCURVE",
"577 29.5 CURVE SMOOTH",
"553 73.167 OFFCURVE",
"530 112.5 OFFCURVE",
"508 147.5 CURVE SMOOTH",
"486 182.5 OFFCURVE",
"465.667 212.833 OFFCURVE",
"447 238.5 CURVE SMOOTH",
"428.333 264.167 OFFCURVE",
"413.667 283.667 OFFCURVE",
"403 297 CURVE",
"447.667 310.333 OFFCURVE",
"483.667 332 OFFCURVE",
"511 362 CURVE SMOOTH",
"538.333 392 OFFCURVE",
"552 433 OFFCURVE",
"552 485 CURVE SMOOTH",
"552 625.667 OFFCURVE",
"455.667 696 OFFCURVE",
"263 696 CURVE SMOOTH",
"246.333 696 OFFCURVE",
"227.5 695.333 OFFCURVE",
"206.5 694 CURVE SMOOTH",
"185.5 692.667 OFFCURVE",
"169.333 691.333 OFFCURVE",
"158 690 CURVE",
"158 776 LINE",
"90 776 LINE"
);
},
{
closed = 1;
nodes = (
"481 452.667 OFFCURVE",
"475 426.333 OFFCURVE",
"463 407 CURVE SMOOTH",
"451 387.667 OFFCURVE",
"434.667 372.833 OFFCURVE",
"414 362.5 CURVE SMOOTH",
"393.333 352.167 OFFCURVE",
"369 345.5 OFFCURVE",
"341 342.5 CURVE SMOOTH",
"313 339.5 OFFCURVE",
"283.333 338 OFFCURVE",
"252 338 CURVE SMOOTH",
"158 338 LINE",
"158 631 LINE",
"169.333 632.333 OFFCURVE",
"184.333 633.667 OFFCURVE",
"203 635 CURVE SMOOTH",
"221.667 636.333 OFFCURVE",
"243 637 OFFCURVE",
"267 637 CURVE SMOOTH",
"295 637 OFFCURVE",
"321.833 635 OFFCURVE",
"347.5 631 CURVE SMOOTH",
"373.167 627 OFFCURVE",
"395.833 619.333 OFFCURVE",
"415.5 608 CURVE SMOOTH",
"435.167 596.667 OFFCURVE",
"451 581.167 OFFCURVE",
"463 561.5 CURVE SMOOTH",
"475 541.833 OFFCURVE",
"481 516.667 OFFCURVE",
"481 486 CURVE SMOOTH"
);
}
);
width = 618;
}
);
note = uni01A6;
rightKerningGroup = R;
unicode = 01A6;
},
{
glyphname = Ystroke;
lastChange = "2018-03-22 14:29:51 +0000";
layers = (
{
layerId = "ECA8ADC0-D5C0-4AFD-BCF0-9F577B806AFE";
paths = (
{
closed = 1;
nodes = (
"329 287 LINE",
"349.667 319 OFFCURVE",
"369.667 350.333 OFFCURVE",
"389 381 CURVE SMOOTH",
"408.333 411.667 OFFCURVE",
"427 442.667 OFFCURVE",
"445 474 CURVE",
"568 474 LINE",
"568 528 LINE",
"476 528 LINE",
"569 693 LINE",
"495 693 LINE",
"481.667 665.667 OFFCURVE",
"467.667 638.333 OFFCURVE",
"453 611 CURVE SMOOTH",
"438.333 583.667 OFFCURVE",
"423.333 556 OFFCURVE",
"408 528 CURVE",
"184 528 LINE",
"168.667 556 OFFCURVE",
"153.833 583.667 OFFCURVE",
"139.5 611 CURVE SMOOTH",
"125.167 638.333 OFFCURVE",
"111.667 665.667 OFFCURVE",
"99 693 CURVE",
"20 693 LINE",
"34 665.667 OFFCURVE",
"48.667 638.333 OFFCURVE",
"64 611 CURVE SMOOTH",
"79.333 583.667 OFFCURVE",
"95 556 OFFCURVE",
"111 528 CURVE",
"20 528 LINE",
"20 474 LINE",
"143 474 LINE",
"161.667 442.667 OFFCURVE",
"180.667 411.333 OFFCURVE",
"200 380 CURVE SMOOTH",
"219.333 348.667 OFFCURVE",
"239.667 317 OFFCURVE",
"261 285 CURVE",
"261 0 LINE",
"329 0 LINE"
);
},
{
closed = 1;
nodes = (
"377 474 LINE",
"363.667 450.667 OFFCURVE",
"350.333 428.167 OFFCURVE",
"337 406.5 CURVE SMOOTH",
"323.667 384.833 OFFCURVE",
"310.333 363.333 OFFCURVE",
"297 342 CURVE",
"283 363.333 OFFCURVE",
"269 384.833 OFFCURVE",
"255 406.5 CURVE SMOOTH",
"241 428.167 OFFCURVE",
"227.333 450.667 OFFCURVE",
"214 474 CURVE"
);
}
);
width = 589;
}
);
leftKerningGroup = Y;
note = uni024E;
rightKerningGroup = Y;
unicode = 024E;
},
{
glyphname = Z;
lastChange = "2018-03-24 18:40:58 +0000";
layers = (
{
layerId = "ECA8ADC0-D5C0-4AFD-BCF0-9F577B806AFE";
paths = (
{
closed = 1;
nodes = (
"487 694 OFFCURVE",
"82 695 OFFCURVE",
"57 686 CURVE",
"46 666 OFFCURVE",
"44 651 OFFCURVE",
"57 638 CURVE",
"78 630 OFFCURVE",
"315 636 OFFCURVE",
"441 636 CURVE",
"335 519 OFFCURVE",
"111 201 OFFCURVE",
"38 58 CURVE",
"28 41 OFFCURVE",
"27 19 OFFCURVE",
"38 7 CURVE",
"82 -2 OFFCURVE",
"472 -1 OFFCURVE",
"520 7 CURVE",
"531 22 OFFCURVE",
"532 36 OFFCURVE",
"520 52 CURVE",
"487 63 OFFCURVE",
"151 52 OFFCURVE",
"112 60 CURVE",
"202 222 OFFCURVE",
"389 483 OFFCURVE",
"510 624 CURVE",
"518 645 OFFCURVE",
"520 665 OFFCURVE",
"510 686 CURVE"
);
}
);
width = 559;
}
);
leftKerningGroup = Z;
rightKerningGroup = Z;
unicode = 005A;
},
{
glyphname = Zhook;
lastChange = "2018-03-22 14:29:51 +0000";
layers = (
{
layerId = "ECA8ADC0-D5C0-4AFD-BCF0-9F577B806AFE";
paths = (
{
closed = 1;
nodes = (
"112 59 LINE",
"129.333 90.333 OFFCURVE",
"148.833 123.667 OFFCURVE",
"170.5 159 CURVE SMOOTH",
"192.167 194.333 OFFCURVE",
"215.167 230.167 OFFCURVE",
"239.5 266.5 CURVE SMOOTH",
"263.833 302.833 OFFCURVE",
"288.5 338.833 OFFCURVE",
"313.5 374.5 CURVE SMOOTH",
"338.5 410.167 OFFCURVE",
"363 443.833 OFFCURVE",
"387 475.5 CURVE SMOOTH",
"411 507.167 OFFCURVE",
"433.5 536.333 OFFCURVE",
"454.5 563 CURVE SMOOTH",
"475.5 589.667 OFFCURVE",
"494 612.333 OFFCURVE",
"510 631 CURVE",
"510 693 LINE",
"57 693 LINE",
"57 634 LINE",
"436 634 LINE",
"417.333 613.333 OFFCURVE",
"396.833 588.667 OFFCURVE",
"374.5 560 CURVE SMOOTH",
"352.167 531.333 OFFCURVE",
"328.667 500.167 OFFCURVE",
"304 466.5 CURVE SMOOTH",
"279.333 432.833 OFFCURVE",
"254.333 397.667 OFFCURVE",
"229 361 CURVE SMOOTH",
"203.667 324.333 OFFCURVE",
"179.333 287.833 OFFCURVE",
"156 251.5 CURVE SMOOTH",
"132.667 215.167 OFFCURVE",
"110.833 179.833 OFFCURVE",
"90.5 145.5 CURVE SMOOTH",
"70.167 111.167 OFFCURVE",
"52.667 79.667 OFFCURVE",
"38 51 CURVE",
"38 0 LINE",
"454 0 LINE",
"454 -21 LINE SMOOTH",
"454 -61 OFFCURVE",
"449.167 -89.167 OFFCURVE",
"439.5 -105.5 CURVE SMOOTH",
"429.833 -121.833 OFFCURVE",
"411.333 -130 OFFCURVE",
"384 -130 CURVE SMOOTH",
"376 -130 OFFCURVE",
"368.667 -129.333 OFFCURVE",
"362 -128 CURVE SMOOTH",
"355.333 -126.667 OFFCURVE",
"350.333 -125.333 OFFCURVE",
"347 -124 CURVE",
"338 -178 LINE",
"343.333 -180 OFFCURVE",
"351.167 -182 OFFCURVE",
"361.5 -184 CURVE SMOOTH",
"371.833 -186 OFFCURVE",
"382.667 -187 OFFCURVE",
"394 -187 CURVE SMOOTH",
"422 -187 OFFCURVE",
"444.333 -183 OFFCURVE",
"461 -175 CURVE SMOOTH",
"477.667 -167 OFFCURVE",
"490.333 -155.167 OFFCURVE",
"499 -139.5 CURVE SMOOTH",
"507.667 -123.833 OFFCURVE",
"513.333 -104.5 OFFCURVE",
"516 -81.5 CURVE SMOOTH",
"518.667 -58.5 OFFCURVE",
"520 -32.333 OFFCURVE",
"520 -3 CURVE SMOOTH",
"520 59 LINE"
);
}
);
width = 560;
}
);
leftKerningGroup = Z;
note = uni0224;
rightKerningGroup = Z;
unicode = 0224;
},
{
glyphname = Zstroke;
lastChange = "2018-03-22 14:29:51 +0000";
layers = (
{
layerId = "ECA8ADC0-D5C0-4AFD-BCF0-9F577B806AFE";
paths = (
{
closed = 1;
nodes = (
"57 693 LINE",
"57 634 LINE",
"436 634 LINE",
"410.667 606 OFFCURVE",
"381.833 570.833 OFFCURVE",
"349.5 528.5 CURVE SMOOTH",
"317.167 486.167 OFFCURVE",
"284 440.667 OFFCURVE",
"250 392 CURVE",
"85 392 LINE",
"85 337 LINE",
"212 337 LINE",
"178 286.333 OFFCURVE",
"145.667 236 OFFCURVE",
"115 186 CURVE SMOOTH",
"84.333 136 OFFCURVE",
"58.667 91 OFFCURVE",
"38 51 CURVE",
"38 0 LINE",
"520 0 LINE",
"520 59 LINE",
"112 59 LINE",
"134.667 101 OFFCURVE",
"161.167 145.833 OFFCURVE",
"191.5 193.5 CURVE SMOOTH",
"221.833 241.167 OFFCURVE",
"253.667 289 OFFCURVE",
"287 337 CURVE",
"486 337 LINE",
"486 392 LINE",
"326 392 LINE",
"361.333 441.333 OFFCURVE",
"395 486.833 OFFCURVE",
"427 528.5 CURVE SMOOTH",
"459 570.167 OFFCURVE",
"486.667 604.333 OFFCURVE",
"510 631 CURVE",
"510 693 LINE"
);
}
);
width = 560;
}
);
leftKerningGroup = Z;
note = uni01B5;
unicode = 01B5;
},
{
glyphname = a;
lastChange = "2018-03-25 10:36:31 +0000";
layers = (
{
layerId = "ECA8ADC0-D5C0-4AFD-BCF0-9F577B806AFE";
paths = (
{
closed = 1;
nodes = (
"257 517 OFFCURVE",
"264 517 CURVE SMOOTH",
"195 517 OFFCURVE",
"134 504 OFFCURVE",
"91 452 CURVE SMOOTH",
"46 397 OFFCURVE",
"30 328 OFFCURVE",
"30 258 CURVE SMOOTH",
"30 179 OFFCURVE",
"52 110 OFFCURVE",
"100 60 CURVE SMOOTH",
"148 10 OFFCURVE",
"212 0 OFFCURVE",
"284 0 CURVE SMOOTH",
"349 0 OFFCURVE",
"418 -1 OFFCURVE",
"472 6 CURVE",
"479 28 OFFCURVE",
"484 453 OFFCURVE",
"470 515 CURVE",
"411 516 OFFCURVE"
);
},
{
closed = 1;
nodes = (
"412 419 OFFCURVE",
"414 93 OFFCURVE",
"407 66 CURVE",
"375 56 OFFCURVE",
"319 58 OFFCURVE",
"285 58 CURVE SMOOTH",
"229 58 OFFCURVE",
"185 65 OFFCURVE",
"150 102 CURVE SMOOTH",
"116 138 OFFCURVE",
"99 190 OFFCURVE",
"99 258 CURVE SMOOTH",
"99 312 OFFCURVE",
"110 367 OFFCURVE",
"137 407 CURVE SMOOTH",
"166 450 OFFCURVE",
"215 456 OFFCURVE",
"270 458 CURVE SMOOTH",
"319 460 OFFCURVE",
"376 457 OFFCURVE",
"405 451 CURVE"
);
}
);
width = 519;
}
);
leftKerningGroup = a;
rightKerningGroup = a;
unicode = 0061;
},
{
glyphname = aogonek;
lastChange = "2018-03-22 14:29:51 +0000";
layers = (
{
layerId = "ECA8ADC0-D5C0-4AFD-BCF0-9F577B806AFE";
paths = (
{
closed = 1;
nodes = (
"113 451 LINE",
"121.667 454.333 OFFCURVE",
"136 458.5 OFFCURVE",
"156 463.5 CURVE SMOOTH",
"176 468.5 OFFCURVE",
"204 471 OFFCURVE",
"240 471 CURVE SMOOTH",
"266.667 471 OFFCURVE",
"288.167 466.833 OFFCURVE",
"304.5 458.5 CURVE SMOOTH",
"320.833 450.167 OFFCURVE",
"333.5 439.167 OFFCURVE",
"342.5 425.5 CURVE SMOOTH",
"351.5 411.833 OFFCURVE",
"357.333 396.5 OFFCURVE",
"360 379.5 CURVE SMOOTH",
"362.667 362.5 OFFCURVE",
"364 345 OFFCURVE",
"364 327 CURVE SMOOTH",
"364 295 LINE",
"361.333 296.333 OFFCURVE",
"356.5 297.833 OFFCURVE",
"349.5 299.5 CURVE SMOOTH",
"342.5 301.167 OFFCURVE",
"334.167 302.833 OFFCURVE",
"324.5 304.5 CURVE SMOOTH",
"314.833 306.167 OFFCURVE",
"304.833 307.5 OFFCURVE",
"294.5 308.5 CURVE SMOOTH",
"284.167 309.5 OFFCURVE",
"274.333 310 OFFCURVE",
"265 310 CURVE SMOOTH",
"233.667 310 OFFCURVE",
"204.667 307 OFFCURVE",
"178 301 CURVE SMOOTH",
"151.333 295 OFFCURVE",
"128.333 285.5 OFFCURVE",
"109 272.5 CURVE SMOOTH",
"89.667 259.5 OFFCURVE",
"74.667 243 OFFCURVE",
"64 223 CURVE SMOOTH",
"53.333 203 OFFCURVE",
"48 179 OFFCURVE",
"48 151 CURVE SMOOTH",
"48 121.667 OFFCURVE",
"52.833 96.833 OFFCURVE",
"62.5 76.5 CURVE SMOOTH",
"72.167 56.167 OFFCURVE",
"85.5 39.5 OFFCURVE",
"102.5 26.5 CURVE SMOOTH",
"119.5 13.5 OFFCURVE",
"139.5 4 OFFCURVE",
"162.5 -2 CURVE SMOOTH",
"185.5 -8 OFFCURVE",
"210.667 -11 OFFCURVE",
"238 -11 CURVE SMOOTH",
"258.667 -11 OFFCURVE",
"278.667 -10.333 OFFCURVE",
"298 -9 CURVE SMOOTH",
"317.333 -7.667 OFFCURVE",
"335.333 -6 OFFCURVE",
"352 -4 CURVE",
"343.333 -10.667 OFFCURVE",
"334.5 -17.833 OFFCURVE",
"325.5 -25.5 CURVE SMOOTH",
"316.5 -33.167 OFFCURVE",
"308.5 -41.667 OFFCURVE",
"301.5 -51 CURVE SMOOTH",
"294.5 -60.333 OFFCURVE",
"288.833 -70.333 OFFCURVE",
"284.5 -81 CURVE SMOOTH",
"280.167 -91.667 OFFCURVE",
"278 -103.333 OFFCURVE",
"278 -116 CURVE SMOOTH",
"278 -136.667 OFFCURVE",
"285.333 -153.5 OFFCURVE",
"300 -166.5 CURVE SMOOTH",
"314.667 -179.5 OFFCURVE",
"340 -186 OFFCURVE",
"376 -186 CURVE SMOOTH",
"386 -186 OFFCURVE",
"396.167 -185 OFFCURVE",
"406.5 -183 CURVE SMOOTH",
"416.833 -181 OFFCURVE",
"424.667 -179 OFFCURVE",
"430 -177 CURVE",
"425 -129 LINE",
"419.667 -131 OFFCURVE",
"413.5 -132.5 OFFCURVE",
"406.5 -133.5 CURVE SMOOTH",
"399.5 -134.5 OFFCURVE",
"393 -135 OFFCURVE",
"387 -135 CURVE SMOOTH",
"375 -135 OFFCURVE",
"365 -132.333 OFFCURVE",
"357 -127 CURVE SMOOTH",
"349 -121.667 OFFCURVE",
"345 -113 OFFCURVE",
"345 -101 CURVE SMOOTH",
"345 -89.667 OFFCURVE",
"348.167 -78.833 OFFCURVE",
"354.5 -68.5 CURVE SMOOTH",
"360.833 -58.167 OFFCURVE",
"369.333 -47.333 OFFCURVE",
"380 -36 CURVE SMOOTH",
"396.667 -18 OFFCURVE",
"413 -2.667 OFFCURVE",
"429 10 CURVE",
"429 338 LINE SMOOTH",
"429 365.333 OFFCURVE",
"425.667 390.667 OFFCURVE",
"419 414 CURVE SMOOTH",
"412.333 437.333 OFFCURVE",
"401.667 457.5 OFFCURVE",
"387 474.5 CURVE SMOOTH",
"372.333 491.5 OFFCURVE",
"353.167 504.833 OFFCURVE",
"329.5 514.5 CURVE SMOOTH",
"305.833 524.167 OFFCURVE",
"277 529 OFFCURVE",
"243 529 CURVE SMOOTH",
"210.333 529 OFFCURVE",
"182 526.667 OFFCURVE",
"158 522 CURVE SMOOTH",
"134 517.333 OFFCURVE",
"116.333 512.333 OFFCURVE",
"105 507 CURVE"
);
},
{
closed = 1;
nodes = (
"115 173 OFFCURVE",
"119.667 190.667 OFFCURVE",
"129 204 CURVE SMOOTH",
"138.333 217.333 OFFCURVE",
"150.333 227.833 OFFCURVE",
"165 235.5 CURVE SMOOTH",
"179.667 243.167 OFFCURVE",
"195.667 248.167 OFFCURVE",
"213 250.5 CURVE SMOOTH",
"230.333 252.833 OFFCURVE",
"247 254 OFFCURVE",
"263 254 CURVE SMOOTH",
"291 254 OFFCURVE",
"313 252.167 OFFCURVE",
"329 248.5 CURVE SMOOTH",
"345 244.833 OFFCURVE",
"356.667 241.333 OFFCURVE",
"364 238 CURVE",
"364 56 LINE",
"350.667 53.333 OFFCURVE",
"334.5 51.167 OFFCURVE",
"315.5 49.5 CURVE SMOOTH",
"296.5 47.833 OFFCURVE",
"274.333 47 OFFCURVE",
"249 47 CURVE SMOOTH",
"228.333 47 OFFCURVE",
"209.833 48.833 OFFCURVE",
"193.5 52.5 CURVE SMOOTH",
"177.167 56.167 OFFCURVE",
"163.167 62 OFFCURVE",
"151.5 70 CURVE SMOOTH",
"139.833 78 OFFCURVE",
"130.833 88.667 OFFCURVE",
"124.5 102 CURVE SMOOTH",
"118.167 115.333 OFFCURVE",
"115 131.667 OFFCURVE",
"115 151 CURVE SMOOTH"
);
}
);
width = 509;
}
);
leftKerningGroup = a;
rightKerningGroup = a;
unicode = 0105;
},
{
glyphname = ae;
lastChange = "2018-03-22 14:29:51 +0000";
layers = (
{
layerId = "ECA8ADC0-D5C0-4AFD-BCF0-9F577B806AFE";
paths = (
{
closed = 1;
nodes = (
"433.333 322.667 OFFCURVE",
"437.833 344.333 OFFCURVE",
"445.5 365 CURVE SMOOTH",
"453.167 385.667 OFFCURVE",
"463.833 403.833 OFFCURVE",
"477.5 419.5 CURVE SMOOTH",
"491.167 435.167 OFFCURVE",
"507.167 447.667 OFFCURVE",
"525.5 457 CURVE SMOOTH",
"543.833 466.333 OFFCURVE",
"564.667 471 OFFCURVE",
"588 471 CURVE SMOOTH",
"632 471 OFFCURVE",
"666 456 OFFCURVE",
"690 426 CURVE SMOOTH",
"714 396 OFFCURVE",
"726.667 354 OFFCURVE",
"728 300 CURVE",
"432 300 LINE"
);
},
{
closed = 1;
nodes = (
"459 27.667 OFFCURVE",
"484.667 12.333 OFFCURVE",
"514 3 CURVE SMOOTH",
"543.333 -6.333 OFFCURVE",
"577 -11 OFFCURVE",
"615 -11 CURVE SMOOTH",
"649.667 -11 OFFCURVE",
"679.833 -7.333 OFFCURVE",
"705.5 0 CURVE SMOOTH",
"731.167 7.333 OFFCURVE",
"748.667 13.667 OFFCURVE",
"758 19 CURVE",
"746 75 LINE",
"736.667 70.333 OFFCURVE",
"721.667 64.667 OFFCURVE",
"701 58 CURVE SMOOTH",
"680.333 51.333 OFFCURVE",
"652.333 48 OFFCURVE",
"617 48 CURVE SMOOTH",
"553 48 OFFCURVE",
"506.333 65 OFFCURVE",
"477 99 CURVE SMOOTH",
"447.667 133 OFFCURVE",
"432 181.667 OFFCURVE",
"430 245 CURVE",
"793 245 LINE",
"793.667 249.667 OFFCURVE",
"794.167 254.667 OFFCURVE",
"794.5 260 CURVE SMOOTH",
"794.833 265.333 OFFCURVE",
"795 270.667 OFFCURVE",
"795 276 CURVE SMOOTH",
"795 362 OFFCURVE",
"776.167 425.667 OFFCURVE",
"738.5 467 CURVE SMOOTH",
"700.833 508.333 OFFCURVE",
"650.333 529 OFFCURVE",
"587 529 CURVE SMOOTH",
"553.667 529 OFFCURVE",
"521.667 520.833 OFFCURVE",
"491 504.5 CURVE SMOOTH",
"460.333 488.167 OFFCURVE",
"434 463.667 OFFCURVE",
"412 431 CURVE",
"400.667 461 OFFCURVE",
"381.5 484.833 OFFCURVE",
"354.5 502.5 CURVE SMOOTH",
"327.5 520.167 OFFCURVE",
"290.333 529 OFFCURVE",
"243 529 CURVE SMOOTH",
"210.333 529 OFFCURVE",
"182 526.667 OFFCURVE",
"158 522 CURVE SMOOTH",
"134 517.333 OFFCURVE",
"116.333 512.333 OFFCURVE",
"105 507 CURVE",
"113 451 LINE",
"121.667 454.333 OFFCURVE",
"136 458.5 OFFCURVE",
"156 463.5 CURVE SMOOTH",
"176 468.5 OFFCURVE",
"204 471 OFFCURVE",
"240 471 CURVE SMOOTH",
"266.667 471 OFFCURVE",
"288.167 466.833 OFFCURVE",
"304.5 458.5 CURVE SMOOTH",
"320.833 450.167 OFFCURVE",
"333.5 439.167 OFFCURVE",
"342.5 425.5 CURVE SMOOTH",
"351.5 411.833 OFFCURVE",
"357.333 396.5 OFFCURVE",
"360 379.5 CURVE SMOOTH",
"362.667 362.5 OFFCURVE",
"364 345 OFFCURVE",
"364 327 CURVE SMOOTH",
"364 295 LINE",
"361.333 296.333 OFFCURVE",
"356.5 297.833 OFFCURVE",
"349.5 299.5 CURVE SMOOTH",
"342.5 301.167 OFFCURVE",
"334.167 302.833 OFFCURVE",
"324.5 304.5 CURVE SMOOTH",
"314.833 306.167 OFFCURVE",
"304.833 307.5 OFFCURVE",
"294.5 308.5 CURVE SMOOTH",
"284.167 309.5 OFFCURVE",
"274.333 310 OFFCURVE",
"265 310 CURVE SMOOTH",
"233.667 310 OFFCURVE",
"204.667 307 OFFCURVE",
"178 301 CURVE SMOOTH",
"151.333 295 OFFCURVE",
"128.333 285.5 OFFCURVE",
"109 272.5 CURVE SMOOTH",
"89.667 259.5 OFFCURVE",
"74.667 243 OFFCURVE",
"64 223 CURVE SMOOTH",
"53.333 203 OFFCURVE",
"48 179 OFFCURVE",
"48 151 CURVE SMOOTH",
"48 121.667 OFFCURVE",
"53.167 96.833 OFFCURVE",
"63.5 76.5 CURVE SMOOTH",
"73.833 56.167 OFFCURVE",
"88 39.5 OFFCURVE",
"106 26.5 CURVE SMOOTH",
"124 13.5 OFFCURVE",
"145.5 4 OFFCURVE",
"170.5 -2 CURVE SMOOTH",
"195.5 -8 OFFCURVE",
"222.667 -11 OFFCURVE",
"252 -11 CURVE SMOOTH",
"276.667 -11 OFFCURVE",
"298.667 -9 OFFCURVE",
"318 -5 CURVE SMOOTH",
"337.333 -1 OFFCURVE",
"354.667 4 OFFCURVE",
"370 10 CURVE SMOOTH",
"385.333 16 OFFCURVE",
"398.5 22.5 OFFCURVE",
"409.5 29.5 CURVE SMOOTH",
"420.5 36.5 OFFCURVE",
"429.667 43 OFFCURVE",
"437 49 CURVE"
);
},
{
closed = 1;
nodes = (
"390.667 84.333 OFFCURVE",
"374 74.5 OFFCURVE",
"350 63.5 CURVE SMOOTH",
"326 52.5 OFFCURVE",
"293.333 47 OFFCURVE",
"252 47 CURVE SMOOTH",
"232 47 OFFCURVE",
"213.667 48.833 OFFCURVE",
"197 52.5 CURVE SMOOTH",
"180.333 56.167 OFFCURVE",
"165.833 62 OFFCURVE",
"153.5 70 CURVE SMOOTH",
"141.167 78 OFFCURVE",
"131.667 88.667 OFFCURVE",
"125 102 CURVE SMOOTH",
"118.333 115.333 OFFCURVE",
"115 131.667 OFFCURVE",
"115 151 CURVE SMOOTH",
"115 173 OFFCURVE",
"119.667 190.667 OFFCURVE",
"129 204 CURVE SMOOTH",
"138.333 217.333 OFFCURVE",
"150.333 227.833 OFFCURVE",
"165 235.5 CURVE SMOOTH",
"179.667 243.167 OFFCURVE",
"195.667 248.167 OFFCURVE",
"213 250.5 CURVE SMOOTH",
"230.333 252.833 OFFCURVE",
"247 254 OFFCURVE",
"263 254 CURVE SMOOTH",
"291 254 OFFCURVE",
"313.167 252.167 OFFCURVE",
"329.5 248.5 CURVE SMOOTH",
"345.833 244.833 OFFCURVE",
"357.667 241.333 OFFCURVE",
"365 238 CURVE",
"365.667 206 OFFCURVE",
"369 178.167 OFFCURVE",
"375 154.5 CURVE SMOOTH",
"381 130.833 OFFCURVE",
"389.333 110.333 OFFCURVE",
"400 93 CURVE"
);
}
);
width = 854;
}
);
leftKerningGroup = a;
rightKerningGroup = e;
unicode = 00E6;
},
{
glyphname = b;
lastChange = "2018-03-25 10:35:17 +0000";
layers = (
{
layerId = "ECA8ADC0-D5C0-4AFD-BCF0-9F577B806AFE";
paths = (
{
closed = 1;
nodes = (
"85 781 OFFCURVE",
"56 778 OFFCURVE",
"46 764 CURVE",
"40 743 OFFCURVE",
"37 28 OFFCURVE",
"44 6 CURVE",
"98 -1 OFFCURVE",
"167 0 OFFCURVE",
"232 0 CURVE SMOOTH",
"304 0 OFFCURVE",
"367 11 OFFCURVE",
"416 60 CURVE SMOOTH",
"464 110 OFFCURVE",
"486 179 OFFCURVE",
"486 258 CURVE SMOOTH",
"486 328 OFFCURVE",
"470 397 OFFCURVE",
"425 452 CURVE SMOOTH",
"382 504 OFFCURVE",
"321 517 OFFCURVE",
"252 517 CURVE SMOOTH",
"202 517 OFFCURVE",
"144 517 OFFCURVE",
"109 517 CURVE",
"101 537 OFFCURVE",
"112 737 OFFCURVE",
"106 765 CURVE"
);
},
{
closed = 1;
nodes = (
"140 457 OFFCURVE",
"197 460 OFFCURVE",
"246 458 CURVE SMOOTH",
"301 456 OFFCURVE",
"350 450 OFFCURVE",
"379 407 CURVE SMOOTH",
"406 367 OFFCURVE",
"417 312 OFFCURVE",
"417 258 CURVE SMOOTH",
"417 190 OFFCURVE",
"400 138 OFFCURVE",
"366 102 CURVE SMOOTH",
"332 65 OFFCURVE",
"287 58 OFFCURVE",
"231 58 CURVE SMOOTH",
"197 58 OFFCURVE",
"141 56 OFFCURVE",
"109 66 CURVE",
"102 93 OFFCURVE",
"104 419 OFFCURVE",
"111 451 CURVE"
);
}
);
width = 516;
}
);
leftKerningGroup = b;
rightKerningGroup = b;
unicode = 0062;
},
